<?xml version="1.0" standalone="no"?>
<!DOCTYPE svg PUBLIC "-//W3C//DTD SVG 1.1//EN" "http://www.w3.org/Graphics/SVG/1.1/DTD/svg11.dtd" >
<svg xmlns="http://www.w3.org/2000/svg" xmlns:xlink="http://www.w3.org/1999/xlink" version="1.1">
<metadata></metadata>
<defs>
<font id="iosevka_term_slabregular" horiz-adv-x="500" >
<font-face units-per-em="1000" ascent="800" descent="-200" />
<missing-glyph horiz-adv-x="500" />
<glyph horiz-adv-x="0" />
<glyph unicode="&#xd;" />
<glyph unicode=" " />
<glyph unicode="!" d="M210 735h80v-475h-80v475zM180 63q-1 22 9 38q8 14 22 23q17 9 39 9t39 -9q14 -9 22 -23q9 -15 10 -38q-1 -24 -10 -39q-8 -14 -22 -23q-17 -9 -39 -9t-39 9q-14 9 -22 23q-10 16 -9 39z" />
<glyph unicode="&#x22;" d="M194 772q0 -161 -6 -321h-76q-6 160 -6 321h88zM394 772q0 -161 -6 -321h-76q-6 160 -6 321h88z" />
<glyph unicode="#" d="M60 223h74v284h-74v72h74v247h80v-247h72v247h80v-247h74v-72h-74v-284h74v-72h-74v-247h-80v247h-72v-247h-80v247h-74v72zM286 223v284h-72v-284h72z" />
<glyph unicode="$" d="M55 188v4l79 8v-6q0 -24 12 -44q12 -21 34 -34q27 -15 67 -15t67 15q22 13 34 34q12 22 12 47q0 27 -14 52q-19 32 -61 57q-17 10 -46 23q-45 20 -66 32q-59 34 -88 83q-25 45 -25 92t22 86q21 36 59 58q30 17 69 23v135h80v-134q44 -5 76 -24q38 -22 59 -58 q20 -35 20 -75v-4l-79 -8v6q0 24 -12 44q-12 21 -34 34q-27 15 -67 15t-67 -15q-22 -13 -34 -34q-12 -22 -12 -47q0 -27 14 -52q19 -32 61 -57q17 -10 46 -23q45 -20 66 -32q59 -34 88 -83q25 -45 25 -92t-22 -86q-21 -36 -59 -58q-30 -17 -69 -23v-135h-80v134 q-44 5 -76 24q-38 22 -59 58q-20 35 -20 75z" />
<glyph unicode="%" d="M60 735h114v-220h-114v220zM352 735h88l-292 -735h-88zM326 221h114v-221h-114v221z" />
<glyph unicode="&#x26;" d="M82 295q20 36 72 81q-15 21 -26 40q-49 85 -49 162q0 54 23 93q19 33 51 52q35 20 83 20t82 -20q32 -18 52 -52q22 -39 23 -91q-1 -54 -30 -105q-26 -46 -103 -107q29 -37 69 -81q22 -24 39 -45v126h80v-173q0 -31 -6 -58q36 -69 36 -137h-80q0 23 -5 46q-16 -16 -36 -28 q-45 -26 -107 -26t-107 26q-40 23 -64 64q-27 47 -27 106q0 56 30 107zM159 578q0 -54 39 -122q8 -14 19 -29q55 46 74 79q21 36 22 74q-1 32 -14 55q-10 17 -26 26.5t-37 9.5t-37 -9q-17 -10 -26 -27q-14 -23 -14 -57zM132 187q0 -38 17 -69q15 -25 39 -39q26 -15 61.5 -15 t61.5 15q24 14 39 39q5 8 8 17q-28 46 -99 119q-33 35 -59 65q-32 -30 -46 -54q-22 -38 -22 -78z" />
<glyph unicode="'" d="M294 772q0 -161 -6 -321h-76q-6 160 -6 321h88z" />
<glyph unicode="(" d="M222 734q67 116 180 184l41 -62q-94 -60 -149 -156q-78 -134 -78 -335t78 -335q55 -96 149 -156l-41 -62q-113 68 -180 184q-86 150 -86 369t86 369z" />
<glyph unicode=")" d="M206 30q78 134 78 335t-78 335q-55 96 -149 156l41 62q113 -68 180 -184q86 -150 86 -369t-86 -369q-67 -116 -180 -184l-41 62q94 60 149 156z" />
<glyph unicode="*" d="M63 464l153 -56l-6 167h80l-6 -167l153 56l25 -68l-161 -46l105 -134l-65 -42l-91 135l-91 -135l-65 42l105 134l-161 46z" />
<glyph unicode="+" d="M60 401h150v173h80v-173h150v-72h-150v-173h-80v173h-150v72z" />
<glyph unicode="," d="M196 -118q32 55 45 110q-19 2 -34 10.5t-25 24.5q-10 18 -10 43t10 43q10 16 25 25q18 10 43 10t43 -10q15 -9 25 -25q10 -18 10 -43v-1q0 -110 -64 -219q-15 -27 -35 -55l-63 41q17 24 30 46z" />
<glyph unicode="-" d="M60 401h380v-72h-380v72z" />
<glyph unicode="." d="M182 113q10 16 25 25q18 10 43 10t43 -10q15 -9 25 -25q10 -18 10 -43t-10 -43q-10 -16 -25 -25q-18 -10 -43 -10t-43 10q-15 9 -25 25q-10 18 -10 43t10 43z" />
<glyph unicode="/" d="M363 898h82l-308 -1066h-82z" />
<glyph unicode="0" d="M44 220v295q0 79 32 133q25 44 68 69q45 26 106 26t106 -26q43 -25 68 -69q32 -54 32 -133v-295q0 -79 -32 -133q-25 -44 -68 -69q-45 -26 -106 -26t-106 26q-43 25 -68 69q-32 54 -32 133zM146 123q18 -29 44 -44q25 -15 60 -15t60 15q26 15 44 44q22 39 22 97v247 l-243 -313q5 -17 13 -31zM124 515v-247l243 313q-5 17 -13 31q-18 29 -44 44q-25 15 -60 15t-60 -15q-26 -15 -44 -44q-22 -39 -22 -97z" />
<glyph unicode="1" d="M220 735h80v-663h135v-72h-350v72h135v573l-128 -86l-44 60z" />
<glyph unicode="2" d="M80 653q23 41 63 64q45 26 107.5 26t106.5 -26q41 -23 64 -63q27 -48 27 -105q0 -59 -33 -116q-29 -52 -119 -127q-87 -73 -119 -127q-24 -43 -33 -107h216v73h80v-145h-380v1q0 136 43 211q36 62 132 138q82 66 108 111q25 44 25 88q0 38 -17 68q-15 25 -39 39 q-26 15 -62 15q-35 0 -61 -15q-24 -14 -39 -39q-13 -23 -17 -51l-78 14q5 40 25 73z" />
<glyph unicode="3" d="M125 172q4 -26 17 -49q16 -28 42 -43q28 -16 65 -16q38 0 66 16q26 15 42 42q19 34 19 76t-20 78q-20 34 -54 53q-42 25 -123 25v72q78 0 116 22q31 18 48 47.5t17 64t-16 61.5q-13 23 -35 36q-25 14 -58 14t-56.5 -13.5t-36.5 -36.5t-16 -52l-79 11q4 42 24 78 q23 38 61 60q43 25 103 25t103 -25q38 -22 61 -60q25 -45 25 -98q0 -49 -24 -90q-23 -41 -66 -66q-14 -8 -32 -14q21 -7 38 -17q47 -27 73 -73q27 -46 27 -103q0 -61 -29 -111q-25 -43 -67 -67q-46 -27 -110.5 -27t-110.5 27q-43 24 -67 67q-19 31 -25 69z" />
<glyph unicode="4" d="M44 294l232 441h98v-441h66v-72h-66v-150h45v-72h-170v72h45v150h-250v72zM294 294v322l-170 -322h170z" />
<glyph unicode="5" d="M129 181q7 -32 21 -57q18 -31 45 -46q24 -14 56 -14t56 14q26 15 44 45q25 44 25 112q0 70 -26 114q-16 29 -42 44q-23 13 -53.5 13t-53.5 -13q-26 -15 -43 -45q-11 -18 -17 -40l-71 32v395h359v-145h-80v73h-200v-214q4 3 9 5q41 24 97 24t98 -24t68 -70q35 -59 35 -149 q0 -87 -34 -147q-27 -47 -70 -71.5t-101 -24.5t-100.5 24.5t-69.5 70.5q-18 32 -26 68z" />
<glyph unicode="6" d="M117 552q54 94 147 148q38 22 79 35l24 -69q-28 -10 -56 -25q-78 -46 -123 -125q-28 -48 -44 -110q15 15 32 25q32 18 77 18q58 0 103 -26q43 -25 68 -69q32 -54 32 -133.5t-32 -133.5q-25 -44 -68 -69q-45 -26 -106 -26t-106 26q-43 25 -68 69q-32 54 -32 133 q0 206 73 332zM147 123q16 -29 43 -44q25 -15 60 -15t60 15q27 15 43 44q23 39 23 97.5t-23 97.5q-16 29 -43 44q-25 15 -59.5 15t-60.5 -15q-27 -16 -43 -45q-23 -38 -23 -96.5t23 -97.5z" />
<glyph unicode="7" d="M52 735h388v-72l-231 -663h-85l231 663h-223v-73h-80v145z" />
<glyph unicode="8" d="M44 173q0 52 28 100q28 49 110 104q-68 48 -94 92q-27 48 -28 100q1 50 24 90q21 37 59 58q44 26 107 26t107 -26q38 -21 59 -58q23 -40 24 -90q-1 -52 -28 -100q-26 -44 -94 -92q82 -55 110 -104q28 -48 28 -100q0 -50 -24 -91q-21 -38 -62 -62q-49 -28 -120 -28 t-120 28q-41 24 -62 62q-24 41 -24 91zM138 119q13 -23 38 -37q30 -18 74 -18t74 18q25 14 38 37q14 24 14 54q0 34 -19 67q-26 44 -107 94q-81 -50 -107 -94q-19 -33 -19 -67q0 -30 14 -54zM159 502q24 -39 91 -83q67 44 91 83q18 33 19 67q-1 30 -14 53q-12 22 -34 34 q-26 15 -62 15t-62 -15q-22 -12 -34 -34q-13 -23 -14 -53q1 -34 19 -67z" />
<glyph unicode="9" d="M44 496v19q0 79 32 133q25 44 68 69q45 26 106 26q60 0 103 -25t70 -71q33 -58 33 -141v-249q0 -101 -39 -168q-27 -48 -71 -73q-41 -24 -96.5 -24t-96.5 24q-44 25 -71 73q-18 30 -27 66l72 32q7 -34 23 -61q18 -33 46 -48q23 -14 54 -14q29 0 52 13q26 15 45 47 q29 51 29 133v80q-21 -32 -52 -50q-32 -19 -77 -19q-58 0 -103 26q-42 25 -69 69q-31 55 -31 133zM147 399q16 -29 43 -44q25 -15 59.5 -15t61 15.5t43.5 44.5q22 39 22 96v10q0 63 -24 106q-18 29 -44 45q-25 14 -58 14q-35 0 -60 -15q-26 -15 -44 -44q-22 -39 -22 -97v-19 q0 -58 23 -97z" />
<glyph unicode=":" d="M182 113q10 16 25 25q18 10 43 10t43 -10q15 -9 25 -25q10 -18 10 -43t-10 -43q-10 -16 -25 -25q-18 -10 -43 -10t-43 10q-15 9 -25 25q-10 18 -10 43t10 43zM182 503q10 16 25 25q18 10 43 10t43 -10q15 -9 25 -25q10 -18 10 -43t-10 -43q-10 -16 -25 -25 q-18 -10 -43 -10t-43 10q-15 9 -25 25q-10 18 -10 43t10 43z" />
<glyph unicode=";" d="M196 -118q32 55 45 110q-19 2 -34 10.5t-25 24.5q-10 18 -10 43t10 43q10 16 25 25q18 10 43 10t43 -10q15 -9 25 -25q10 -18 10 -43v-1q0 -110 -64 -219q-15 -27 -35 -55l-63 41q17 24 30 46zM182 503q10 16 25 25q18 10 43 10t43 -10q15 -9 25 -25q10 -18 10 -43 t-10 -43q-10 -16 -25 -25q-18 -10 -43 -10t-43 10q-15 9 -25 25q-10 18 -10 43t10 43z" />
<glyph unicode="&#x3c;" d="M60 409l357 252l46 -59l-340 -237l340 -237l-46 -59l-357 252v88z" />
<glyph unicode="=" d="M60 507h380v-72h-380v72zM60 295h380v-72h-380v72z" />
<glyph unicode="&#x3e;" d="M377 365l-340 237l46 59l357 -252v-88l-357 -252l-46 59z" />
<glyph unicode="?" d="M134 716q46 27 113 27q36 0 64 -8q25 -6 45 -18q39 -22 60 -60q24 -41 24 -92q0 -58 -32 -112q-16 -28 -55 -74q-28 -34 -40 -54q-23 -41 -23 -104h-80q0 87 31 139q14 25 51 70l1 1q31 37 45 60q22 39 22 76q0 30 -14 54q-12 22 -35 35q-26 15 -64 15q-39 0 -67 -16 q-22 -13 -34 -33.5t-12 -44.5v-2v-5l-79 10v2q0 41 21 77t58 57zM180 63q-1 22 9 38q8 14 22 23q17 9 39 9t39 -9q14 -9 22 -23q9 -15 10 -38q-1 -24 -10 -39q-8 -14 -22 -23q-17 -9 -39 -9t-39 9q-14 9 -22 23q-10 16 -9 39z" />
<glyph unicode="@" d="M60 27v676q0 69 28 116q23 40 62 63q42 24 100 24t100 -24q39 -23 62 -63q28 -47 28 -116v-526q0 -52 -20 -87q-15 -26 -39 -40q-22 -13 -54 -13q-34 0 -60 15q-25 15 -41 41q-19 35 -19 84v323q0 49 19 83q16 27 41 41q26 16 61 16h32v63q0 48 -19 80q-14 24 -37 37.5 t-54 13.5t-54 -13.5t-37 -37.5q-19 -32 -19 -80v-676q0 -48 19 -80q14 -24 37 -37.5t54 -13.5h154v-72h-154q-58 0 -101 25q-39 22 -61 62q-28 47 -28 116zM287 500v-323q0 -41 18 -58q9 -10 22 -10q10 0 16 7q17 16 17 61v391h-32q-14 0 -23 -10q-18 -18 -18 -58z" />
<glyph unicode="A" d="M15 72h45v2q0 100 142 661h96q142 -561 142 -661v-2h45v-72h-170v72h45v2q0 33 -15 119h-190q-15 -86 -15 -119v-2h45v-72h-170v72zM331 265q-28 137 -81 362q-53 -225 -81 -362h162z" />
<glyph unicode="B" d="M15 72h45v591h-45v72h220q61 0 104 -25q39 -22 61 -62q26 -44 26 -106q0 -55 -22 -93q-22 -37 -59 -59q-5 -3 -11 -5q18 -7 33 -16q42 -24 65.5 -64.5t23.5 -96.5q0 -64 -27 -110q-24 -43 -68 -68q-52 -30 -126 -30h-220v72zM235 418q33 0 58 14q22 14 36 37q17 30 17 72 t-17 71q-13 24 -36 37q-25 14 -58 14h-95v-245h95zM235 72q46 0 79 19q28 16 44 44q18 31 18 74t-18 74q-16 28 -44 44q-33 19 -79 19h-95v-274h95z" />
<glyph unicode="C" d="M44 540q0 65 27 112q24 41 64 64q47 27 111 27t110 -27q41 -23 65 -64q19 -33 24 -72l-78 -14q-4 28 -17 49q-14 26 -40 40q-27 16 -64 16t-64 -16q-25 -14 -40 -40q-18 -31 -18 -75v-345q0 -44 18 -75q15 -26 40 -40q27 -16 64 -16t64 16q26 14 40 40q13 21 17 49 l78 -14q-5 -39 -24 -72q-24 -41 -65 -64q-46 -27 -110 -27t-111 27q-40 23 -64 64q-27 47 -27 112v345z" />
<glyph unicode="D" d="M15 72h45v591h-45v72h210q67 0 118 -29q47 -27 76 -78q37 -63 37 -156v-209q0 -93 -37 -156q-29 -51 -76 -78q-51 -29 -118 -29h-210v72zM225 72q41 0 72 18t51 53q28 48 28 120v209q0 72 -28 120q-20 35 -51 53t-72 18h-85v-591h85z" />
<glyph unicode="E" d="M45 72h45v591h-45v72h395v-145h-80v73h-190v-245h195v-72h-195v-274h190v73h80v-145h-395v72z" />
<glyph unicode="F" d="M45 72h45v591h-45v72h395v-145h-80v73h-190v-245h195v-72h-195v-274h45v-72h-170v72z" />
<glyph unicode="G" d="M44 195v345q0 65 27 112q24 41 64 64q47 27 111 27t110 -27q41 -23 65 -64q19 -33 24 -72l-78 -14q-4 28 -17 49q-14 26 -40 40q-27 16 -64 16t-64 -16q-25 -14 -40 -40q-18 -31 -18 -75v-345q0 -44 18 -74q14 -26 40 -41q29 -16 67 -16q32 0 55 13.5t37 37.5 q19 32 19 80v133h-110v72h190v-205q0 -69 -28 -116q-23 -40 -62 -63q-42 -24 -101 -24q-66 0 -113 27q-42 24 -65 65q-27 46 -27 111z" />
<glyph unicode="H" d="M15 72h45v591h-45v72h170v-72h-45v-241h220v241h-45v72h170v-72h-45v-591h45v-72h-170v72h45v278h-220v-278h45v-72h-170v72z" />
<glyph unicode="I" d="M110 72h100v591h-100v72h280v-72h-100v-591h100v-72h-280v72z" />
<glyph unicode="J" d="M118 170q4 -31 18 -55.5t37 -37.5t53.5 -13t52.5 13q23 13 37 38q19 32 19 80v468h-135v72h215v-540q0 -69 -28 -117q-23 -40 -62 -62q-41 -24 -98.5 -24t-99.5 24q-38 22 -62 62q-20 36 -25 77z" />
<glyph unicode="K" d="M15 72h45v591h-45v72h170v-72h-45v-275q128 188 170 261q38 65 38 86h32h105v-72h-74q-6 -10 -12 -21q-33 -58 -118 -184q113 -272 150 -386h54v-72h-85h-32q0 50 -139 380q-40 -59 -89 -130v-178h45v-72h-170v72z" />
<glyph unicode="L" d="M45 72h45v591h-45v72h170v-72h-45v-591h206v73h80v-145h-411v72z" />
<glyph unicode="M" d="M15 72h45v591h-45v72h133l102 -398l102 398h133v-72h-45v-591h45v-72h-170v72h45v75q0 98 9 294q5 101 7 152l-96 -372h-60l-96 372q2 -51 7 -153q9 -195 9 -293v-75h45v-72h-170v72z" />
<glyph unicode="N" d="M15 72h45v591h-45v72h156l192 -601q0 27 -1 79q-1 112 -2 168v60v222h-45v72h170v-72h-45v-663h-111l-192 600q0 -43 1 -100q2 -117 2 -206v-222h45v-72h-170v72z" />
<glyph unicode="O" d="M44 195v345q0 65 27 111q23 41 65 65q47 27 114 27t114 -27q42 -24 65 -65q27 -46 27 -111v-345q0 -65 -27 -111q-23 -41 -65 -65q-47 -27 -114 -27t-114 27q-42 24 -65 65q-27 46 -27 111zM142 121q15 -26 41 -41q27 -16 67 -16t67 16q26 15 41 41q18 31 18 74v345 q0 43 -18 74q-15 26 -41 41q-27 16 -67 16t-67 -16q-26 -15 -41 -41q-18 -31 -18 -74v-345q0 -43 18 -74z" />
<glyph unicode="P" d="M30 72h45v591h-45v72h221q65 0 111 -27q42 -24 66 -66q28 -48 28 -116.5t-28 -117.5q-24 -42 -66 -66q-46 -27 -111 -27h-96v-243h45v-72h-170v72zM251 387q37 0 65 16q25 15 41 42q19 33 19 80.5t-19 79.5q-16 27 -41 42q-28 16 -65 16h-96v-276h96z" />
<glyph unicode="Q" d="M44 195v345q0 65 27 111q23 41 65 65q47 27 114 27t114 -27q42 -24 65 -65q27 -46 27 -111v-345q0 -65 -27 -111q-23 -41 -65 -65q-19 -11 -42 -18l35 -148h-79l-36 139q-62 2 -106 27q-42 24 -65 65q-27 46 -27 111zM142 121q15 -26 41 -41q27 -16 67 -16t67 16 q26 15 41 41q18 31 18 74v345q0 43 -18 74q-15 26 -41 41q-27 16 -67 16t-67 -16q-26 -15 -41 -41q-18 -31 -18 -74v-345q0 -43 18 -74z" />
<glyph unicode="R" d="M15 72h45v591h-45v72h242q63 0 108 -26q40 -23 64 -64q27 -47 27 -113.5t-27 -113.5q-24 -41 -64 -64q-24 -14 -53 -20q89 -162 114 -262h59v-72h-96h-32q1 99 -131 328h-86v-256h45v-72h-170v72zM257 400q35 0 62 15q24 14 39 40q18 31 18 76.5t-18 76.5q-15 26 -39 40 q-27 15 -62 15h-117v-263h117z" />
<glyph unicode="S" d="M55 153v2l79 11v-7q0 -24 12 -45t35 -34q27 -16 66 -16q36 0 61 15q23 13 37 36q15 28 15 60.5t-18 64.5q-25 43 -107 89q-111 64 -146 125q-29 50 -29 105q0 53 25 97q23 39 62 61q44 26 106 26q66 0 113 -27q37 -21 58 -57.5t21 -76.5v-2l-79 -11v7q0 24 -12 45t-35 34 q-27 16 -66 16q-36 0 -61 -15q-23 -13 -37 -36q-15 -28 -15 -60.5t18 -64.5q25 -43 107 -89q111 -64 146 -125q29 -50 29 -105q0 -53 -25 -97q-23 -39 -62 -61q-44 -26 -106 -26q-66 0 -113 27q-37 21 -58 57.5t-21 76.5z" />
<glyph unicode="T" d="M52 735h396v-145h-80v73h-78v-591h65v-72h-210v72h65v591h-78v-73h-80v145z" />
<glyph unicode="U" d="M15 735h170v-72h-45v-468q0 -48 19 -80q14 -24 37 -37.5t54 -13.5t54 13.5t37 37.5q19 32 19 80v468h-45v72h170v-72h-45v-468q0 -69 -28 -116q-23 -40 -62 -63q-42 -24 -100 -24t-100 24q-39 23 -62 63q-28 47 -28 116v468h-45v72z" />
<glyph unicode="V" d="M15 735h170v-72h-45v-1q0 -90 110 -554q110 464 110 554v1h-45v72h170v-72h-45v-1q0 -101 -142 -662h-96q-142 561 -142 662v1h-45v72z" />
<glyph unicode="W" d="M15 735h170v-72h-45v-112q0 -134 25 -410l60 300h50l60 -300q25 276 25 410v112h-45v72h170v-72h-45v-112q0 -167 -77 -551h-51l-62 314l-62 -314h-51q-77 384 -77 551v112h-45v72z" />
<glyph unicode="X" d="M15 72h47q8 76 53 154q3 5 10 16q1 1 1 2l78 124l-78 123q0 1 -1 2q-7 11 -10 16q-45 78 -53 154h-47v72h170v-72h-43q9 -66 52 -133l56 -89l56 89q43 67 52 133h-43v72h170v-72h-47q-8 -76 -53 -154q-3 -5 -10 -16q-1 -1 -1 -2l-78 -123l78 -124q0 -1 1 -2q7 -11 10 -16 q45 -78 53 -154h47v-72h-170v72h43q-9 66 -52 133l-56 89l-56 -89q-43 -67 -52 -133h43v-72h-170v72z" />
<glyph unicode="Y" d="M15 735h170v-72h-44q6 -89 54 -181l55 -105l55 105q48 92 54 181h-44v72h170v-72h-46q-7 -106 -64 -214l-85 -162v-215h45v-72h-170v72h45v215l-85 162q-57 108 -64 214h-46v72z" />
<glyph unicode="Z" d="M60 72l288 591h-208v-73h-80v145h380v-72l-288 -591h208v73h80v-145h-380v72z" />
<glyph unicode="[" d="M98 898h323v-72h-243v-922h243v-72h-323v1066z" />
<glyph unicode="\" d="M137 898l308 -1066h-82l-308 1066h82z" />
<glyph unicode="]" d="M79 -96h243v922h-243v72h323v-1066h-323v72z" />
<glyph unicode="^" d="M208 458h84l154 -194l-67 -46l-129 181l-129 -181l-67 46z" />
<glyph unicode="_" d="M60 72h380v-72h-380v72z" />
<glyph unicode="`" d="M156 786l171 -207l-54 -43l-183 198z" />
<glyph unicode="a" d="M63 226q20 35 60 58q57 33 146 33h91v46q0 31 -13 54q-12 21 -34 34q-27 15 -66 15t-66 -16q-22 -12 -35 -34q-9 -17 -11 -34l-77 18q3 27 18 53q22 37 58 59q46 26 112.5 26t113.5 -27q37 -21 58 -57q22 -39 22 -91v-291h45v-72h-125v76q-23 -38 -60 -60 q-42 -24 -98 -24q-51 0 -87 20q-32 19 -50 51q-21 36 -21 86q0 45 19 77zM134 107q11 -18 30 -29q25 -14 63 -14q42 0 73 18q27 16 42 43q18 30 18 73v47h-91q-62 0 -100 -22q-24 -14 -35 -34q-10 -17 -10 -40t10 -42z" />
<glyph unicode="b" d="M15 72h45v591h-45v72h125v-281q1 3 3 6q24 40 58 60q32 18 75 18q48 0 85 -21q38 -22 62 -64q33 -57 33 -143v-90q0 -86 -33 -143q-24 -42 -62 -64q-37 -21 -85 -21q-43 0 -75 18q-34 20 -58 60q-2 3 -3 6v-76h-125v72zM140 310v-90q0 -63 23 -104q16 -27 39 -40 q21 -12 49 -12q34 0 59 15q26 15 44 44q22 39 22 97v90q0 58 -22 97q-18 29 -44 44q-25 15 -59 15q-28 0 -49 -12q-23 -13 -39 -40q-23 -41 -23 -104z" />
<glyph unicode="c" d="M44 220v90q0 79 32 134q25 44 67 69q45 25 104.5 25t104.5 -25q42 -25 67 -69q18 -31 26 -69l-76 -22q-5 30 -19 54q-17 29 -43 44t-60 15q-33 0 -58.5 -15t-41.5 -43q-23 -39 -23 -98v-90q0 -59 23 -98q16 -28 41.5 -43t58.5 -15q34 0 60 15t43 44q14 24 19 54l76 -22 q-8 -38 -26 -69q-25 -44 -67 -69q-45 -25 -104.5 -25t-104.5 25q-42 25 -67 69q-32 55 -32 134z" />
<glyph unicode="d" d="M77 453q24 42 62 64q37 21 85 21q43 0 75 -18q34 -20 58 -60q2 -3 3 -6v209h-45v72h125v-663h45v-72h-125v76q-1 -3 -3 -6q-24 -40 -58 -60q-32 -18 -75 -18q-48 0 -85 21q-38 22 -62 64q-33 57 -33 143v90q0 86 33 143zM146 123q18 -29 44 -44q25 -15 59 -15q28 0 49 12 q23 13 39 40q23 41 23 104v90q0 63 -23 104q-16 27 -39 40q-21 12 -49 12q-34 0 -59 -15q-26 -15 -44 -44q-22 -39 -22 -97v-90q0 -58 22 -97z" />
<glyph unicode="e" d="M44 310q0 79 32 133q25 44 68 69q45 26 106 26t106 -26q43 -25 68 -69q32 -54 32 -133v-81h-332v-9q0 -56 22 -95q17 -30 44.5 -45.5t65 -15.5t65.5 16q27 16 45 46q9 17 13 32l74 -28q-7 -21 -18 -41q-26 -45 -70 -70q-46 -27 -110 -27t-110 27q-43 25 -70 69 q-31 55 -31 132v90zM124 310v-9h252v9q0 58 -22 97q-18 29 -44 44q-25 15 -60 15t-60 -15q-26 -15 -44 -44q-22 -39 -22 -97z" />
<glyph unicode="f" d="M60 500h113v95q0 56 23 96q18 31 49 49q32 19 77 19t77 -19q31 -18 49 -50q15 -24 20 -55l-77 -19q-3 22 -12.5 38t-24.5 25q-14 8 -32 8t-31 -8q-15 -8 -24 -25q-14 -23 -14 -59v-95h168v-72h-168v-356h140v-72h-325v72h105v356h-113v72z" />
<glyph unicode="g" d="M77 453q24 42 62 64q37 21 85 21q43 0 75 -18q34 -20 58 -60q2 -3 3 -6v76h125v-72h-45v-443q0 -80 -32 -135q-25 -43 -67 -68q-44 -25 -103.5 -25t-102.5 25q-42 24 -68 69q-7 11 -12 24l72 32q3 -9 9 -20q17 -28 42.5 -43t59.5 -15q33 0 57 14q26 15 42 44q23 39 23 98 v61q-1 -3 -3 -6q-24 -40 -58 -60q-32 -18 -75 -18q-48 0 -85 21q-38 22 -62 64q-33 57 -33 143v90q0 86 33 143zM146 123q18 -29 44 -44q25 -15 59 -15q28 0 49 12q23 13 39 40q23 41 23 104v90q0 63 -23 104q-16 27 -39 40q-21 12 -49 12q-34 0 -59 -15q-26 -15 -44 -44 q-22 -39 -22 -97v-90q0 -58 22 -97z" />
<glyph unicode="h" d="M15 72h45v591h-45v72h125v-281q1 3 3 6q24 40 58 60q32 18 74 18t73 -18q35 -20 58 -60q34 -59 34 -150v-238h45v-72h-170v72h45v238q0 63 -23 104q-16 27 -39 40q-21 12 -48 12t-48 -12q-23 -13 -39 -40q-23 -41 -23 -104v-238h45v-72h-170v72z" />
<glyph unicode="i" d="M75 72h142v386h-128v72h208v-458h128v-72h-350v72zM188 685q-1 20 8 34q7 13 20.5 21t33.5 8t33.5 -8t20.5 -21q8 -13 9 -34q-1 -21 -9 -34q-7 -13 -20.5 -20.5t-33.5 -8t-33.5 7.5t-20.5 21q-9 14 -8 34z" />
<glyph unicode="j" d="M89 -46q4 -28 17 -50.5t33 -34.5q18 -10 41 -10t41 10q20 12 32 34q20 34 20 87v468h-135v72h215v-540q0 -73 -29 -123q-22 -38 -58.5 -59t-85.5 -21t-85 21t-59 59q-16 29 -23 63zM237 685q-1 20 8 34q7 13 20.5 21t33.5 8t33.5 -8t20.5 -21q8 -13 9 -34q-1 -21 -9 -34 q-7 -13 -20.5 -20.5t-33.5 -8t-33.5 7.5t-20.5 21q-9 14 -8 34z" />
<glyph unicode="k" d="M15 72h45v591h-45v72h125v-446q177 182 204 228q4 7 4 13h32h105v-72h-92q-39 -48 -111 -126q101 -175 140 -260h63v-72h-85h-32q0 30 -99 201q-19 33 -42 72q-40 -43 -87 -92v-109h45v-72h-170v72z" />
<glyph unicode="l" d="M186 155v580h79v-580q1 -30 13 -50q10 -18 29 -29q21 -12 51 -12q35 0 67 16v-72q-29 -16 -67 -16q-57 0 -98 23q-35 20 -53 53q-22 37 -21 87z" />
<glyph unicode="m" d="M15 72h37v386h-37v72h117v-34q13 23 32 34q14 8 32.5 8t33.5 -9q19 -11 33 -35q8 -13 13 -29q6 17 14 31q13 23 32 34q14 8 32.5 8t33.5 -9q19 -11 33 -35q27 -47 27 -129v-293h37v-72h-117v365q0 71 -23 94q-7 7 -16 7t-16 -7q-23 -23 -23 -94v-365h-80v365q0 71 -23 94 q-7 7 -16 7t-16 -7q-23 -23 -23 -94v-365h-117v72z" />
<glyph unicode="n" d="M15 72h45v386h-45v72h125v-76q1 3 3 6q24 40 58 60q32 18 74 18t73 -18q35 -20 58 -60q34 -59 34 -150v-238h45v-72h-170v72h45v238q0 63 -23 104q-16 27 -39 40q-21 12 -48 12t-48 -12q-23 -13 -39 -40q-23 -41 -23 -104v-238h45v-72h-170v72z" />
<glyph unicode="o" d="M44 220v90q0 79 32 133q25 44 68 69q45 26 106 26t106 -26q43 -25 68 -69q32 -54 32 -133v-90q0 -79 -32 -133q-25 -44 -68 -69q-45 -26 -106 -26t-106 26q-43 25 -68 69q-32 54 -32 133zM146 123q18 -29 44 -44q25 -15 60 -15t60 15q26 15 44 44q22 39 22 97v90 q0 58 -22 97q-18 29 -44 44q-25 15 -60 15t-60 -15q-26 -15 -44 -44q-22 -39 -22 -97v-90q0 -58 22 -97z" />
<glyph unicode="p" d="M15 -133h45v591h-45v72h125v-76q1 3 3 6q24 40 58 60q32 18 75 18q48 0 85 -21q38 -22 62 -64q33 -57 33 -143v-90q0 -86 -33 -143q-24 -42 -62 -64q-37 -21 -85 -21q-43 0 -75 18q-34 20 -58 60q-2 3 -3 6v-209h45v-72h-170v72zM140 310v-90q0 -63 23 -104 q16 -27 39 -40q21 -12 49 -12q34 0 59 15q26 15 44 44q22 39 22 97v90q0 58 -22 97q-18 29 -44 44q-25 15 -59 15q-28 0 -49 -12q-23 -13 -39 -40q-23 -41 -23 -104z" />
<glyph unicode="q" d="M77 453q24 42 62 64q37 21 85 21q43 0 75 -18q34 -20 58 -60q2 -3 3 -6v76h125v-72h-45v-591h45v-72h-170v72h45v209q-1 -3 -3 -6q-24 -40 -58 -60q-32 -18 -75 -18q-48 0 -85 21q-38 22 -62 64q-33 57 -33 143v90q0 86 33 143zM146 123q18 -29 44 -44q25 -15 59 -15 q28 0 49 12q23 13 39 40q23 41 23 104v90q0 63 -23 104q-16 27 -39 40q-21 12 -49 12q-34 0 -59 -15q-26 -15 -44 -44q-22 -39 -22 -97v-90q0 -58 22 -97z" />
<glyph unicode="r" d="M57 72h63v386h-63v72h143v-101q7 19 17 36q23 39 55 58q26 15 61 15q36 0 67.5 -18t49.5 -50q8 -14 13 -30l-75 -34q-3 11 -9 22q-11 19 -29 29q-15 9 -34 9q-26 0 -46 -12q-24 -13 -42 -43q-28 -50 -28 -130v-209h105v-72h-248v72z" />
<glyph unicode="s" d="M75 459q18 31 53 51q49 28 123 28q70 0 116 -27q38 -22 60 -60q9 -14 14 -31l-75 -24l-8 18q-14 23 -36 36q-28 16 -71 16q-47 0 -77 -17q-18 -11 -28 -27q-8 -14 -8 -32q0 -20 10 -36q10 -18 30 -30q24 -14 80 -20q72 -8 107.5 -28.5t56 -56t20.5 -79.5q0 -39 -17 -69 q-18 -31 -53 -51q-49 -28 -123 -28q-70 0 -116 27q-38 22 -60 60q-9 14 -14 31l75 24l8 -18q14 -23 36 -36q28 -16 71 -16q47 0 77 17q18 11 28 27q8 14 8 32q0 20 -10 36q-10 18 -30 30q-24 14 -80 20q-72 8 -107.5 28.5t-56 56t-20.5 79.5q0 39 17 69z" />
<glyph unicode="t" d="M51 530h109v205h80v-205h161v-72h-161v-264q0 -55 20 -90q12 -21 30 -31q16 -9 36 -9t35 9q8 4 16 12q29 30 34 87l78 -17q-5 -48 -27 -85.5t-57 -57.5q-33 -20 -79.5 -20t-79.5 20q-35 20 -57 57q-29 51 -29 125v264h-109v72z" />
<glyph unicode="u" d="M15 530h125v-310q0 -63 23 -104q16 -27 39 -40q21 -12 48 -12t48 12q23 13 39 40q23 41 23 104v238h-45v72h125v-458h45v-72h-125v76q-1 -3 -3 -6q-24 -40 -58 -60q-32 -18 -74 -18t-73 18q-35 20 -58 60q-34 59 -34 150v238h-45v72z" />
<glyph unicode="v" d="M15 530h170v-72h-43q11 -84 108 -377q97 293 108 377h-43v72h170v-72h-47q-13 -96 -140 -458h-96q-127 362 -140 458h-47v72z" />
<glyph unicode="w" d="M15 530h170v-72h-45v-60q0 -96 24 -296l61 216h50l61 -216q24 200 24 296v60h-45v72h170v-72h-45v-60q0 -121 -77 -398h-51l-62 227l-62 -227h-51q-77 277 -77 398v60h-45v72z" />
<glyph unicode="x" d="M15 72h66q8 16 19 36q18 30 27 43l77 114l-77 114q-9 13 -27 43q-11 20 -19 36h-66v72h170v-72h-17q11 -17 25 -39l57 -85l57 85q14 22 25 39h-17v72h170v-72h-66q-8 -16 -19 -36q-18 -30 -27 -43l-77 -114l77 -114q9 -13 27 -43q11 -20 19 -36h66v-72h-170v72h17 q-11 17 -25 39l-57 85l-57 -85q-14 -22 -25 -39h17v-72h-170v72z" />
<glyph unicode="y" d="M15 530h170v-72h-42q7 -38 25 -95l82 -249l82 249q18 57 25 95h-42v72h170v-72h-47q-7 -49 -30 -118l-152 -443q-13 -35 -21 -51q-15 -25 -37 -38q-23 -13 -66 -13h-42v72h42q23 0 34 11q9 9 19 40l26 79l-119 343q-23 68 -30 118h-47v72z" />
<glyph unicode="z" d="M60 72l284 386h-204v-73h-80v145h380v-72l-284 -386h204v73h80v-145h-380v72z" />
<glyph unicode="{" d="M79 401q28 0 51.5 5.5t41.5 16.5q27 15 42 40q13 23 13 54t-22 83q-29 69 -29 119.5t22 87.5q22 40 67 66q62 36 156 36v-72q-67 0 -109 -25q-29 -16 -43 -41q-13 -23 -13 -52q0 -31 22 -83q29 -69 29 -119q0 -52 -22 -91q-22 -37 -60 -61q38 -24 60 -61q22 -39 22 -91 q0 -50 -29 -119q-22 -52 -22 -83q0 -29 13 -52q14 -25 43 -41q42 -25 109 -25v-72q-94 0 -156 36q-45 26 -67 66q-22 37 -22 87.5t29 119.5q22 52 22 83t-13 54q-15 25 -42 40q-18 11 -41.5 16.5t-51.5 5.5v72z" />
<glyph unicode="|" d="M210 898h80v-1066h-80v1066z" />
<glyph unicode="}" d="M79 -107q67 0 109 25q29 16 43 41q13 23 13 52q0 31 -22 83q-29 69 -29 119q0 52 22 91q22 37 60 61q-38 24 -60 61q-22 39 -22 91q0 50 29 119q22 52 22 83q0 29 -13 52q-14 25 -43 41q-42 25 -109 25v72q94 0 156 -36q45 -26 67 -66q22 -37 22 -87.5t-29 -119.5 q-22 -52 -22 -83t13 -54q15 -25 42 -40q18 -11 41.5 -16.5t51.5 -5.5v-72q-28 0 -51.5 -5.5t-41.5 -16.5q-27 -15 -42 -40q-13 -23 -13 -54t22 -83q29 -69 29 -119.5t-22 -87.5q-22 -40 -67 -66q-62 -36 -156 -36v72z" />
<glyph unicode="~" d="M75 374q31 53 62 71q19 10 39 10t38 -10q28 -16 68 -81q23 -38 35 -51q5 -4 7 -6q17 12 37 46q21 36 46 99l66 -24q-24 -62 -48 -104q-31 -53 -62 -71q-19 -11 -39 -11t-38 11q-28 15 -68 80q-23 39 -35 52q-5 4 -7 5q-17 -12 -37 -46q-21 -36 -46 -98l-66 24 q24 62 48 104z" />
<glyph unicode="&#xa0;" />
<glyph unicode="&#xa1;" d="M180 468q-1 22 9 38q8 14 22 23q17 9 39 9t39 -9q14 -9 22 -23q9 -15 10 -38q-1 -24 -10 -39q-8 -14 -22 -23q-17 -9 -39 -9t-39 9q-14 9 -22 23q-10 16 -9 39zM210 270h80v-475h-80v475z" />
<glyph unicode="&#xa2;" d="M44 220v90q0 79 32 134q25 44 67 69q30 17 67 22v98h80v-99q34 -5 62 -21q42 -25 67 -69q18 -31 26 -69l-76 -22q-5 30 -19 54q-17 29 -43 44t-60 15q-33 0 -58.5 -15t-41.5 -43q-23 -39 -23 -98v-90q0 -59 23 -98q16 -28 41.5 -43t58.5 -15q34 0 60 15t43 44 q14 24 19 54l76 -22q-8 -38 -26 -69q-25 -44 -67 -69q-28 -16 -62 -21v-99h-80v98q-37 5 -67 22q-42 25 -67 69q-32 55 -32 134z" />
<glyph unicode="&#xa3;" d="M60 72q29 22 47 54q29 50 29 145v83h-57v72h57v114q0 81 30 133q21 36 52 54q28 16 65.5 16t65.5 -16q32 -18 52 -54q18 -31 25 -70l-74 -28q-4 37 -19 63q-11 19 -25 27q-10 6 -23.5 6t-24.5 -6q-14 -8 -23 -25q-21 -36 -21 -100v-114h110v-72h-110v-83q0 -118 -35 -180 q-6 -10 -13 -19h272v-72h-380v72z" />
<glyph unicode="&#xa4;" d="M92 260q-3 5 -6 9q-23 40 -23 96t23 96q3 4 6 9l-60 60l56 50l60 -60q42 24 102 24t102 -24l60 60l56 -50l-60 -60q3 -5 6 -9q23 -40 23 -96t-23 -96q-3 -4 -6 -9l60 -60l-56 -50l-60 60q-42 -24 -102 -24t-102 24l-60 -60l-56 50zM157 306q13 -21 34 -34q25 -14 59 -14 t59 14q21 13 34 34q14 25 14 59t-14 59q-13 21 -34 34q-25 14 -59 14t-59 -14q-21 -13 -34 -34q-14 -25 -14 -59t14 -59z" />
<glyph unicode="&#xa5;" d="M15 735h170v-72h-44q6 -89 54 -181l55 -105l55 105q48 92 54 181h-44v72h170v-72h-46q-7 -106 -64 -214l-85 -162v-215h45v-72h-170v72h45v215l-85 162q-57 108 -64 214h-46v72zM60 367h380v-72h-380v72zM60 220h380v-72h-380v72z" />
<glyph unicode="&#xa6;" d="M210 898h80v-487h-80v487zM210 319h80v-487h-80v487z" />
<glyph unicode="&#xa7;" d="M133 2q4 -25 15 -46q15 -24 38 -37q25 -15 60 -15q36 0 61 15q24 13 37 37q16 28 16 61q0 32 -17 62q-21 36 -68 64q-14 8 -47 24q-39 18 -60 30q-57 33 -84 79q-24 42 -24 88q0 53 28 102q26 45 70 75q-47 30 -72 73q-26 46 -26 97q0 54 26 100q23 39 62 61 q44 26 106 26t106 -26q39 -22 62 -61q18 -32 23 -68l-78 -15q-4 25 -15 46q-15 24 -38 37q-25 15 -60 15q-36 0 -61 -15q-24 -13 -37 -37q-16 -28 -16 -61q0 -32 17 -62q21 -36 68 -64q14 -8 47 -24q39 -18 60 -30q57 -33 84 -79q24 -42 24 -88q0 -53 -28 -102 q-26 -45 -70 -75q47 -30 72 -73q26 -46 26 -97q0 -54 -26 -100q-23 -39 -62 -61q-44 -26 -106 -26t-106 26q-39 22 -62 61q-18 32 -23 68zM140 364q0 -30 15 -56q19 -32 59 -55q15 -9 45 -23h1q12 5 23 11q38 21 58 57q19 33 19 68q0 30 -15 56q-19 32 -59 55q-15 9 -45 23 h-1q-12 -5 -23 -11q-38 -21 -58 -57q-19 -33 -19 -68z" />
<glyph unicode="&#xa8;" d="M88 685q-1 20 8 34q7 13 20.5 21t33.5 8t33.5 -8t20.5 -21q8 -13 9 -34q-1 -21 -9 -34q-7 -13 -20.5 -20.5t-33.5 -8t-33.5 7.5t-20.5 21q-9 14 -8 34zM288 685q-1 20 8 34q7 13 20.5 21t33.5 8t33.5 -8t20.5 -21q8 -13 9 -34q-1 -21 -9 -34q-7 -13 -20.5 -20.5t-33.5 -8 t-33.5 7.5t-20.5 21q-9 14 -8 34z" />
<glyph unicode="&#xa9;" d="M120 459q0 33 13.5 56.5t38.5 37.5q31 18 76 18t75 -18q24 -14 39 -39q9 -16 12 -33l-66 -16q-2 16 -14 28q-16 17 -46 17t-47 -17q-13 -13 -13 -34v-190q0 -21 13 -34q17 -16 47 -16t46 16q12 12 14 28l66 -16q-3 -17 -12 -33q-15 -25 -39 -39q-30 -17 -75 -17t-76 17 q-25 15 -38.5 38.5t-13.5 55.5v190zM50 637q27 46 73 72q53 31 127 31t127 -31q46 -26 73 -72q30 -53 30 -125v-294q0 -72 -30 -125q-27 -46 -73 -72q-53 -31 -127 -31t-127 31q-46 26 -73 72q-30 53 -30 125v294q0 72 30 125zM81 512v-294q0 -56 23 -96q20 -35 55 -55 q38 -22 91 -22t91 22q35 20 55 55q23 40 23 96v294q0 56 -23 96q-20 35 -55 55q-38 22 -91 22t-91 -22q-35 -20 -55 -55q-23 -40 -23 -96z" />
<glyph unicode="&#xaa;" d="M98 526q14 26 45 43q47 28 122 28h59v25q0 10 -4 18q-6 10 -18 17q-20 12 -54 12q-29 0 -48 -11q-16 -9 -24 -25q-4 -5 -6 -12l-76 23q5 15 12 27q17 30 48 48q38 22 94 22q60 0 100 -23q28 -16 43 -42q13 -23 13 -54v-186h20v-72h-100v47q-15 -21 -38 -35 q-31 -18 -74 -18t-74 18q-24 14 -39 38q-14 26 -14 59q0 31 13 53zM169 457q5 -9 16 -15q20 -12 54 -12q30 0 51 13q17 9 25.5 24t8.5 36v22h-59q-49 0 -77 -16q-13 -8 -19 -18q-4 -8 -4 -17t4 -17zM117 271h266v-50h-266v50z" />
<glyph unicode="&#xab;" d="M222 401q69 44 119 130q32 56 52 114l75 -27q-19 -42 -40 -78q-65 -113 -148 -175q83 -62 148 -175q21 -36 40 -78l-75 -27q-20 58 -52 114q-50 86 -119 130v72zM32 401q69 44 119 130q32 56 52 114l75 -27q-19 -42 -40 -78q-65 -113 -148 -175q83 -62 148 -175 q21 -36 40 -78l-75 -27q-20 58 -52 114q-50 86 -119 130v72z" />
<glyph unicode="&#xac;" d="M60 401h380v-245h-80v173h-300v72z" />
<glyph unicode="&#xad;" d="M60 401h380v-72h-380v72z" />
<glyph unicode="&#xae;" d="M116 223h13v282h-13v61h148q37 0 63 -15q23 -13 37 -37q16 -27 16 -66t-16 -66q-14 -24 -37 -38q-11 -6 -24 -10q37 -65 54 -111h27v-61h-53h-29q0 44 -53 136q-10 18 -19 31h-33v-106h13v-61h-94v61zM264 390q20 0 32 12q16 16 16 45.5t-16 45.5q-12 12 -32 12h-67v-115 h67zM50 637q27 46 73 72q53 31 127 31t127 -31q46 -26 73 -72q30 -53 30 -125v-294q0 -72 -30 -125q-27 -46 -73 -72q-53 -31 -127 -31t-127 31q-46 26 -73 72q-30 53 -30 125v294q0 72 30 125zM81 512v-294q0 -56 23 -96q20 -35 55 -55q38 -22 91 -22t91 22q35 20 55 55 q23 40 23 96v294q0 56 -23 96q-20 35 -55 55q-38 22 -91 22t-91 -22q-35 -20 -55 -55q-23 -40 -23 -96z" />
<glyph unicode="&#xaf;" d="M100 721h300v-72h-300v72z" />
<glyph unicode="&#xb0;" d="M145 721q13 24 38 39q28 16 67 16t67 -16q25 -15 38 -39q17 -28 16 -67q1 -39 -16 -66q-13 -25 -38 -39q-28 -16 -67 -16t-67 16q-25 14 -38 39q-17 27 -16 66q-1 39 16 67zM216 620q12 -13 34 -13t34 13q13 12 13 34t-13 35q-12 12 -34 12t-34 -12q-13 -13 -13 -35 t13 -34z" />
<glyph unicode="&#xb1;" d="M60 401h150v173h80v-173h150v-72h-150v-173h-80v173h-150v72zM60 72h380v-72h-380v72z" />
<glyph unicode="&#xb2;" d="M108 748q18 30 48 48q38 22 94 22q54 0 91 -22q31 -18 50 -49q19 -33 19 -72.5t-22 -77.5q-24 -40 -95 -92q-70 -51 -93 -91q-11 -19 -17 -44h141v30h80v-102h-308v1q0 96 30 148q28 47 106 101q64 45 84 78q14 25 14 49q0 20 -10 36q-8 15 -24 24q-19 11 -46 11 q-28 0 -48 -11q-15 -9 -24 -24q-7 -13 -8 -26l-77 19q3 22 15 44z" />
<glyph unicode="&#xb3;" d="M164 427q1 -12 8 -24q10 -17 26 -27q21 -12 51.5 -12t50.5 12q17 10 26 26t9 36q0 23 -12.5 45.5t-35.5 35.5q-27 16 -79 16v72q48 0 74 14q21 13 32 32q10 17 10 35q0 23 -15 38q-20 20 -58 20t-57 -20q-16 -15 -18 -38l-78 16q3 25 16 47q16 29 46 46q36 21 91 21 q54 0 91 -21q29 -17 46 -45q16 -30 16 -63t-17 -63t-50 -49l-12 -6q9 -4 17 -8q35 -21 54 -54.5t19 -72t-19 -71.5q-17 -31 -50 -50q-40 -23 -97 -23t-96 23q-32 18 -51 50q-11 21 -15 42z" />
<glyph unicode="&#xb4;" d="M344 786l66 -52l-183 -198l-54 43z" />
<glyph unicode="&#xb5;" d="M15 -133h45v591h-45v72h125v-310q0 -63 23 -104q16 -27 39 -40q21 -12 48 -12t48 12q23 13 39 40q23 41 23 104v238h-45v72h125v-458h45v-72h-125v76q-1 -3 -3 -6q-24 -40 -58 -60q-32 -18 -74 -18t-73 18q-7 4 -13 9q1 -69 1 -116v-6v-30h45v-72h-170v72z" />
<glyph unicode="&#xb6;" d="M364 735h80v-735h-80v735zM84 653q23 39 59 60t85 22h80v-735h-80v332q-49 0 -85 21t-59 60q-28 49 -28 120t28 120zM155 449q13 -23 33 -34q18 -11 40 -11v259q-22 -1 -40 -11q-20 -12 -33 -34q-19 -34 -19 -85t19 -84z" />
<glyph unicode="&#xb7;" d="M182 408q10 16 25 25q18 10 43 10t43 -10q15 -9 25 -25q10 -18 10 -43t-10 -43q-10 -16 -25 -25q-18 -10 -43 -10t-43 10q-15 9 -25 25q-10 18 -10 43t10 43z" />
<glyph unicode="&#xb8;" d="M150 -142h100q14 0 22 8q6 6 6 15.5t-6 15.5q-8 7 -22 7h-40v96h80v-29q13 -3 24 -10q21 -12 32.5 -32t11.5 -48t-11.5 -48t-32.5 -32q-26 -15 -64 -15h-100v72z" />
<glyph unicode="&#xb9;" d="M217 813h80v-443h83v-72h-245v72h82v349l-61 -46l-48 58z" />
<glyph unicode="&#xba;" d="M106 667q18 32 51 52q39 22 93 22t93 -22q33 -20 51 -52q21 -36 21 -86v-63q0 -50 -21 -86q-18 -32 -51 -52q-39 -22 -93 -22t-93 22q-33 20 -51 52q-21 36 -21 86v63q0 50 21 86zM117 271h266v-50h-266v50zM177 469q9 -17 27 -28q19 -11 46 -11t46 11q18 11 27 28 q12 20 12 49v63q0 29 -12 49q-9 17 -27 28q-19 11 -46 11t-46 -11q-18 -11 -27 -28q-12 -20 -12 -49v-63q0 -29 12 -49z" />
<glyph unicode="&#xbb;" d="M72 190q65 113 148 175q-83 62 -148 175q-21 36 -40 78l75 27q20 -58 52 -114q51 -87 120 -130v-72q-69 -43 -120 -130q-32 -56 -52 -114l-75 27q19 42 40 78zM262 190q65 113 148 175q-83 62 -148 175q-21 36 -40 78l75 27q20 -58 52 -114q51 -87 120 -130v-72 q-69 -43 -120 -130q-32 -56 -52 -114l-75 27q19 42 40 78z" />
<glyph unicode="&#xbc;" d="M120 17l123 242h86v-242h42v-63h-42v-36h11v-63h-93v63h12v36h-139v63zM259 17v135l-70 -135h70zM221 874h69v-341h62v-63h-193v63h62v258l-39 -30l-43 49zM60 392h380v-54h-380v54z" />
<glyph unicode="&#xbd;" d="M221 874h69v-341h62v-63h-193v63h62v258l-39 -30l-43 49zM139 208q13 24 37 38q30 18 72.5 18t72.5 -17q25 -15 39 -39q15 -27 16 -59q-1 -32 -18 -62t-70 -70t-70 -70q-7 -13 -12 -29h95v17h70v-80h-242v1q0 76 24 118q21 36 79 78q48 35 63 60q10 19 11 37 q-1 23 -15 36q-15 16 -42 16t-42 -15q-12 -13 -13 -29l-68 17q3 19 13 34zM60 392h380v-54h-380v54z" />
<glyph unicode="&#xbe;" d="M120 17l123 242h86v-242h42v-63h-42v-36h11v-63h-93v63h12v36h-139v63zM259 17v135l-70 -135h70zM189 574q2 -16 14 -28q16 -17 46.5 -17t46.5 17q14 14 14 35q0 17 -9 33q-11 18 -28 28q-21 12 -60 12v63q36 0 56 11q16 9 25 25q7 12 7 25q0 15 -10 25q-14 14 -41 14 q-25 0 -39 -14q-11 -11 -12 -27l-68 14q2 19 12 37q13 23 36 36q29 17 71.5 17t71.5 -17q23 -14 36 -36t13 -48.5t-13 -49.5q-15 -25 -40 -40l-8 -4q6 -2 11 -5q28 -16 44 -43q15 -26 15 -56.5t-15 -56.5q-14 -25 -40 -39q-31 -18 -75 -18q-46 0 -77 17q-25 15 -39 40 q-9 15 -12 32zM60 392h380v-54h-380v54z" />
<glyph unicode="&#xbf;" d="M180 468q-1 22 9 38q8 14 22 23q17 9 39 9t39 -9q14 -9 22 -23q9 -15 10 -38q-1 -24 -10 -39q-8 -14 -22 -23q-17 -9 -39 -9t-39 9q-14 9 -22 23q-10 16 -9 39zM92 77q16 28 55 74q28 34 40 54q23 41 23 105l80 -1q0 -87 -31 -139q-14 -25 -51 -70l-1 -1q-31 -37 -45 -60 q-22 -39 -22 -76q0 -30 14 -54q12 -22 35 -35q26 -15 64 -15q39 0 67 16q22 13 34 33.5t12 44.5v2v5l79 -10v-2q0 -41 -21 -77t-58 -57q-46 -27 -113 -27q-36 0 -64 8q-25 6 -45 18q-39 22 -60 60q-24 41 -24 92q0 58 32 112z" />
<glyph unicode="&#xc0;" d="M15 72h45v2q0 100 142 661h96q142 -561 142 -661v-2h45v-72h-170v72h45v2q0 33 -15 119h-190q-15 -86 -15 -119v-2h45v-72h-170v72zM331 265q-28 137 -81 362q-53 -225 -81 -362h162zM183 975l134 -164l-55 -43l-145 155z" />
<glyph unicode="&#xc1;" d="M15 72h45v2q0 100 142 661h96q142 -561 142 -661v-2h45v-72h-170v72h45v2q0 33 -15 119h-190q-15 -86 -15 -119v-2h45v-72h-170v72zM331 265q-28 137 -81 362q-53 -225 -81 -362h162zM317 975l66 -52l-145 -155l-55 43z" />
<glyph unicode="&#xc2;" d="M15 72h45v2q0 100 142 661h96q142 -561 142 -661v-2h45v-72h-170v72h45v2q0 33 -15 119h-190q-15 -86 -15 -119v-2h45v-72h-170v72zM331 265q-28 137 -81 362q-53 -225 -81 -362h162zM206 972h88l130 -151l-69 -49l-105 141l-105 -141l-69 49z" />
<glyph unicode="&#xc3;" d="M15 72h45v2q0 100 142 661h96q142 -561 142 -661v-2h45v-72h-170v72h45v2q0 33 -15 119h-190q-15 -86 -15 -119v-2h45v-72h-170v72zM331 265q-28 137 -81 362q-53 -225 -81 -362h162zM103 894q26 45 53 61q18 9 36 9t35 -9q23 -13 54 -62q18 -27 27 -36q11 9 25 33 q15 27 34 71l66 -24q-18 -45 -36 -76q-26 -45 -53 -61q-18 -10 -36 -10t-35 10q-23 13 -54 61q-18 28 -27 36q-11 -9 -25 -33q-15 -26 -34 -71l-66 25q18 45 36 76z" />
<glyph unicode="&#xc4;" d="M15 72h45v2q0 100 142 661h96q142 -561 142 -661v-2h45v-72h-170v72h45v2q0 33 -15 119h-190q-15 -86 -15 -119v-2h45v-72h-170v72zM331 265q-28 137 -81 362q-53 -225 -81 -362h162zM88 890q-1 20 8 34q7 13 20.5 21t33.5 8t33.5 -8t20.5 -21q8 -13 9 -34q-1 -21 -9 -34 q-7 -13 -20.5 -20.5t-33.5 -8t-33.5 7.5t-20.5 21q-9 14 -8 34zM288 890q-1 20 8 34q7 13 20.5 21t33.5 8t33.5 -8t20.5 -21q8 -13 9 -34q-1 -21 -9 -34q-7 -13 -20.5 -20.5t-33.5 -8t-33.5 7.5t-20.5 21q-9 14 -8 34z" />
<glyph unicode="&#xc5;" d="M15 72h45v2q0 100 142 661h96q142 -561 142 -661v-2h45v-72h-170v72h45v2q0 33 -15 119h-190q-15 -86 -15 -119v-2h45v-72h-170v72zM331 265q-28 137 -81 362q-53 -225 -81 -362h162zM167 918q11 19 30 31q22 13 53 13t53 -13q19 -12 30 -31q13 -21 13 -52t-13 -53 q-11 -19 -30 -31q-22 -12 -53 -12t-53 12q-19 12 -30 31q-13 22 -13 53t13 52zM223 839q10 -10 27 -10t27 10t10 27t-10 27t-27 10t-27 -10t-10 -27t10 -27z" />
<glyph unicode="&#xc6;" d="M15 72h45v2q0 200 136 661h244v-145h-80v73h-48v-230h110v-72h-110v-289h48v73h80v-145h-208v193h-84q-8 -68 -8 -119v-2h45v-72h-170v72zM232 265v355q-52 -209 -74 -355h74z" />
<glyph unicode="&#xc7;" d="M150 -142h100q14 0 22 8q6 6 6 15.5t-6 15.5q-8 7 -22 7h-40v96h80v-29q13 -3 24 -10q21 -12 32.5 -32t11.5 -48t-11.5 -48t-32.5 -32q-26 -15 -64 -15h-100v72zM44 540q0 65 27 112q24 41 64 64q47 27 111 27t110 -27q41 -23 65 -64q19 -33 24 -72l-78 -14q-4 28 -17 49 q-14 26 -40 40q-27 16 -64 16t-64 -16q-25 -14 -40 -40q-18 -31 -18 -75v-345q0 -44 18 -75q15 -26 40 -40q27 -16 64 -16t64 16q26 14 40 40q13 21 17 49l78 -14q-5 -39 -24 -72q-24 -41 -65 -64q-46 -27 -110 -27t-111 27q-40 23 -64 64q-27 47 -27 112v345z" />
<glyph unicode="&#xc8;" d="M45 72h45v591h-45v72h395v-145h-80v73h-190v-245h195v-72h-195v-274h190v73h80v-145h-395v72zM183 975l134 -164l-55 -43l-145 155z" />
<glyph unicode="&#xc9;" d="M45 72h45v591h-45v72h395v-145h-80v73h-190v-245h195v-72h-195v-274h190v73h80v-145h-395v72zM317 975l66 -52l-145 -155l-55 43z" />
<glyph unicode="&#xca;" d="M45 72h45v591h-45v72h395v-145h-80v73h-190v-245h195v-72h-195v-274h190v73h80v-145h-395v72zM206 972h88l130 -151l-69 -49l-105 141l-105 -141l-69 49z" />
<glyph unicode="&#xcb;" d="M45 72h45v591h-45v72h395v-145h-80v73h-190v-245h195v-72h-195v-274h190v73h80v-145h-395v72zM88 890q-1 20 8 34q7 13 20.5 21t33.5 8t33.5 -8t20.5 -21q8 -13 9 -34q-1 -21 -9 -34q-7 -13 -20.5 -20.5t-33.5 -8t-33.5 7.5t-20.5 21q-9 14 -8 34zM288 890q-1 20 8 34 q7 13 20.5 21t33.5 8t33.5 -8t20.5 -21q8 -13 9 -34q-1 -21 -9 -34q-7 -13 -20.5 -20.5t-33.5 -8t-33.5 7.5t-20.5 21q-9 14 -8 34z" />
<glyph unicode="&#xcc;" d="M110 72h100v591h-100v72h280v-72h-100v-591h100v-72h-280v72zM183 975l134 -164l-55 -43l-145 155z" />
<glyph unicode="&#xcd;" d="M110 72h100v591h-100v72h280v-72h-100v-591h100v-72h-280v72zM317 975l66 -52l-145 -155l-55 43z" />
<glyph unicode="&#xce;" d="M110 72h100v591h-100v72h280v-72h-100v-591h100v-72h-280v72zM206 972h88l130 -151l-69 -49l-105 141l-105 -141l-69 49z" />
<glyph unicode="&#xcf;" d="M110 72h100v591h-100v72h280v-72h-100v-591h100v-72h-280v72zM88 890q-1 20 8 34q7 13 20.5 21t33.5 8t33.5 -8t20.5 -21q8 -13 9 -34q-1 -21 -9 -34q-7 -13 -20.5 -20.5t-33.5 -8t-33.5 7.5t-20.5 21q-9 14 -8 34zM288 890q-1 20 8 34q7 13 20.5 21t33.5 8t33.5 -8 t20.5 -21q8 -13 9 -34q-1 -21 -9 -34q-7 -13 -20.5 -20.5t-33.5 -8t-33.5 7.5t-20.5 21q-9 14 -8 34z" />
<glyph unicode="&#xd0;" d="M15 72h45v274h-42v72h42v245h-45v72h210q67 0 118 -29q47 -27 76 -78q37 -63 37 -156v-209q0 -93 -37 -156q-29 -51 -76 -78q-51 -29 -118 -29h-210v72zM225 72q41 0 72 18t51 53q28 48 28 120v209q0 72 -28 120q-20 35 -51 53t-72 18h-85v-245h122v-72h-122v-274h85z " />
<glyph unicode="&#xd1;" d="M15 72h45v591h-45v72h156l192 -601q0 27 -1 79q-1 112 -2 168v60v222h-45v72h170v-72h-45v-663h-111l-192 600q0 -43 1 -100q2 -117 2 -206v-222h45v-72h-170v72zM103 894q26 45 53 61q18 9 36 9t35 -9q23 -13 54 -62q18 -27 27 -36q11 9 25 33q15 27 34 71l66 -24 q-18 -45 -36 -76q-26 -45 -53 -61q-18 -10 -36 -10t-35 10q-23 13 -54 61q-18 28 -27 36q-11 -9 -25 -33q-15 -26 -34 -71l-66 25q18 45 36 76z" />
<glyph unicode="&#xd2;" d="M44 195v345q0 65 27 111q23 41 65 65q47 27 114 27t114 -27q42 -24 65 -65q27 -46 27 -111v-345q0 -65 -27 -111q-23 -41 -65 -65q-47 -27 -114 -27t-114 27q-42 24 -65 65q-27 46 -27 111zM142 121q15 -26 41 -41q27 -16 67 -16t67 16q26 15 41 41q18 31 18 74v345 q0 43 -18 74q-15 26 -41 41q-27 16 -67 16t-67 -16q-26 -15 -41 -41q-18 -31 -18 -74v-345q0 -43 18 -74zM183 975l134 -164l-55 -43l-145 155z" />
<glyph unicode="&#xd3;" d="M44 195v345q0 65 27 111q23 41 65 65q47 27 114 27t114 -27q42 -24 65 -65q27 -46 27 -111v-345q0 -65 -27 -111q-23 -41 -65 -65q-47 -27 -114 -27t-114 27q-42 24 -65 65q-27 46 -27 111zM142 121q15 -26 41 -41q27 -16 67 -16t67 16q26 15 41 41q18 31 18 74v345 q0 43 -18 74q-15 26 -41 41q-27 16 -67 16t-67 -16q-26 -15 -41 -41q-18 -31 -18 -74v-345q0 -43 18 -74zM317 975l66 -52l-145 -155l-55 43z" />
<glyph unicode="&#xd4;" d="M206 972h88l130 -151l-69 -49l-105 141l-105 -141l-69 49zM44 195v345q0 65 27 111q23 41 65 65q47 27 114 27t114 -27q42 -24 65 -65q27 -46 27 -111v-345q0 -65 -27 -111q-23 -41 -65 -65q-47 -27 -114 -27t-114 27q-42 24 -65 65q-27 46 -27 111zM142 121 q15 -26 41 -41q27 -16 67 -16t67 16q26 15 41 41q18 31 18 74v345q0 43 -18 74q-15 26 -41 41q-27 16 -67 16t-67 -16q-26 -15 -41 -41q-18 -31 -18 -74v-345q0 -43 18 -74z" />
<glyph unicode="&#xd5;" d="M44 195v345q0 65 27 111q23 41 65 65q47 27 114 27t114 -27q42 -24 65 -65q27 -46 27 -111v-345q0 -65 -27 -111q-23 -41 -65 -65q-47 -27 -114 -27t-114 27q-42 24 -65 65q-27 46 -27 111zM142 121q15 -26 41 -41q27 -16 67 -16t67 16q26 15 41 41q18 31 18 74v345 q0 43 -18 74q-15 26 -41 41q-27 16 -67 16t-67 -16q-26 -15 -41 -41q-18 -31 -18 -74v-345q0 -43 18 -74zM103 894q26 45 53 61q18 9 36 9t35 -9q23 -13 54 -62q18 -27 27 -36q11 9 25 33q15 27 34 71l66 -24q-18 -45 -36 -76q-26 -45 -53 -61q-18 -10 -36 -10t-35 10 q-23 13 -54 61q-18 28 -27 36q-11 -9 -25 -33q-15 -26 -34 -71l-66 25q18 45 36 76z" />
<glyph unicode="&#xd6;" d="M88 890q-1 20 8 34q7 13 20.5 21t33.5 8t33.5 -8t20.5 -21q8 -13 9 -34q-1 -21 -9 -34q-7 -13 -20.5 -20.5t-33.5 -8t-33.5 7.5t-20.5 21q-9 14 -8 34zM288 890q-1 20 8 34q7 13 20.5 21t33.5 8t33.5 -8t20.5 -21q8 -13 9 -34q-1 -21 -9 -34q-7 -13 -20.5 -20.5t-33.5 -8 t-33.5 7.5t-20.5 21q-9 14 -8 34zM44 195v345q0 65 27 111q23 41 65 65q47 27 114 27t114 -27q42 -24 65 -65q27 -46 27 -111v-345q0 -65 -27 -111q-23 -41 -65 -65q-47 -27 -114 -27t-114 27q-42 24 -65 65q-27 46 -27 111zM142 121q15 -26 41 -41q27 -16 67 -16t67 16 q26 15 41 41q18 31 18 74v345q0 43 -18 74q-15 26 -41 41q-27 16 -67 16t-67 -16q-26 -15 -41 -41q-18 -31 -18 -74v-345q0 -43 18 -74z" />
<glyph unicode="&#xd7;" d="M197 365l-165 165l56 50l162 -162l162 162l56 -50l-165 -165l165 -165l-56 -50l-162 162l-162 -162l-56 50z" />
<glyph unicode="&#xd8;" d="M44 195v345q0 65 27 111q23 41 65 65q47 27 114 27q57 0 100 -20l25 62l74 -27l-34 -86q7 -10 14 -21q27 -46 27 -111v-345q0 -65 -27 -111q-23 -41 -65 -65q-47 -27 -114 -27q-57 0 -100 20l-25 -62l-74 27l34 86q-7 10 -14 21q-27 46 -27 111zM183 80q27 -16 67 -16 t67 16q26 15 41 41q18 31 18 74v345q0 16 -2 30l-196 -487q3 -1 5 -3zM124 540v-345q0 -16 2 -30l196 487q-3 1 -5 3q-27 16 -67 16t-67 -16q-26 -15 -41 -41q-18 -31 -18 -74z" />
<glyph unicode="&#xd9;" d="M15 735h170v-72h-45v-468q0 -48 19 -80q14 -24 37 -37.5t54 -13.5t54 13.5t37 37.5q19 32 19 80v468h-45v72h170v-72h-45v-468q0 -69 -28 -116q-23 -40 -62 -63q-42 -24 -100 -24t-100 24q-39 23 -62 63q-28 47 -28 116v468h-45v72zM183 975l134 -164l-55 -43l-145 155z " />
<glyph unicode="&#xda;" d="M15 735h170v-72h-45v-468q0 -48 19 -80q14 -24 37 -37.5t54 -13.5t54 13.5t37 37.5q19 32 19 80v468h-45v72h170v-72h-45v-468q0 -69 -28 -116q-23 -40 -62 -63q-42 -24 -100 -24t-100 24q-39 23 -62 63q-28 47 -28 116v468h-45v72zM317 975l66 -52l-145 -155l-55 43z " />
<glyph unicode="&#xdb;" d="M15 735h170v-72h-45v-468q0 -48 19 -80q14 -24 37 -37.5t54 -13.5t54 13.5t37 37.5q19 32 19 80v468h-45v72h170v-72h-45v-468q0 -69 -28 -116q-23 -40 -62 -63q-42 -24 -100 -24t-100 24q-39 23 -62 63q-28 47 -28 116v468h-45v72zM206 972h88l130 -151l-69 -49 l-105 141l-105 -141l-69 49z" />
<glyph unicode="&#xdc;" d="M15 735h170v-72h-45v-468q0 -48 19 -80q14 -24 37 -37.5t54 -13.5t54 13.5t37 37.5q19 32 19 80v468h-45v72h170v-72h-45v-468q0 -69 -28 -116q-23 -40 -62 -63q-42 -24 -100 -24t-100 24q-39 23 -62 63q-28 47 -28 116v468h-45v72zM88 890q-1 20 8 34q7 13 20.5 21 t33.5 8t33.5 -8t20.5 -21q8 -13 9 -34q-1 -21 -9 -34q-7 -13 -20.5 -20.5t-33.5 -8t-33.5 7.5t-20.5 21q-9 14 -8 34zM288 890q-1 20 8 34q7 13 20.5 21t33.5 8t33.5 -8t20.5 -21q8 -13 9 -34q-1 -21 -9 -34q-7 -13 -20.5 -20.5t-33.5 -8t-33.5 7.5t-20.5 21q-9 14 -8 34z " />
<glyph unicode="&#xdd;" d="M15 735h170v-72h-44q6 -89 54 -181l55 -105l55 105q48 92 54 181h-44v72h170v-72h-46q-7 -106 -64 -214l-85 -162v-215h45v-72h-170v72h45v215l-85 162q-57 108 -64 214h-46v72zM317 975l66 -52l-145 -155l-55 43z" />
<glyph unicode="&#xde;" d="M30 72h45v591h-45v72h170v-72h-45v-68h57q77 0 133 -31q46 -27 74 -74q29 -52 29 -122.5t-29 -122.5q-28 -47 -74 -74q-56 -31 -133 -31h-57v-68h45v-72h-170v72zM212 212q50 0 86 20q31 18 50 50q20 36 20 85.5t-20 85.5q-19 32 -50 50q-36 20 -86 20h-57v-311h57z" />
<glyph unicode="&#xdf;" d="M15 72h45v458q0 76 30 128q24 41 62 63t91.5 22t93.5 -23q37 -22 60 -61q27 -47 27 -108q0 -63 -31 -117q-19 -33 -48 -57q5 -2 10 -5q44 -26 68 -68q25 -43 25 -103q0 -62 -26 -107q-24 -42 -66 -66q-48 -28 -118 -28h-34v72h34q42 0 72 17q26 15 41 42q17 29 17 70 q0 39 -16 66t-44 44q-36 20 -88 21v72q29 0 55 14q29 17 47 49q22 37 22 83q0 43 -18 73q-13 23 -34.5 35.5t-48.5 12.5t-46 -11q-22 -13 -36 -37q-21 -37 -21 -93v-530h-125v72z" />
<glyph unicode="&#xe0;" d="M63 226q20 35 60 58q57 33 146 33h91v46q0 31 -13 54q-12 21 -34 34q-27 15 -66 15t-66 -16q-22 -12 -35 -34q-9 -17 -11 -34l-77 18q3 27 18 53q22 37 58 59q46 26 112.5 26t113.5 -27q37 -21 58 -57q22 -39 22 -91v-291h45v-72h-125v76q-23 -38 -60 -60 q-42 -24 -98 -24q-51 0 -87 20q-32 19 -50 51q-21 36 -21 86q0 45 19 77zM134 107q11 -18 30 -29q25 -14 63 -14q42 0 73 18q27 16 42 43q18 30 18 73v47h-91q-62 0 -100 -22q-24 -14 -35 -34q-10 -17 -10 -40t10 -42zM183 770l134 -164l-55 -43l-145 155z" />
<glyph unicode="&#xe1;" d="M63 226q20 35 60 58q57 33 146 33h91v46q0 31 -13 54q-12 21 -34 34q-27 15 -66 15t-66 -16q-22 -12 -35 -34q-9 -17 -11 -34l-77 18q3 27 18 53q22 37 58 59q46 26 112.5 26t113.5 -27q37 -21 58 -57q22 -39 22 -91v-291h45v-72h-125v76q-23 -38 -60 -60 q-42 -24 -98 -24q-51 0 -87 20q-32 19 -50 51q-21 36 -21 86q0 45 19 77zM134 107q11 -18 30 -29q25 -14 63 -14q42 0 73 18q27 16 42 43q18 30 18 73v47h-91q-62 0 -100 -22q-24 -14 -35 -34q-10 -17 -10 -40t10 -42zM317 770l66 -52l-145 -155l-55 43z" />
<glyph unicode="&#xe2;" d="M63 226q20 35 60 58q57 33 146 33h91v46q0 31 -13 54q-12 21 -34 34q-27 15 -66 15t-66 -16q-22 -12 -35 -34q-9 -17 -11 -34l-77 18q3 27 18 53q22 37 58 59q46 26 112.5 26t113.5 -27q37 -21 58 -57q22 -39 22 -91v-291h45v-72h-125v76q-23 -38 -60 -60 q-42 -24 -98 -24q-51 0 -87 20q-32 19 -50 51q-21 36 -21 86q0 45 19 77zM134 107q11 -18 30 -29q25 -14 63 -14q42 0 73 18q27 16 42 43q18 30 18 73v47h-91q-62 0 -100 -22q-24 -14 -35 -34q-10 -17 -10 -40t10 -42zM206 767h88l130 -151l-69 -49l-105 141l-105 -141 l-69 49z" />
<glyph unicode="&#xe3;" d="M63 226q20 35 60 58q57 33 146 33h91v46q0 31 -13 54q-12 21 -34 34q-27 15 -66 15t-66 -16q-22 -12 -35 -34q-9 -17 -11 -34l-77 18q3 27 18 53q22 37 58 59q46 26 112.5 26t113.5 -27q37 -21 58 -57q22 -39 22 -91v-291h45v-72h-125v76q-23 -38 -60 -60 q-42 -24 -98 -24q-51 0 -87 20q-32 19 -50 51q-21 36 -21 86q0 45 19 77zM134 107q11 -18 30 -29q25 -14 63 -14q42 0 73 18q27 16 42 43q18 30 18 73v47h-91q-62 0 -100 -22q-24 -14 -35 -34q-10 -17 -10 -40t10 -42zM103 689q26 45 53 61q18 9 36 9t35 -9q23 -13 54 -62 q18 -27 27 -36q11 9 25 33q15 27 34 71l66 -24q-18 -45 -36 -76q-26 -45 -53 -61q-18 -10 -36 -10t-35 10q-23 13 -54 61q-18 28 -27 36q-11 -9 -25 -33q-15 -26 -34 -71l-66 25q18 45 36 76z" />
<glyph unicode="&#xe4;" d="M63 226q20 35 60 58q57 33 146 33h91v46q0 31 -13 54q-12 21 -34 34q-27 15 -66 15t-66 -16q-22 -12 -35 -34q-9 -17 -11 -34l-77 18q3 27 18 53q22 37 58 59q46 26 112.5 26t113.5 -27q37 -21 58 -57q22 -39 22 -91v-291h45v-72h-125v76q-23 -38 -60 -60 q-42 -24 -98 -24q-51 0 -87 20q-32 19 -50 51q-21 36 -21 86q0 45 19 77zM134 107q11 -18 30 -29q25 -14 63 -14q42 0 73 18q27 16 42 43q18 30 18 73v47h-91q-62 0 -100 -22q-24 -14 -35 -34q-10 -17 -10 -40t10 -42zM88 685q-1 20 8 34q7 13 20.5 21t33.5 8t33.5 -8 t20.5 -21q8 -13 9 -34q-1 -21 -9 -34q-7 -13 -20.5 -20.5t-33.5 -8t-33.5 7.5t-20.5 21q-9 14 -8 34zM288 685q-1 20 8 34q7 13 20.5 21t33.5 8t33.5 -8t20.5 -21q8 -13 9 -34q-1 -21 -9 -34q-7 -13 -20.5 -20.5t-33.5 -8t-33.5 7.5t-20.5 21q-9 14 -8 34z" />
<glyph unicode="&#xe5;" d="M63 226q20 35 60 58q57 33 146 33h91v46q0 31 -13 54q-12 21 -34 34q-27 15 -66 15t-66 -16q-22 -12 -35 -34q-9 -17 -11 -34l-77 18q3 27 18 53q22 37 58 59q46 26 112.5 26t113.5 -27q37 -21 58 -57q22 -39 22 -91v-291h45v-72h-125v76q-23 -38 -60 -60 q-42 -24 -98 -24q-51 0 -87 20q-32 19 -50 51q-21 36 -21 86q0 45 19 77zM134 107q11 -18 30 -29q25 -14 63 -14q42 0 73 18q27 16 42 43q18 30 18 73v47h-91q-62 0 -100 -22q-24 -14 -35 -34q-10 -17 -10 -40t10 -42zM167 713q11 19 30 31q22 13 53 13t53 -13 q19 -12 30 -31q13 -21 13 -52t-13 -53q-11 -19 -30 -31q-22 -12 -53 -12t-53 12q-19 12 -30 31q-13 22 -13 53t13 52zM223 634q10 -10 27 -10t27 10t10 27t-10 27t-27 10t-27 -10t-10 -27t10 -27z" />
<glyph unicode="&#xe6;" d="M50 232q21 37 58 58q43 25 102 27v81q0 39 -18 57q-12 11 -28 11t-27 -11q-18 -18 -18 -54v-2l-80 1v4q0 42 19 76q16 27 42 42q27 16 64 16t65 -16q12 -7 22 -16q9 9 21 15q29 17 69 17t69 -17q27 -15 43 -43q19 -33 19 -80v-169h-182v-97q0 -36 19 -54q13 -14 34.5 -14 t34.5 14q19 18 19 51v2l80 -1v-4q0 -40 -19 -73q-16 -28 -43 -44q-30 -17 -71.5 -17t-71.5 17q-12 7 -22 17q-10 -10 -22 -17q-29 -17 -69 -17q-38 0 -65.5 16t-44.5 45q-21 37 -21 89.5t22 89.5zM392 301v97q0 37 -19 55q-12 13 -32 13t-32 -13q-19 -18 -19 -55v-97h102z M108 141q0 -44 21 -65q12 -12 30 -12q20 0 32 13q19 18 19 55v113q-32 -2 -55 -15q-22 -13 -34.5 -35t-12.5 -54z" />
<glyph unicode="&#xe7;" d="M150 -142h100q14 0 22 8q6 6 6 15.5t-6 15.5q-8 7 -22 7h-40v96h80v-29q13 -3 24 -10q21 -12 32.5 -32t11.5 -48t-11.5 -48t-32.5 -32q-26 -15 -64 -15h-100v72zM44 220v90q0 79 32 134q25 44 67 69q45 25 104.5 25t104.5 -25q42 -25 67 -69q18 -31 26 -69l-76 -22 q-5 30 -19 54q-17 29 -43 44t-60 15q-33 0 -58.5 -15t-41.5 -43q-23 -39 -23 -98v-90q0 -59 23 -98q16 -28 41.5 -43t58.5 -15q34 0 60 15t43 44q14 24 19 54l76 -22q-8 -38 -26 -69q-25 -44 -67 -69q-45 -25 -104.5 -25t-104.5 25q-42 25 -67 69q-32 55 -32 134z" />
<glyph unicode="&#xe8;" d="M44 310q0 79 32 133q25 44 68 69q45 26 106 26t106 -26q43 -25 68 -69q32 -54 32 -133v-81h-332v-9q0 -56 22 -95q17 -30 44.5 -45.5t65 -15.5t65.5 16q27 16 45 46q9 17 13 32l74 -28q-7 -21 -18 -41q-26 -45 -70 -70q-46 -27 -110 -27t-110 27q-43 25 -70 69 q-31 55 -31 132v90zM124 310v-9h252v9q0 58 -22 97q-18 29 -44 44q-25 15 -60 15t-60 -15q-26 -15 -44 -44q-22 -39 -22 -97zM183 770l134 -164l-55 -43l-145 155z" />
<glyph unicode="&#xe9;" d="M44 310q0 79 32 133q25 44 68 69q45 26 106 26t106 -26q43 -25 68 -69q32 -54 32 -133v-81h-332v-9q0 -56 22 -95q17 -30 44.5 -45.5t65 -15.5t65.5 16q27 16 45 46q9 17 13 32l74 -28q-7 -21 -18 -41q-26 -45 -70 -70q-46 -27 -110 -27t-110 27q-43 25 -70 69 q-31 55 -31 132v90zM124 310v-9h252v9q0 58 -22 97q-18 29 -44 44q-25 15 -60 15t-60 -15q-26 -15 -44 -44q-22 -39 -22 -97zM317 770l66 -52l-145 -155l-55 43z" />
<glyph unicode="&#xea;" d="M44 310q0 79 32 133q25 44 68 69q45 26 106 26t106 -26q43 -25 68 -69q32 -54 32 -133v-81h-332v-9q0 -56 22 -95q17 -30 44.5 -45.5t65 -15.5t65.5 16q27 16 45 46q9 17 13 32l74 -28q-7 -21 -18 -41q-26 -45 -70 -70q-46 -27 -110 -27t-110 27q-43 25 -70 69 q-31 55 -31 132v90zM124 310v-9h252v9q0 58 -22 97q-18 29 -44 44q-25 15 -60 15t-60 -15q-26 -15 -44 -44q-22 -39 -22 -97zM206 767h88l130 -151l-69 -49l-105 141l-105 -141l-69 49z" />
<glyph unicode="&#xeb;" d="M44 310q0 79 32 133q25 44 68 69q45 26 106 26t106 -26q43 -25 68 -69q32 -54 32 -133v-81h-332v-9q0 -56 22 -95q17 -30 44.5 -45.5t65 -15.5t65.5 16q27 16 45 46q9 17 13 32l74 -28q-7 -21 -18 -41q-26 -45 -70 -70q-46 -27 -110 -27t-110 27q-43 25 -70 69 q-31 55 -31 132v90zM124 310v-9h252v9q0 58 -22 97q-18 29 -44 44q-25 15 -60 15t-60 -15q-26 -15 -44 -44q-22 -39 -22 -97zM88 685q-1 20 8 34q7 13 20.5 21t33.5 8t33.5 -8t20.5 -21q8 -13 9 -34q-1 -21 -9 -34q-7 -13 -20.5 -20.5t-33.5 -8t-33.5 7.5t-20.5 21 q-9 14 -8 34zM288 685q-1 20 8 34q7 13 20.5 21t33.5 8t33.5 -8t20.5 -21q8 -13 9 -34q-1 -21 -9 -34q-7 -13 -20.5 -20.5t-33.5 -8t-33.5 7.5t-20.5 21q-9 14 -8 34z" />
<glyph unicode="&#xec;" d="M75 72h142v386h-128v72h208v-458h128v-72h-350v72zM183 770l134 -164l-55 -43l-145 155z" />
<glyph unicode="&#xed;" d="M75 72h142v386h-128v72h208v-458h128v-72h-350v72zM317 770l66 -52l-145 -155l-55 43z" />
<glyph unicode="&#xee;" d="M75 72h142v386h-128v72h208v-458h128v-72h-350v72zM206 767h88l130 -151l-69 -49l-105 141l-105 -141l-69 49z" />
<glyph unicode="&#xef;" d="M75 72h142v386h-128v72h208v-458h128v-72h-350v72zM88 685q-1 20 8 34q7 13 20.5 21t33.5 8t33.5 -8t20.5 -21q8 -13 9 -34q-1 -21 -9 -34q-7 -13 -20.5 -20.5t-33.5 -8t-33.5 7.5t-20.5 21q-9 14 -8 34zM288 685q-1 20 8 34q7 13 20.5 21t33.5 8t33.5 -8t20.5 -21 q8 -13 9 -34q-1 -21 -9 -34q-7 -13 -20.5 -20.5t-33.5 -8t-33.5 7.5t-20.5 21q-9 14 -8 34z" />
<glyph unicode="&#xf0;" d="M76 354q25 44 68 69q45 26 106 26q55 0 97 -21q-14 44 -35 80q-5 9 -10 16l-194 -49l-20 69l164 42q-30 29 -66 50q-33 19 -68 30l21 69q48 -14 93 -39q61 -35 106 -88l73 18l20 -69l-49 -13l1 -1q73 -126 73 -322v-1q0 -79 -32 -133q-25 -44 -68 -69q-45 -26 -106 -26 t-106 26q-43 25 -68 69q-32 54 -32 133v1q0 79 32 133zM146 123q18 -29 44 -44q25 -15 60 -15t60 15q26 15 44 44q22 39 22 97v1q0 58 -22 97q-18 29 -44 44q-25 15 -60 15t-60 -15q-26 -15 -44 -44q-22 -39 -22 -97v-1q0 -58 22 -97z" />
<glyph unicode="&#xf1;" d="M15 72h45v386h-45v72h125v-76q1 3 3 6q24 40 58 60q32 18 74 18t73 -18q35 -20 58 -60q34 -59 34 -150v-238h45v-72h-170v72h45v238q0 63 -23 104q-16 27 -39 40q-21 12 -48 12t-48 -12q-23 -13 -39 -40q-23 -41 -23 -104v-238h45v-72h-170v72zM103 689q26 45 53 61 q18 9 36 9t35 -9q23 -13 54 -62q18 -27 27 -36q11 9 25 33q15 27 34 71l66 -24q-18 -45 -36 -76q-26 -45 -53 -61q-18 -10 -36 -10t-35 10q-23 13 -54 61q-18 28 -27 36q-11 -9 -25 -33q-15 -26 -34 -71l-66 25q18 45 36 76z" />
<glyph unicode="&#xf2;" d="M44 220v90q0 79 32 133q25 44 68 69q45 26 106 26t106 -26q43 -25 68 -69q32 -54 32 -133v-90q0 -79 -32 -133q-25 -44 -68 -69q-45 -26 -106 -26t-106 26q-43 25 -68 69q-32 54 -32 133zM146 123q18 -29 44 -44q25 -15 60 -15t60 15q26 15 44 44q22 39 22 97v90 q0 58 -22 97q-18 29 -44 44q-25 15 -60 15t-60 -15q-26 -15 -44 -44q-22 -39 -22 -97v-90q0 -58 22 -97zM183 770l134 -164l-55 -43l-145 155z" />
<glyph unicode="&#xf3;" d="M44 220v90q0 79 32 133q25 44 68 69q45 26 106 26t106 -26q43 -25 68 -69q32 -54 32 -133v-90q0 -79 -32 -133q-25 -44 -68 -69q-45 -26 -106 -26t-106 26q-43 25 -68 69q-32 54 -32 133zM146 123q18 -29 44 -44q25 -15 60 -15t60 15q26 15 44 44q22 39 22 97v90 q0 58 -22 97q-18 29 -44 44q-25 15 -60 15t-60 -15q-26 -15 -44 -44q-22 -39 -22 -97v-90q0 -58 22 -97zM317 770l66 -52l-145 -155l-55 43z" />
<glyph unicode="&#xf4;" d="M206 767h88l130 -151l-69 -49l-105 141l-105 -141l-69 49zM44 220v90q0 79 32 133q25 44 68 69q45 26 106 26t106 -26q43 -25 68 -69q32 -54 32 -133v-90q0 -79 -32 -133q-25 -44 -68 -69q-45 -26 -106 -26t-106 26q-43 25 -68 69q-32 54 -32 133zM146 123q18 -29 44 -44 q25 -15 60 -15t60 15q26 15 44 44q22 39 22 97v90q0 58 -22 97q-18 29 -44 44q-25 15 -60 15t-60 -15q-26 -15 -44 -44q-22 -39 -22 -97v-90q0 -58 22 -97z" />
<glyph unicode="&#xf5;" d="M44 220v90q0 79 32 133q25 44 68 69q45 26 106 26t106 -26q43 -25 68 -69q32 -54 32 -133v-90q0 -79 -32 -133q-25 -44 -68 -69q-45 -26 -106 -26t-106 26q-43 25 -68 69q-32 54 -32 133zM146 123q18 -29 44 -44q25 -15 60 -15t60 15q26 15 44 44q22 39 22 97v90 q0 58 -22 97q-18 29 -44 44q-25 15 -60 15t-60 -15q-26 -15 -44 -44q-22 -39 -22 -97v-90q0 -58 22 -97zM103 689q26 45 53 61q18 9 36 9t35 -9q23 -13 54 -62q18 -27 27 -36q11 9 25 33q15 27 34 71l66 -24q-18 -45 -36 -76q-26 -45 -53 -61q-18 -10 -36 -10t-35 10 q-23 13 -54 61q-18 28 -27 36q-11 -9 -25 -33q-15 -26 -34 -71l-66 25q18 45 36 76z" />
<glyph unicode="&#xf6;" d="M88 685q-1 20 8 34q7 13 20.5 21t33.5 8t33.5 -8t20.5 -21q8 -13 9 -34q-1 -21 -9 -34q-7 -13 -20.5 -20.5t-33.5 -8t-33.5 7.5t-20.5 21q-9 14 -8 34zM288 685q-1 20 8 34q7 13 20.5 21t33.5 8t33.5 -8t20.5 -21q8 -13 9 -34q-1 -21 -9 -34q-7 -13 -20.5 -20.5t-33.5 -8 t-33.5 7.5t-20.5 21q-9 14 -8 34zM44 220v90q0 79 32 133q25 44 68 69q45 26 106 26t106 -26q43 -25 68 -69q32 -54 32 -133v-90q0 -79 -32 -133q-25 -44 -68 -69q-45 -26 -106 -26t-106 26q-43 25 -68 69q-32 54 -32 133zM146 123q18 -29 44 -44q25 -15 60 -15t60 15 q26 15 44 44q22 39 22 97v90q0 58 -22 97q-18 29 -44 44q-25 15 -60 15t-60 -15q-26 -15 -44 -44q-22 -39 -22 -97v-90q0 -58 22 -97z" />
<glyph unicode="&#xf7;" d="M180 555q-1 18 7 32q8 13 21 21q18 10 42 10t42 -10q13 -8 20.5 -21t8.5 -32q-1 -19 -8.5 -32t-20.5 -21q-18 -10 -42 -9.5t-42 9.5q-13 8 -21 21q-8 14 -7 32zM60 401h380v-72h-380v72zM180 175q-1 18 7 32q8 13 21 21q18 9 42 9.5t42 -9.5q13 -8 20.5 -21t8.5 -32 q-1 -19 -8.5 -32t-20.5 -21q-18 -9 -42 -9t-42 9q-13 8 -21 21q-8 14 -7 32z" />
<glyph unicode="&#xf8;" d="M44 220v90q0 79 32 133q25 44 68 69q45 26 106 26q54 0 96 -20l31 56l70 -35l-40 -71q10 -12 17 -25q32 -54 32 -133v-90q0 -79 -32 -133q-25 -44 -68 -69q-45 -26 -106 -26q-54 0 -96 20l-31 -56l-70 35l40 71q-10 12 -17 25q-32 54 -32 133zM250.5 64q34.5 0 59.5 15 q26 15 44 44q22 39 22 97v90q0 44 -13 78l-172 -310q25 -14 59.5 -14zM124 310v-90q0 -44 13 -78l172 310q-25 14 -59.5 14t-59.5 -15q-26 -15 -44 -44q-22 -39 -22 -97z" />
<glyph unicode="&#xf9;" d="M15 530h125v-310q0 -63 23 -104q16 -27 39 -40q21 -12 48 -12t48 12q23 13 39 40q23 41 23 104v238h-45v72h125v-458h45v-72h-125v76q-1 -3 -3 -6q-24 -40 -58 -60q-32 -18 -74 -18t-73 18q-35 20 -58 60q-34 59 -34 150v238h-45v72zM183 770l134 -164l-55 -43l-145 155z " />
<glyph unicode="&#xfa;" d="M15 530h125v-310q0 -63 23 -104q16 -27 39 -40q21 -12 48 -12t48 12q23 13 39 40q23 41 23 104v238h-45v72h125v-458h45v-72h-125v76q-1 -3 -3 -6q-24 -40 -58 -60q-32 -18 -74 -18t-73 18q-35 20 -58 60q-34 59 -34 150v238h-45v72zM317 770l66 -52l-145 -155l-55 43z " />
<glyph unicode="&#xfb;" d="M15 530h125v-310q0 -63 23 -104q16 -27 39 -40q21 -12 48 -12t48 12q23 13 39 40q23 41 23 104v238h-45v72h125v-458h45v-72h-125v76q-1 -3 -3 -6q-24 -40 -58 -60q-32 -18 -74 -18t-73 18q-35 20 -58 60q-34 59 -34 150v238h-45v72zM206 767h88l130 -151l-69 -49 l-105 141l-105 -141l-69 49z" />
<glyph unicode="&#xfc;" d="M15 530h125v-310q0 -63 23 -104q16 -27 39 -40q21 -12 48 -12t48 12q23 13 39 40q23 41 23 104v238h-45v72h125v-458h45v-72h-125v76q-1 -3 -3 -6q-24 -40 -58 -60q-32 -18 -74 -18t-73 18q-35 20 -58 60q-34 59 -34 150v238h-45v72zM88 685q-1 20 8 34q7 13 20.5 21 t33.5 8t33.5 -8t20.5 -21q8 -13 9 -34q-1 -21 -9 -34q-7 -13 -20.5 -20.5t-33.5 -8t-33.5 7.5t-20.5 21q-9 14 -8 34zM288 685q-1 20 8 34q7 13 20.5 21t33.5 8t33.5 -8t20.5 -21q8 -13 9 -34q-1 -21 -9 -34q-7 -13 -20.5 -20.5t-33.5 -8t-33.5 7.5t-20.5 21q-9 14 -8 34z " />
<glyph unicode="&#xfd;" d="M15 530h170v-72h-42q7 -38 25 -95l82 -249l82 249q18 57 25 95h-42v72h170v-72h-47q-7 -49 -30 -118l-152 -443q-13 -35 -21 -51q-15 -25 -37 -38q-23 -13 -66 -13h-42v72h42q23 0 34 11q9 9 19 40l26 79l-119 343q-23 68 -30 118h-47v72zM317 770l66 -52l-145 -155 l-55 43z" />
<glyph unicode="&#xfe;" d="M15 -133h45v796h-45v72h125v-281q1 3 3 6q24 40 58 60q32 18 75 18q48 0 85 -21q38 -22 62 -64q33 -57 33 -143v-90q0 -86 -33 -143q-24 -42 -62 -64q-37 -21 -85 -21q-43 0 -75 18q-34 20 -58 60q-2 3 -3 6v-209h45v-72h-170v72zM140 310v-90q0 -63 23 -104 q16 -27 39 -40q21 -12 49 -12q34 0 59 15q26 15 44 44q22 39 22 97v90q0 58 -22 97q-18 29 -44 44q-25 15 -59 15q-28 0 -49 -12q-23 -13 -39 -40q-23 -41 -23 -104z" />
<glyph unicode="&#xff;" d="M15 530h170v-72h-42q7 -38 25 -95l82 -249l82 249q18 57 25 95h-42v72h170v-72h-47q-7 -49 -30 -118l-152 -443q-13 -35 -21 -51q-15 -25 -37 -38q-23 -13 -66 -13h-42v72h42q23 0 34 11q9 9 19 40l26 79l-119 343q-23 68 -30 118h-47v72zM88 685q-1 20 8 34 q7 13 20.5 21t33.5 8t33.5 -8t20.5 -21q8 -13 9 -34q-1 -21 -9 -34q-7 -13 -20.5 -20.5t-33.5 -8t-33.5 7.5t-20.5 21q-9 14 -8 34zM288 685q-1 20 8 34q7 13 20.5 21t33.5 8t33.5 -8t20.5 -21q8 -13 9 -34q-1 -21 -9 -34q-7 -13 -20.5 -20.5t-33.5 -8t-33.5 7.5t-20.5 21 q-9 14 -8 34z" />
<glyph unicode="&#x100;" d="M15 72h45v2q0 100 142 661h96q142 -561 142 -661v-2h45v-72h-170v72h45v2q0 33 -15 119h-190q-15 -86 -15 -119v-2h45v-72h-170v72zM331 265q-28 137 -81 362q-53 -225 -81 -362h162zM100 926h300v-72h-300v72z" />
<glyph unicode="&#x101;" d="M63 226q20 35 60 58q57 33 146 33h91v46q0 31 -13 54q-12 21 -34 34q-27 15 -66 15t-66 -16q-22 -12 -35 -34q-9 -17 -11 -34l-77 18q3 27 18 53q22 37 58 59q46 26 112.5 26t113.5 -27q37 -21 58 -57q22 -39 22 -91v-291h45v-72h-125v76q-23 -38 -60 -60 q-42 -24 -98 -24q-51 0 -87 20q-32 19 -50 51q-21 36 -21 86q0 45 19 77zM134 107q11 -18 30 -29q25 -14 63 -14q42 0 73 18q27 16 42 43q18 30 18 73v47h-91q-62 0 -100 -22q-24 -14 -35 -34q-10 -17 -10 -40t10 -42zM100 721h300v-72h-300v72z" />
<glyph unicode="&#x102;" d="M15 72h45v2q0 100 142 661h96q142 -561 142 -661v-2h45v-72h-170v72h45v2q0 33 -15 119h-190q-15 -86 -15 -119v-2h45v-72h-170v72zM331 265q-28 137 -81 362q-53 -225 -81 -362h162zM170 949q0 -30 12 -51q10 -17 27 -27t41 -10t41 10t27 27q12 21 12 51h80 q0 -51 -21 -88q-19 -32 -51 -51q-37 -21 -88 -21t-88 21q-32 19 -51 51q-21 37 -21 88h80z" />
<glyph unicode="&#x103;" d="M63 226q20 35 60 58q57 33 146 33h91v46q0 31 -13 54q-12 21 -34 34q-27 15 -66 15t-66 -16q-22 -12 -35 -34q-9 -17 -11 -34l-77 18q3 27 18 53q22 37 58 59q46 26 112.5 26t113.5 -27q37 -21 58 -57q22 -39 22 -91v-291h45v-72h-125v76q-23 -38 -60 -60 q-42 -24 -98 -24q-51 0 -87 20q-32 19 -50 51q-21 36 -21 86q0 45 19 77zM134 107q11 -18 30 -29q25 -14 63 -14q42 0 73 18q27 16 42 43q18 30 18 73v47h-91q-62 0 -100 -22q-24 -14 -35 -34q-10 -17 -10 -40t10 -42zM170 744q0 -30 12 -51q10 -17 27 -27t41 -10t41 10 t27 27q12 21 12 51h80q0 -51 -21 -88q-19 -32 -51 -51q-37 -21 -88 -21t-88 21q-32 19 -51 51q-21 37 -21 88h80z" />
<glyph unicode="&#x104;" d="M15 72h45v2q0 100 142 661h96q142 -561 142 -661v-2h45v-72h-170v72h45v2q0 33 -15 119h-190q-15 -86 -15 -119v-2h45v-72h-170v72zM331 265q-28 137 -81 362q-53 -225 -81 -362h162zM290 -34q14 24 39 38q33 19 75 19v-31q-22 0 -35 -14q-13 -12 -12 -28q-1 -16 11 -28 q17 -17 61 -17h60v-79h-60q-70 0 -103 19q-23 13 -36 35q-11 20 -11 42.5t11 43.5z" />
<glyph unicode="&#x105;" d="M63 226q20 35 60 58q57 33 146 33h91v46q0 31 -13 54q-12 21 -34 34q-27 15 -66 15t-66 -16q-22 -12 -35 -34q-9 -17 -11 -34l-77 18q3 27 18 53q22 37 58 59q46 26 112.5 26t113.5 -27q37 -21 58 -57q22 -39 22 -91v-291h45v-72h-125v76q-23 -38 -60 -60 q-42 -24 -98 -24q-51 0 -87 20q-32 19 -50 51q-21 36 -21 86q0 45 19 77zM134 107q11 -18 30 -29q25 -14 63 -14q42 0 73 18q27 16 42 43q18 30 18 73v47h-91q-62 0 -100 -22q-24 -14 -35 -34q-10 -17 -10 -40t10 -42zM290 -34q14 24 39 38q33 19 75 19v-31q-22 0 -35 -14 q-13 -12 -12 -28q-1 -16 11 -28q17 -17 61 -17h60v-79h-60q-70 0 -103 19q-23 13 -36 35q-11 20 -11 42.5t11 43.5z" />
<glyph unicode="&#x106;" d="M44 540q0 65 27 112q24 41 64 64q47 27 111 27t110 -27q41 -23 65 -64q19 -33 24 -72l-78 -14q-4 28 -17 49q-14 26 -40 40q-27 16 -64 16t-64 -16q-25 -14 -40 -40q-18 -31 -18 -75v-345q0 -44 18 -75q15 -26 40 -40q27 -16 64 -16t64 16q26 14 40 40q13 21 17 49 l78 -14q-5 -39 -24 -72q-24 -41 -65 -64q-46 -27 -110 -27t-111 27q-40 23 -64 64q-27 47 -27 112v345zM317 975l66 -52l-145 -155l-55 43z" />
<glyph unicode="&#x107;" d="M44 220v90q0 79 32 134q25 44 67 69q45 25 104.5 25t104.5 -25q42 -25 67 -69q18 -31 26 -69l-76 -22q-5 30 -19 54q-17 29 -43 44t-60 15q-33 0 -58.5 -15t-41.5 -43q-23 -39 -23 -98v-90q0 -59 23 -98q16 -28 41.5 -43t58.5 -15q34 0 60 15t43 44q14 24 19 54l76 -22 q-8 -38 -26 -69q-25 -44 -67 -69q-45 -25 -104.5 -25t-104.5 25q-42 25 -67 69q-32 55 -32 134zM317 770l66 -52l-145 -155l-55 43z" />
<glyph unicode="&#x108;" d="M206 972h88l130 -151l-69 -49l-105 141l-105 -141l-69 49zM44 540q0 65 27 112q24 41 64 64q47 27 111 27t110 -27q41 -23 65 -64q19 -33 24 -72l-78 -14q-4 28 -17 49q-14 26 -40 40q-27 16 -64 16t-64 -16q-25 -14 -40 -40q-18 -31 -18 -75v-345q0 -44 18 -75 q15 -26 40 -40q27 -16 64 -16t64 16q26 14 40 40q13 21 17 49l78 -14q-5 -39 -24 -72q-24 -41 -65 -64q-46 -27 -110 -27t-111 27q-40 23 -64 64q-27 47 -27 112v345z" />
<glyph unicode="&#x109;" d="M206 767h88l130 -151l-69 -49l-105 141l-105 -141l-69 49zM44 220v90q0 79 32 134q25 44 67 69q45 25 104.5 25t104.5 -25q42 -25 67 -69q18 -31 26 -69l-76 -22q-5 30 -19 54q-17 29 -43 44t-60 15q-33 0 -58.5 -15t-41.5 -43q-23 -39 -23 -98v-90q0 -59 23 -98 q16 -28 41.5 -43t58.5 -15q34 0 60 15t43 44q14 24 19 54l76 -22q-8 -38 -26 -69q-25 -44 -67 -69q-45 -25 -104.5 -25t-104.5 25q-42 25 -67 69q-32 55 -32 134z" />
<glyph unicode="&#x10a;" d="M44 540q0 65 27 112q24 41 64 64q47 27 111 27t110 -27q41 -23 65 -64q19 -33 24 -72l-78 -14q-4 28 -17 49q-14 26 -40 40q-27 16 -64 16t-64 -16q-25 -14 -40 -40q-18 -31 -18 -75v-345q0 -44 18 -75q15 -26 40 -40q27 -16 64 -16t64 16q26 14 40 40q13 21 17 49 l78 -14q-5 -39 -24 -72q-24 -41 -65 -64q-46 -27 -110 -27t-111 27q-40 23 -64 64q-27 47 -27 112v345zM188 890q-1 20 8 34q7 13 20.5 21t33.5 8t33.5 -8t20.5 -21q8 -13 9 -34q-1 -21 -9 -34q-7 -13 -20.5 -20.5t-33.5 -8t-33.5 7.5t-20.5 21q-9 14 -8 34z" />
<glyph unicode="&#x10b;" d="M44 220v90q0 79 32 134q25 44 67 69q45 25 104.5 25t104.5 -25q42 -25 67 -69q18 -31 26 -69l-76 -22q-5 30 -19 54q-17 29 -43 44t-60 15q-33 0 -58.5 -15t-41.5 -43q-23 -39 -23 -98v-90q0 -59 23 -98q16 -28 41.5 -43t58.5 -15q34 0 60 15t43 44q14 24 19 54l76 -22 q-8 -38 -26 -69q-25 -44 -67 -69q-45 -25 -104.5 -25t-104.5 25q-42 25 -67 69q-32 55 -32 134zM188 685q-1 20 8 34q7 13 20.5 21t33.5 8t33.5 -8t20.5 -21q8 -13 9 -34q-1 -21 -9 -34q-7 -13 -20.5 -20.5t-33.5 -8t-33.5 7.5t-20.5 21q-9 14 -8 34z" />
<glyph unicode="&#x10c;" d="M145 974l105 -141l105 141l69 -50l-130 -150h-88l-130 150zM44 540q0 65 27 112q24 41 64 64q47 27 111 27t110 -27q41 -23 65 -64q19 -33 24 -72l-78 -14q-4 28 -17 49q-14 26 -40 40q-27 16 -64 16t-64 -16q-25 -14 -40 -40q-18 -31 -18 -75v-345q0 -44 18 -75 q15 -26 40 -40q27 -16 64 -16t64 16q26 14 40 40q13 21 17 49l78 -14q-5 -39 -24 -72q-24 -41 -65 -64q-46 -27 -110 -27t-111 27q-40 23 -64 64q-27 47 -27 112v345z" />
<glyph unicode="&#x10d;" d="M145 769l105 -141l105 141l69 -50l-130 -150h-88l-130 150zM44 220v90q0 79 32 134q25 44 67 69q45 25 104.5 25t104.5 -25q42 -25 67 -69q18 -31 26 -69l-76 -22q-5 30 -19 54q-17 29 -43 44t-60 15q-33 0 -58.5 -15t-41.5 -43q-23 -39 -23 -98v-90q0 -59 23 -98 q16 -28 41.5 -43t58.5 -15q34 0 60 15t43 44q14 24 19 54l76 -22q-8 -38 -26 -69q-25 -44 -67 -69q-45 -25 -104.5 -25t-104.5 25q-42 25 -67 69q-32 55 -32 134z" />
<glyph unicode="&#x10e;" d="M15 72h45v591h-45v72h210q67 0 118 -29q47 -27 76 -78q37 -63 37 -156v-209q0 -93 -37 -156q-29 -51 -76 -78q-51 -29 -118 -29h-210v72zM225 72q41 0 72 18t51 53q28 48 28 120v209q0 72 -28 120q-20 35 -51 53t-72 18h-85v-591h85zM145 974l105 -141l105 141l69 -50 l-130 -150h-88l-130 150z" />
<glyph unicode="&#x10f;" d="M451.5 754.5q14.5 14.5 38.5 14.5t38.5 -14.5t14.5 -41.5q0 -70 -32 -125q-14 -24 -32 -42l-42 37q31 34 41 80q-16 3 -27 14q-14 14 -14 38.5t14.5 39zM44 220v90q0 90 34 149q23 40 58 60q33 19 74 19q38 0 65 -16q32 -18 54 -56q3 -5 6 -11v208h-41v72h121v-663h41 v-72h-121v75q-3 -6 -6 -11q-22 -38 -54 -56q-27 -16 -65 -16q-41 0 -74 19q-35 20 -58 60q-34 59 -34 149zM124 310v-90q0 -62 23 -102q16 -28 40 -41q22 -13 49 -13q24 0 40 10q21 11 35 36q24 42 24 110v90q0 68 -24 110q-14 25 -35 36q-16 10 -40 10q-27 0 -49 -13 q-24 -13 -40 -41q-23 -40 -23 -102z" />
<glyph unicode="&#x110;" d="M15 72h45v274h-42v72h42v245h-45v72h210q67 0 118 -29q47 -27 76 -78q37 -63 37 -156v-209q0 -93 -37 -156q-29 -51 -76 -78q-51 -29 -118 -29h-210v72zM225 72q41 0 72 18t51 53q28 48 28 120v209q0 72 -28 120q-20 35 -51 53t-72 18h-85v-245h122v-72h-122v-274h85z " />
<glyph unicode="&#x111;" d="M77 453q24 42 62 64q37 21 85 21q43 0 75 -18q34 -20 58 -60q2 -3 3 -6v132h-110v72h110v5h-45v72h125v-77h42v-72h-42v-514h45v-72h-125v76q-1 -3 -3 -6q-24 -40 -58 -60q-32 -18 -75 -18q-48 0 -85 21q-38 22 -62 64q-33 57 -33 143v90q0 86 33 143zM146 123 q18 -29 44 -44q25 -15 59 -15q28 0 49 12q23 13 39 40q23 41 23 104v90q0 63 -23 104q-16 27 -39 40q-21 12 -49 12q-34 0 -59 -15q-26 -15 -44 -44q-22 -39 -22 -97v-90q0 -58 22 -97z" />
<glyph unicode="&#x112;" d="M45 72h45v591h-45v72h395v-145h-80v73h-190v-245h195v-72h-195v-274h190v73h80v-145h-395v72zM100 926h300v-72h-300v72z" />
<glyph unicode="&#x113;" d="M44 310q0 79 32 133q25 44 68 69q45 26 106 26t106 -26q43 -25 68 -69q32 -54 32 -133v-81h-332v-9q0 -56 22 -95q17 -30 44.5 -45.5t65 -15.5t65.5 16q27 16 45 46q9 17 13 32l74 -28q-7 -21 -18 -41q-26 -45 -70 -70q-46 -27 -110 -27t-110 27q-43 25 -70 69 q-31 55 -31 132v90zM124 310v-9h252v9q0 58 -22 97q-18 29 -44 44q-25 15 -60 15t-60 -15q-26 -15 -44 -44q-22 -39 -22 -97zM100 721h300v-72h-300v72z" />
<glyph unicode="&#x114;" d="M45 72h45v591h-45v72h395v-145h-80v73h-190v-245h195v-72h-195v-274h190v73h80v-145h-395v72zM170 949q0 -30 12 -51q10 -17 27 -27t41 -10t41 10t27 27q12 21 12 51h80q0 -51 -21 -88q-19 -32 -51 -51q-37 -21 -88 -21t-88 21q-32 19 -51 51q-21 37 -21 88h80z" />
<glyph unicode="&#x115;" d="M44 310q0 79 32 133q25 44 68 69q45 26 106 26t106 -26q43 -25 68 -69q32 -54 32 -133v-81h-332v-9q0 -56 22 -95q17 -30 44.5 -45.5t65 -15.5t65.5 16q27 16 45 46q9 17 13 32l74 -28q-7 -21 -18 -41q-26 -45 -70 -70q-46 -27 -110 -27t-110 27q-43 25 -70 69 q-31 55 -31 132v90zM124 310v-9h252v9q0 58 -22 97q-18 29 -44 44q-25 15 -60 15t-60 -15q-26 -15 -44 -44q-22 -39 -22 -97zM170 744q0 -30 12 -51q10 -17 27 -27t41 -10t41 10t27 27q12 21 12 51h80q0 -51 -21 -88q-19 -32 -51 -51q-37 -21 -88 -21t-88 21q-32 19 -51 51 q-21 37 -21 88h80z" />
<glyph unicode="&#x116;" d="M45 72h45v591h-45v72h395v-145h-80v73h-190v-245h195v-72h-195v-274h190v73h80v-145h-395v72zM188 890q-1 20 8 34q7 13 20.5 21t33.5 8t33.5 -8t20.5 -21q8 -13 9 -34q-1 -21 -9 -34q-7 -13 -20.5 -20.5t-33.5 -8t-33.5 7.5t-20.5 21q-9 14 -8 34z" />
<glyph unicode="&#x117;" d="M44 310q0 79 32 133q25 44 68 69q45 26 106 26t106 -26q43 -25 68 -69q32 -54 32 -133v-81h-332v-9q0 -56 22 -95q17 -30 44.5 -45.5t65 -15.5t65.5 16q27 16 45 46q9 17 13 32l74 -28q-7 -21 -18 -41q-26 -45 -70 -70q-46 -27 -110 -27t-110 27q-43 25 -70 69 q-31 55 -31 132v90zM124 310v-9h252v9q0 58 -22 97q-18 29 -44 44q-25 15 -60 15t-60 -15q-26 -15 -44 -44q-22 -39 -22 -97zM188 685q-1 20 8 34q7 13 20.5 21t33.5 8t33.5 -8t20.5 -21q8 -13 9 -34q-1 -21 -9 -34q-7 -13 -20.5 -20.5t-33.5 -8t-33.5 7.5t-20.5 21 q-9 14 -8 34z" />
<glyph unicode="&#x118;" d="M45 72h45v591h-45v72h395v-145h-80v73h-190v-245h195v-72h-195v-274h190v73h80v-145h-395v72zM136 -34q14 24 39 38q33 19 75 19v-31q-22 0 -35 -14q-13 -12 -12 -28q-1 -16 11 -28q17 -17 61 -17h60v-79h-60q-70 0 -103 19q-23 13 -36 35q-11 20 -11 42.5t11 43.5z" />
<glyph unicode="&#x119;" d="M44 310q0 79 32 133q25 44 68 69q45 26 106 26t106 -26q43 -25 68 -69q32 -54 32 -133v-81h-332v-9q0 -56 22 -95q17 -30 44.5 -45.5t65 -15.5t65.5 16q27 16 45 46q9 17 13 32l74 -28q-7 -21 -18 -41q-26 -45 -70 -70q-46 -27 -110 -27t-110 27q-43 25 -70 69 q-31 55 -31 132v90zM124 310v-9h252v9q0 58 -22 97q-18 29 -44 44q-25 15 -60 15t-60 -15q-26 -15 -44 -44q-22 -39 -22 -97zM136 -34q14 24 39 38q33 19 75 19v-31q-22 0 -35 -14q-13 -12 -12 -28q-1 -16 11 -28q17 -17 61 -17h60v-79h-60q-70 0 -103 19q-23 13 -36 35 q-11 20 -11 42.5t11 43.5z" />
<glyph unicode="&#x11a;" d="M45 72h45v591h-45v72h395v-145h-80v73h-190v-245h195v-72h-195v-274h190v73h80v-145h-395v72zM145 974l105 -141l105 141l69 -50l-130 -150h-88l-130 150z" />
<glyph unicode="&#x11b;" d="M44 310q0 79 32 133q25 44 68 69q45 26 106 26t106 -26q43 -25 68 -69q32 -54 32 -133v-81h-332v-9q0 -56 22 -95q17 -30 44.5 -45.5t65 -15.5t65.5 16q27 16 45 46q9 17 13 32l74 -28q-7 -21 -18 -41q-26 -45 -70 -70q-46 -27 -110 -27t-110 27q-43 25 -70 69 q-31 55 -31 132v90zM124 310v-9h252v9q0 58 -22 97q-18 29 -44 44q-25 15 -60 15t-60 -15q-26 -15 -44 -44q-22 -39 -22 -97zM145 769l105 -141l105 141l69 -50l-130 -150h-88l-130 150z" />
<glyph unicode="&#x11c;" d="M44 195v345q0 65 27 112q24 41 64 64q47 27 111 27t110 -27q41 -23 65 -64q19 -33 24 -72l-78 -14q-4 28 -17 49q-14 26 -40 40q-27 16 -64 16t-64 -16q-25 -14 -40 -40q-18 -31 -18 -75v-345q0 -44 18 -74q14 -26 40 -41q29 -16 67 -16q32 0 55 13.5t37 37.5 q19 32 19 80v133h-110v72h190v-205q0 -69 -28 -116q-23 -40 -62 -63q-42 -24 -101 -24q-66 0 -113 27q-42 24 -65 65q-27 46 -27 111zM206 972h88l130 -151l-69 -49l-105 141l-105 -141l-69 49z" />
<glyph unicode="&#x11d;" d="M77 453q24 42 62 64q37 21 85 21q43 0 75 -18q34 -20 58 -60q2 -3 3 -6v76h125v-72h-45v-443q0 -80 -32 -135q-25 -43 -67 -68q-44 -25 -103.5 -25t-102.5 25q-42 24 -68 69q-7 11 -12 24l72 32q3 -9 9 -20q17 -28 42.5 -43t59.5 -15q33 0 57 14q26 15 42 44q23 39 23 98 v61q-1 -3 -3 -6q-24 -40 -58 -60q-32 -18 -75 -18q-48 0 -85 21q-38 22 -62 64q-33 57 -33 143v90q0 86 33 143zM146 123q18 -29 44 -44q25 -15 59 -15q28 0 49 12q23 13 39 40q23 41 23 104v90q0 63 -23 104q-16 27 -39 40q-21 12 -49 12q-34 0 -59 -15q-26 -15 -44 -44 q-22 -39 -22 -97v-90q0 -58 22 -97zM206 767h88l130 -151l-69 -49l-105 141l-105 -141l-69 49z" />
<glyph unicode="&#x11e;" d="M44 195v345q0 65 27 112q24 41 64 64q47 27 111 27t110 -27q41 -23 65 -64q19 -33 24 -72l-78 -14q-4 28 -17 49q-14 26 -40 40q-27 16 -64 16t-64 -16q-25 -14 -40 -40q-18 -31 -18 -75v-345q0 -44 18 -74q14 -26 40 -41q29 -16 67 -16q32 0 55 13.5t37 37.5 q19 32 19 80v133h-110v72h190v-205q0 -69 -28 -116q-23 -40 -62 -63q-42 -24 -101 -24q-66 0 -113 27q-42 24 -65 65q-27 46 -27 111zM170 949q0 -30 12 -51q10 -17 27 -27t41 -10t41 10t27 27q12 21 12 51h80q0 -51 -21 -88q-19 -32 -51 -51q-37 -21 -88 -21t-88 21 q-32 19 -51 51q-21 37 -21 88h80z" />
<glyph unicode="&#x11f;" d="M77 453q24 42 62 64q37 21 85 21q43 0 75 -18q34 -20 58 -60q2 -3 3 -6v76h125v-72h-45v-443q0 -80 -32 -135q-25 -43 -67 -68q-44 -25 -103.5 -25t-102.5 25q-42 24 -68 69q-7 11 -12 24l72 32q3 -9 9 -20q17 -28 42.5 -43t59.5 -15q33 0 57 14q26 15 42 44q23 39 23 98 v61q-1 -3 -3 -6q-24 -40 -58 -60q-32 -18 -75 -18q-48 0 -85 21q-38 22 -62 64q-33 57 -33 143v90q0 86 33 143zM146 123q18 -29 44 -44q25 -15 59 -15q28 0 49 12q23 13 39 40q23 41 23 104v90q0 63 -23 104q-16 27 -39 40q-21 12 -49 12q-34 0 -59 -15q-26 -15 -44 -44 q-22 -39 -22 -97v-90q0 -58 22 -97zM170 744q0 -30 12 -51q10 -17 27 -27t41 -10t41 10t27 27q12 21 12 51h80q0 -51 -21 -88q-19 -32 -51 -51q-37 -21 -88 -21t-88 21q-32 19 -51 51q-21 37 -21 88h80z" />
<glyph unicode="&#x120;" d="M44 195v345q0 65 27 112q24 41 64 64q47 27 111 27t110 -27q41 -23 65 -64q19 -33 24 -72l-78 -14q-4 28 -17 49q-14 26 -40 40q-27 16 -64 16t-64 -16q-25 -14 -40 -40q-18 -31 -18 -75v-345q0 -44 18 -74q14 -26 40 -41q29 -16 67 -16q32 0 55 13.5t37 37.5 q19 32 19 80v133h-110v72h190v-205q0 -69 -28 -116q-23 -40 -62 -63q-42 -24 -101 -24q-66 0 -113 27q-42 24 -65 65q-27 46 -27 111zM188 890q-1 20 8 34q7 13 20.5 21t33.5 8t33.5 -8t20.5 -21q8 -13 9 -34q-1 -21 -9 -34q-7 -13 -20.5 -20.5t-33.5 -8t-33.5 7.5t-20.5 21 q-9 14 -8 34z" />
<glyph unicode="&#x121;" d="M77 453q24 42 62 64q37 21 85 21q43 0 75 -18q34 -20 58 -60q2 -3 3 -6v76h125v-72h-45v-443q0 -80 -32 -135q-25 -43 -67 -68q-44 -25 -103.5 -25t-102.5 25q-42 24 -68 69q-7 11 -12 24l72 32q3 -9 9 -20q17 -28 42.5 -43t59.5 -15q33 0 57 14q26 15 42 44q23 39 23 98 v61q-1 -3 -3 -6q-24 -40 -58 -60q-32 -18 -75 -18q-48 0 -85 21q-38 22 -62 64q-33 57 -33 143v90q0 86 33 143zM146 123q18 -29 44 -44q25 -15 59 -15q28 0 49 12q23 13 39 40q23 41 23 104v90q0 63 -23 104q-16 27 -39 40q-21 12 -49 12q-34 0 -59 -15q-26 -15 -44 -44 q-22 -39 -22 -97v-90q0 -58 22 -97zM188 685q-1 20 8 34q7 13 20.5 21t33.5 8t33.5 -8t20.5 -21q8 -13 9 -34q-1 -21 -9 -34q-7 -13 -20.5 -20.5t-33.5 -8t-33.5 7.5t-20.5 21q-9 14 -8 34z" />
<glyph unicode="&#x122;" d="M44 195v345q0 65 27 112q24 41 64 64q47 27 111 27t110 -27q41 -23 65 -64q19 -33 24 -72l-78 -14q-4 28 -17 49q-14 26 -40 40q-27 16 -64 16t-64 -16q-25 -14 -40 -40q-18 -31 -18 -75v-345q0 -44 18 -74q14 -26 40 -41q29 -16 67 -16q32 0 55 13.5t37 37.5 q19 32 19 80v133h-110v72h190v-205q0 -69 -28 -116q-23 -40 -62 -63q-42 -24 -101 -24q-66 0 -113 27q-42 24 -65 65q-27 46 -27 111zM211.5 -33.5q14.5 14.5 38.5 14.5t38.5 -14.5t14.5 -41.5q0 -70 -32 -125q-14 -24 -32 -42l-42 37q31 34 41 80q-16 3 -27 14 q-14 14 -14 38.5t14.5 39z" />
<glyph unicode="&#x123;" d="M77 453q24 42 62 64q37 21 85 21q43 0 75 -18q34 -20 58 -60q2 -3 3 -6v76h125v-72h-45v-443q0 -80 -32 -135q-25 -43 -67 -68q-44 -25 -103.5 -25t-102.5 25q-42 24 -68 69q-7 11 -12 24l72 32q3 -9 9 -20q17 -28 42.5 -43t59.5 -15q33 0 57 14q26 15 42 44q23 39 23 98 v61q-1 -3 -3 -6q-24 -40 -58 -60q-32 -18 -75 -18q-48 0 -85 21q-38 22 -62 64q-33 57 -33 143v90q0 86 33 143zM146 123q18 -29 44 -44q25 -15 59 -15q28 0 49 12q23 13 39 40q23 41 23 104v90q0 63 -23 104q-16 27 -39 40q-21 12 -49 12q-34 0 -59 -15q-26 -15 -44 -44 q-22 -39 -22 -97v-90q0 -58 22 -97zM197 605q0 71 32 126q14 24 32 42l42 -37q-31 -34 -41 -81q16 -2 27 -13q14 -15 14 -39t-14.5 -38.5t-38.5 -14.5t-38.5 14.5t-14.5 40.5z" />
<glyph unicode="&#x124;" d="M15 72h45v591h-45v72h170v-72h-45v-241h220v241h-45v72h170v-72h-45v-591h45v-72h-170v72h45v278h-220v-278h45v-72h-170v72zM206 972h88l130 -151l-69 -49l-105 141l-105 -141l-69 49z" />
<glyph unicode="&#x125;" d="M15 72h45v591h-45v72h125v-281q1 3 3 6q24 40 58 60q32 18 74 18t73 -18q35 -20 58 -60q34 -59 34 -150v-238h45v-72h-170v72h45v238q0 63 -23 104q-16 27 -39 40q-21 12 -48 12t-48 -12q-23 -13 -39 -40q-23 -41 -23 -104v-238h45v-72h-170v72zM206 972h88l130 -151 l-69 -49l-105 141l-105 -141l-69 49z" />
<glyph unicode="&#x126;" d="M15 72h45v425h-42v72h42v94h-45v72h170v-72h-45v-94h220v94h-45v72h170v-72h-45v-94h42v-72h-42v-425h45v-72h-170v72h45v278h-220v-278h45v-72h-170v72zM360 422v75h-220v-75h220z" />
<glyph unicode="&#x127;" d="M15 72h45v514h-42v72h42v5h-45v72h125v-77h110v-72h-110v-132q1 3 3 6q24 40 58 60q32 18 74 18t73 -18q35 -20 58 -60q34 -59 34 -150v-238h45v-72h-170v72h45v238q0 63 -23 104q-16 27 -39 40q-21 12 -48 12t-48 -12q-23 -13 -39 -40q-23 -41 -23 -104v-238h45v-72 h-170v72z" />
<glyph unicode="&#x128;" d="M110 72h100v591h-100v72h280v-72h-100v-591h100v-72h-280v72zM103 894q26 45 53 61q18 9 36 9t35 -9q23 -13 54 -62q18 -27 27 -36q11 9 25 33q15 27 34 71l66 -24q-18 -45 -36 -76q-26 -45 -53 -61q-18 -10 -36 -10t-35 10q-23 13 -54 61q-18 28 -27 36q-11 -9 -25 -33 q-15 -26 -34 -71l-66 25q18 45 36 76z" />
<glyph unicode="&#x129;" d="M75 72h142v386h-128v72h208v-458h128v-72h-350v72zM103 689q26 45 53 61q18 9 36 9t35 -9q23 -13 54 -62q18 -27 27 -36q11 9 25 33q15 27 34 71l66 -24q-18 -45 -36 -76q-26 -45 -53 -61q-18 -10 -36 -10t-35 10q-23 13 -54 61q-18 28 -27 36q-11 -9 -25 -33 q-15 -26 -34 -71l-66 25q18 45 36 76z" />
<glyph unicode="&#x12a;" d="M110 72h100v591h-100v72h280v-72h-100v-591h100v-72h-280v72zM100 926h300v-72h-300v72z" />
<glyph unicode="&#x12b;" d="M75 72h142v386h-128v72h208v-458h128v-72h-350v72zM100 721h300v-72h-300v72z" />
<glyph unicode="&#x12c;" d="M110 72h100v591h-100v72h280v-72h-100v-591h100v-72h-280v72zM170 949q0 -30 12 -51q10 -17 27 -27t41 -10t41 10t27 27q12 21 12 51h80q0 -51 -21 -88q-19 -32 -51 -51q-37 -21 -88 -21t-88 21q-32 19 -51 51q-21 37 -21 88h80z" />
<glyph unicode="&#x12d;" d="M75 72h142v386h-128v72h208v-458h128v-72h-350v72zM170 744q0 -30 12 -51q10 -17 27 -27t41 -10t41 10t27 27q12 21 12 51h80q0 -51 -21 -88q-19 -32 -51 -51q-37 -21 -88 -21t-88 21q-32 19 -51 51q-21 37 -21 88h80z" />
<glyph unicode="&#x12e;" d="M110 72h100v591h-100v72h280v-72h-100v-591h100v-72h-280v72zM136 -34q14 24 39 38q33 19 75 19v-31q-22 0 -35 -14q-13 -12 -12 -28q-1 -16 11 -28q17 -17 61 -17h60v-79h-60q-70 0 -103 19q-23 13 -36 35q-11 20 -11 42.5t11 43.5z" />
<glyph unicode="&#x12f;" d="M75 72h142v386h-128v72h208v-458h128v-72h-350v72zM188 685q-1 20 8 34q7 13 20.5 21t33.5 8t33.5 -8t20.5 -21q8 -13 9 -34q-1 -21 -9 -34q-7 -13 -20.5 -20.5t-33.5 -8t-33.5 7.5t-20.5 21q-9 14 -8 34zM136 -34q14 24 39 38q33 19 75 19v-31q-22 0 -35 -14 q-13 -12 -12 -28q-1 -16 11 -28q17 -17 61 -17h60v-79h-60q-70 0 -103 19q-23 13 -36 35q-11 20 -11 42.5t11 43.5z" />
<glyph unicode="&#x130;" d="M110 72h100v591h-100v72h280v-72h-100v-591h100v-72h-280v72zM188 890q-1 20 8 34q7 13 20.5 21t33.5 8t33.5 -8t20.5 -21q8 -13 9 -34q-1 -21 -9 -34q-7 -13 -20.5 -20.5t-33.5 -8t-33.5 7.5t-20.5 21q-9 14 -8 34z" />
<glyph unicode="&#x131;" d="M75 72h142v386h-128v72h208v-458h128v-72h-350v72z" />
<glyph unicode="&#x132;" d="M199 64q71 0 105 19q25 15 39 40q17 29 17 86v526h80v-526q0 -85 -25 -129q-22 -38 -59 -59q-50 -29 -157 -29v72zM60 735h80v-735h-80v735z" />
<glyph unicode="&#x133;" d="M316 719q7 13 20.5 21t33.5 8t33.5 -8t20.5 -21q8 -13 9 -34q-1 -21 -9 -34q-7 -13 -20.5 -20.5t-33.5 -8t-33.5 7.5t-20.5 21q-9 14 -8 34q-1 20 8 34zM76 719q7 13 20.5 21t33.5 8t33.5 -8t20.5 -21q9 -14 8 -34q1 -20 -8 -34q-7 -13 -20.5 -20.5t-33.5 -7.5t-33.5 7.5 t-20.5 20.5q-8 13 -9 34q1 21 9 34zM146 -46q4 -28 17 -50.5t33 -34.5q18 -10 41 -10t41 10q20 12 32 34q20 34 20 87v540h80v-540q0 -73 -29 -123q-22 -38 -58.5 -59t-85.5 -21t-85 21t-59 59q-16 29 -23 63zM90 530h80v-530h-80v530z" />
<glyph unicode="&#x134;" d="M118 170q4 -31 18 -55.5t37 -37.5t53.5 -13t52.5 13q23 13 37 38q19 32 19 80v468h-135v72h215v-540q0 -69 -28 -117q-23 -40 -62 -62q-41 -24 -98.5 -24t-99.5 24q-38 22 -62 62q-20 36 -25 77zM311 972h88l130 -151l-69 -49l-105 141l-105 -141l-69 49z" />
<glyph unicode="&#x135;" d="M89 -46q4 -28 17 -50.5t33 -34.5q18 -10 41 -10t41 10q20 12 32 34q20 34 20 87v468h-135v72h215v-540q0 -73 -29 -123q-22 -38 -58.5 -59t-85.5 -21t-85 21t-59 59q-16 29 -23 63zM255 767h88l130 -151l-69 -49l-105 141l-105 -141l-69 49z" />
<glyph unicode="&#x136;" d="M15 72h45v591h-45v72h170v-72h-45v-275q128 188 170 261q38 65 38 86h32h105v-72h-74q-6 -10 -12 -21q-33 -58 -118 -184q113 -272 150 -386h54v-72h-85h-32q0 50 -139 380q-40 -59 -89 -130v-178h45v-72h-170v72zM211.5 -33.5q14.5 14.5 38.5 14.5t38.5 -14.5 t14.5 -41.5q0 -70 -32 -125q-14 -24 -32 -42l-42 37q31 34 41 80q-16 3 -27 14q-14 14 -14 38.5t14.5 39z" />
<glyph unicode="&#x137;" d="M15 72h45v591h-45v72h125v-446q177 182 204 228q4 7 4 13h32h105v-72h-92q-39 -48 -111 -126q101 -175 140 -260h63v-72h-85h-32q0 30 -99 201q-19 33 -42 72q-40 -43 -87 -92v-109h45v-72h-170v72zM211.5 -33.5q14.5 14.5 38.5 14.5t38.5 -14.5t14.5 -41.5 q0 -70 -32 -125q-14 -24 -32 -42l-42 37q31 34 41 80q-16 3 -27 14q-14 14 -14 38.5t14.5 39z" />
<glyph unicode="&#x138;" d="M15 72h45v386h-45v72h170v-72h-45v-169q177 182 204 228q4 7 4 13h32h105v-72h-92q-39 -48 -111 -126q101 -175 140 -260h63v-72h-85h-32q0 30 -99 201q-19 33 -42 72q-40 -43 -87 -92v-109h45v-72h-170v72z" />
<glyph unicode="&#x139;" d="M45 72h45v591h-45v72h170v-72h-45v-591h206v73h80v-145h-411v72zM317 975l66 -52l-145 -155l-55 43z" />
<glyph unicode="&#x13a;" d="M186 155v580h79v-580q1 -30 13 -50q10 -18 29 -29q21 -12 51 -12q35 0 67 16v-72q-29 -16 -67 -16q-57 0 -98 23q-35 20 -53 53q-22 37 -21 87zM293 975l66 -52l-145 -155l-55 43z" />
<glyph unicode="&#x13b;" d="M45 72h45v591h-45v72h170v-72h-45v-591h206v73h80v-145h-411v72zM211.5 -33.5q14.5 14.5 38.5 14.5t38.5 -14.5t14.5 -41.5q0 -70 -32 -125q-14 -24 -32 -42l-42 37q31 34 41 80q-16 3 -27 14q-14 14 -14 38.5t14.5 39z" />
<glyph unicode="&#x13c;" d="M186.5 -33.5q14.5 14.5 38.5 14.5t38.5 -14.5t14.5 -41.5q0 -70 -32 -125q-14 -24 -32 -42l-42 37q31 34 41 80q-16 3 -27 14q-14 14 -14 38.5t14.5 39zM186 155v580h79v-580q1 -30 13 -50q10 -18 29 -29q21 -12 51 -12q35 0 67 16v-72q-29 -16 -67 -16q-57 0 -98 23 q-35 20 -53 53q-22 37 -21 87z" />
<glyph unicode="&#x13d;" d="M45 72h45v591h-45v72h170v-72h-45v-591h206v73h80v-145h-411v72zM353.5 754.5q14.5 14.5 38.5 14.5t38.5 -14.5t14.5 -41.5q0 -70 -32 -125q-14 -24 -32 -42l-42 37q31 34 41 80q-16 3 -27 14q-14 14 -14 38.5t14.5 39z" />
<glyph unicode="&#x13e;" d="M357.5 740.5q14.5 14.5 38.5 14.5t38.5 -14.5t14.5 -41.5q0 -70 -32 -125q-14 -24 -32 -42l-42 37q31 34 41 80q-16 3 -27 14q-14 14 -14 38.5t14.5 39zM186 155v580h79v-580q1 -30 13 -50q10 -18 29 -29q21 -12 51 -12q35 0 67 16v-72q-29 -16 -67 -16q-57 0 -98 23 q-35 20 -53 53q-22 37 -21 87z" />
<glyph unicode="&#x13f;" d="M45 72h45v591h-45v72h170v-72h-45v-591h206v73h80v-145h-411v72zM245 404q-1 20 8 34q7 13 20.5 21t33.5 8t33.5 -8t20.5 -21q8 -13 9 -34q-1 -21 -9 -34q-7 -13 -20.5 -20.5t-33.5 -8t-33.5 7.5t-20.5 21q-9 14 -8 34z" />
<glyph unicode="&#x140;" d="M155 155v580h79v-580q1 -30 13 -50q10 -18 29 -29q21 -12 51 -12q35 0 67 16v-72q-29 -16 -67 -16q-57 0 -98 23q-35 20 -53 53q-22 37 -21 87zM315 404q-1 20 8 34q7 13 20.5 21t33.5 8t33.5 -8t20.5 -21q8 -13 9 -34q-1 -21 -9 -34q-7 -13 -20.5 -20.5t-33.5 -8 t-33.5 7.5t-20.5 21q-9 14 -8 34z" />
<glyph unicode="&#x141;" d="M45 72h45v591h-45v72h170v-72h-45v-591h206v73h80v-145h-411v72zM292 505l36 -64l-280 -140l-36 64z" />
<glyph unicode="&#x142;" d="M186 155v580h79v-580q1 -30 13 -50q10 -18 29 -29q21 -12 51 -12q35 0 67 16v-72q-29 -16 -67 -16q-57 0 -98 23q-35 20 -53 53q-22 37 -21 87zM347 484l36 -64l-280 -140l-36 64z" />
<glyph unicode="&#x143;" d="M15 72h45v591h-45v72h156l192 -601q0 27 -1 79q-1 112 -2 168v60v222h-45v72h170v-72h-45v-663h-111l-192 600q0 -43 1 -100q2 -117 2 -206v-222h45v-72h-170v72zM317 975l66 -52l-145 -155l-55 43z" />
<glyph unicode="&#x144;" d="M15 72h45v386h-45v72h125v-76q1 3 3 6q24 40 58 60q32 18 74 18t73 -18q35 -20 58 -60q34 -59 34 -150v-238h45v-72h-170v72h45v238q0 63 -23 104q-16 27 -39 40q-21 12 -48 12t-48 -12q-23 -13 -39 -40q-23 -41 -23 -104v-238h45v-72h-170v72zM317 770l66 -52l-145 -155 l-55 43z" />
<glyph unicode="&#x145;" d="M15 72h45v591h-45v72h156l192 -601q0 27 -1 79q-1 112 -2 168v60v222h-45v72h170v-72h-45v-663h-111l-192 600q0 -43 1 -100q2 -117 2 -206v-222h45v-72h-170v72zM211.5 -33.5q14.5 14.5 38.5 14.5t38.5 -14.5t14.5 -41.5q0 -70 -32 -125q-14 -24 -32 -42l-42 37 q31 34 41 80q-16 3 -27 14q-14 14 -14 38.5t14.5 39z" />
<glyph unicode="&#x146;" d="M15 72h45v386h-45v72h125v-76q1 3 3 6q24 40 58 60q32 18 74 18t73 -18q35 -20 58 -60q34 -59 34 -150v-238h45v-72h-170v72h45v238q0 63 -23 104q-16 27 -39 40q-21 12 -48 12t-48 -12q-23 -13 -39 -40q-23 -41 -23 -104v-238h45v-72h-170v72zM211.5 -33.5 q14.5 14.5 38.5 14.5t38.5 -14.5t14.5 -41.5q0 -70 -32 -125q-14 -24 -32 -42l-42 37q31 34 41 80q-16 3 -27 14q-14 14 -14 38.5t14.5 39z" />
<glyph unicode="&#x147;" d="M15 72h45v591h-45v72h156l192 -601q0 27 -1 79q-1 112 -2 168v60v222h-45v72h170v-72h-45v-663h-111l-192 600q0 -43 1 -100q2 -117 2 -206v-222h45v-72h-170v72zM145 974l105 -141l105 141l69 -50l-130 -150h-88l-130 150z" />
<glyph unicode="&#x148;" d="M15 72h45v386h-45v72h125v-76q1 3 3 6q24 40 58 60q32 18 74 18t73 -18q35 -20 58 -60q34 -59 34 -150v-238h45v-72h-170v72h45v238q0 63 -23 104q-16 27 -39 40q-21 12 -48 12t-48 -12q-23 -13 -39 -40q-23 -41 -23 -104v-238h45v-72h-170v72zM145 769l105 -141l105 141 l69 -50l-130 -150h-88l-130 150z" />
<glyph unicode="&#x149;" d="M15 72h45v386h-45v72h125v-76q1 3 3 6q24 40 58 60q32 18 74 18t73 -18q35 -20 58 -60q34 -59 34 -150v-238h45v-72h-170v72h45v238q0 63 -23 104q-16 27 -39 40q-21 12 -48 12t-48 -12q-23 -13 -39 -40q-23 -41 -23 -104v-238h45v-72h-170v72zM21.5 754.5 q14.5 14.5 38.5 14.5t38.5 -14.5t14.5 -41.5q0 -70 -32 -125q-14 -24 -32 -42l-42 37q31 34 41 80q-16 3 -27 14q-14 14 -14 38.5t14.5 39z" />
<glyph unicode="&#x14a;" d="M60 735h80v-56q20 28 48 44q35 20 83 20t82 -20q36 -21 58 -59q29 -50 29 -124v-357q0 -60 -25 -104q-22 -39 -61 -61q-45 -26 -108 -26v72q36 0 61 15q23 13 37 37q16 28 16 67v357q0 46 -18 78q-15 26 -39 39.5t-57 13.5t-57 -13.5t-39 -39.5q-6 -11 -10 -23v-595h-80 v735z" />
<glyph unicode="&#x14b;" d="M15 72h45v386h-45v72h125v-76q1 3 3 6q24 40 58 60q32 18 74 18t73 -18q35 -20 58 -60q34 -59 34 -150v-310q0 -57 -24 -99q-23 -40 -64 -63q-50 -29 -122 -29v72q45 0 75 18q25 14 40 39q15 26 15 62v310q0 63 -23 104q-16 27 -39 40q-21 12 -48 12t-48 -12 q-23 -13 -39 -40q-23 -41 -23 -104v-238h45v-72h-170v72z" />
<glyph unicode="&#x14c;" d="M44 195v345q0 65 27 111q23 41 65 65q47 27 114 27t114 -27q42 -24 65 -65q27 -46 27 -111v-345q0 -65 -27 -111q-23 -41 -65 -65q-47 -27 -114 -27t-114 27q-42 24 -65 65q-27 46 -27 111zM142 121q15 -26 41 -41q27 -16 67 -16t67 16q26 15 41 41q18 31 18 74v345 q0 43 -18 74q-15 26 -41 41q-27 16 -67 16t-67 -16q-26 -15 -41 -41q-18 -31 -18 -74v-345q0 -43 18 -74zM100 926h300v-72h-300v72z" />
<glyph unicode="&#x14d;" d="M44 220v90q0 79 32 133q25 44 68 69q45 26 106 26t106 -26q43 -25 68 -69q32 -54 32 -133v-90q0 -79 -32 -133q-25 -44 -68 -69q-45 -26 -106 -26t-106 26q-43 25 -68 69q-32 54 -32 133zM146 123q18 -29 44 -44q25 -15 60 -15t60 15q26 15 44 44q22 39 22 97v90 q0 58 -22 97q-18 29 -44 44q-25 15 -60 15t-60 -15q-26 -15 -44 -44q-22 -39 -22 -97v-90q0 -58 22 -97zM100 721h300v-72h-300v72z" />
<glyph unicode="&#x14e;" d="M44 195v345q0 65 27 111q23 41 65 65q47 27 114 27t114 -27q42 -24 65 -65q27 -46 27 -111v-345q0 -65 -27 -111q-23 -41 -65 -65q-47 -27 -114 -27t-114 27q-42 24 -65 65q-27 46 -27 111zM142 121q15 -26 41 -41q27 -16 67 -16t67 16q26 15 41 41q18 31 18 74v345 q0 43 -18 74q-15 26 -41 41q-27 16 -67 16t-67 -16q-26 -15 -41 -41q-18 -31 -18 -74v-345q0 -43 18 -74zM170 949q0 -30 12 -51q10 -17 27 -27t41 -10t41 10t27 27q12 21 12 51h80q0 -51 -21 -88q-19 -32 -51 -51q-37 -21 -88 -21t-88 21q-32 19 -51 51q-21 37 -21 88h80z " />
<glyph unicode="&#x14f;" d="M44 220v90q0 79 32 133q25 44 68 69q45 26 106 26t106 -26q43 -25 68 -69q32 -54 32 -133v-90q0 -79 -32 -133q-25 -44 -68 -69q-45 -26 -106 -26t-106 26q-43 25 -68 69q-32 54 -32 133zM146 123q18 -29 44 -44q25 -15 60 -15t60 15q26 15 44 44q22 39 22 97v90 q0 58 -22 97q-18 29 -44 44q-25 15 -60 15t-60 -15q-26 -15 -44 -44q-22 -39 -22 -97v-90q0 -58 22 -97zM170 744q0 -30 12 -51q10 -17 27 -27t41 -10t41 10t27 27q12 21 12 51h80q0 -51 -21 -88q-19 -32 -51 -51q-37 -21 -88 -21t-88 21q-32 19 -51 51q-21 37 -21 88h80z " />
<glyph unicode="&#x150;" d="M232 975l66 -52l-145 -155l-55 43zM402 975l66 -52l-145 -155l-55 43zM44 195v345q0 65 27 111q23 41 65 65q47 27 114 27t114 -27q42 -24 65 -65q27 -46 27 -111v-345q0 -65 -27 -111q-23 -41 -65 -65q-47 -27 -114 -27t-114 27q-42 24 -65 65q-27 46 -27 111zM142 121 q15 -26 41 -41q27 -16 67 -16t67 16q26 15 41 41q18 31 18 74v345q0 43 -18 74q-15 26 -41 41q-27 16 -67 16t-67 -16q-26 -15 -41 -41q-18 -31 -18 -74v-345q0 -43 18 -74z" />
<glyph unicode="&#x151;" d="M232 770l66 -52l-145 -155l-55 43zM402 770l66 -52l-145 -155l-55 43zM44 220v90q0 79 32 133q25 44 68 69q45 26 106 26t106 -26q43 -25 68 -69q32 -54 32 -133v-90q0 -79 -32 -133q-25 -44 -68 -69q-45 -26 -106 -26t-106 26q-43 25 -68 69q-32 54 -32 133zM146 123 q18 -29 44 -44q25 -15 60 -15t60 15q26 15 44 44q22 39 22 97v90q0 58 -22 97q-18 29 -44 44q-25 15 -60 15t-60 -15q-26 -15 -44 -44q-22 -39 -22 -97v-90q0 -58 22 -97z" />
<glyph unicode="&#x152;" d="M157 123q14 -24 36 -37q25 -14 57 -14v591q-32 0 -57 -14q-22 -13 -36 -37q-17 -29 -17 -72v-345q0 -43 17 -72zM60 540q0 64 26 109q23 39 61 61q43 25 103 25h190v-145h-80v73h-30v-230h92v-72h-92v-289h30v73h80v-145h-190q-60 0 -103 25q-38 22 -61 61 q-26 45 -26 109v345z" />
<glyph unicode="&#x153;" d="M28 398q0 47 19 80q16 28 43 43q29 17 69 17t69 -17q12 -7 22 -16q10 9 22 16q29 17 69 17t69 -17q27 -15 43 -43q19 -33 19 -80v-169h-182v-97q0 -36 19 -54q13 -14 34.5 -14t34.5 14q19 18 19 51v2l80 -1v-4q0 -40 -19 -73q-16 -28 -43 -44q-30 -17 -71.5 -17t-71.5 17 q-12 7 -22 16q-10 -9 -22 -16q-29 -17 -69 -17t-69 17q-27 15 -43 43q-19 33 -19 80v266zM392 301v97q0 37 -19 55q-12 13 -32 13t-32 -13q-19 -18 -19 -55v-97h102zM108 398v-266q0 -37 19 -55q12 -13 32 -13t32 13q19 18 19 55v266q0 37 -19 55q-12 13 -32 13t-32 -13 q-19 -18 -19 -55z" />
<glyph unicode="&#x154;" d="M15 72h45v591h-45v72h242q63 0 108 -26q40 -23 64 -64q27 -47 27 -113.5t-27 -113.5q-24 -41 -64 -64q-24 -14 -53 -20q89 -162 114 -262h59v-72h-96h-32q1 99 -131 328h-86v-256h45v-72h-170v72zM257 400q35 0 62 15q24 14 39 40q18 31 18 76.5t-18 76.5q-15 26 -39 40 q-27 15 -62 15h-117v-263h117zM317 975l66 -52l-145 -155l-55 43z" />
<glyph unicode="&#x155;" d="M57 72h63v386h-63v72h143v-101q7 19 17 36q23 39 55 58q26 15 61 15q36 0 67.5 -18t49.5 -50q8 -14 13 -30l-75 -34q-3 11 -9 22q-11 19 -29 29q-15 9 -34 9q-26 0 -46 -12q-24 -13 -42 -43q-28 -50 -28 -130v-209h105v-72h-248v72zM317 770l66 -52l-145 -155l-55 43z " />
<glyph unicode="&#x156;" d="M15 72h45v591h-45v72h242q63 0 108 -26q40 -23 64 -64q27 -47 27 -113.5t-27 -113.5q-24 -41 -64 -64q-24 -14 -53 -20q89 -162 114 -262h59v-72h-96h-32q1 99 -131 328h-86v-256h45v-72h-170v72zM257 400q35 0 62 15q24 14 39 40q18 31 18 76.5t-18 76.5q-15 26 -39 40 q-27 15 -62 15h-117v-263h117zM211.5 -33.5q14.5 14.5 38.5 14.5t38.5 -14.5t14.5 -41.5q0 -70 -32 -125q-14 -24 -32 -42l-42 37q31 34 41 80q-16 3 -27 14q-14 14 -14 38.5t14.5 39z" />
<glyph unicode="&#x157;" d="M57 72h63v386h-63v72h143v-101q7 19 17 36q23 39 55 58q26 15 61 15q36 0 67.5 -18t49.5 -50q8 -14 13 -30l-75 -34q-3 11 -9 22q-11 19 -29 29q-15 9 -34 9q-26 0 -46 -12q-24 -13 -42 -43q-28 -50 -28 -130v-209h105v-72h-248v72zM211.5 -33.5q14.5 14.5 38.5 14.5 t38.5 -14.5t14.5 -41.5q0 -70 -32 -125q-14 -24 -32 -42l-42 37q31 34 41 80q-16 3 -27 14q-14 14 -14 38.5t14.5 39z" />
<glyph unicode="&#x158;" d="M15 72h45v591h-45v72h242q63 0 108 -26q40 -23 64 -64q27 -47 27 -113.5t-27 -113.5q-24 -41 -64 -64q-24 -14 -53 -20q89 -162 114 -262h59v-72h-96h-32q1 99 -131 328h-86v-256h45v-72h-170v72zM257 400q35 0 62 15q24 14 39 40q18 31 18 76.5t-18 76.5q-15 26 -39 40 q-27 15 -62 15h-117v-263h117zM145 974l105 -141l105 141l69 -50l-130 -150h-88l-130 150z" />
<glyph unicode="&#x159;" d="M57 72h63v386h-63v72h143v-101q7 19 17 36q23 39 55 58q26 15 61 15q36 0 67.5 -18t49.5 -50q8 -14 13 -30l-75 -34q-3 11 -9 22q-11 19 -29 29q-15 9 -34 9q-26 0 -46 -12q-24 -13 -42 -43q-28 -50 -28 -130v-209h105v-72h-248v72zM145 769l105 -141l105 141l69 -50 l-130 -150h-88l-130 150z" />
<glyph unicode="&#x15a;" d="M55 153v2l79 11v-7q0 -24 12 -45t35 -34q27 -16 66 -16q36 0 61 15q23 13 37 36q15 28 15 60.5t-18 64.5q-25 43 -107 89q-111 64 -146 125q-29 50 -29 105q0 53 25 97q23 39 62 61q44 26 106 26q66 0 113 -27q37 -21 58 -57.5t21 -76.5v-2l-79 -11v7q0 24 -12 45t-35 34 q-27 16 -66 16q-36 0 -61 -15q-23 -13 -37 -36q-15 -28 -15 -60.5t18 -64.5q25 -43 107 -89q111 -64 146 -125q29 -50 29 -105q0 -53 -25 -97q-23 -39 -62 -61q-44 -26 -106 -26q-66 0 -113 27q-37 21 -58 57.5t-21 76.5zM317 975l66 -52l-145 -155l-55 43z" />
<glyph unicode="&#x15b;" d="M75 459q18 31 53 51q49 28 123 28q70 0 116 -27q38 -22 60 -60q9 -14 14 -31l-75 -24l-8 18q-14 23 -36 36q-28 16 -71 16q-47 0 -77 -17q-18 -11 -28 -27q-8 -14 -8 -32q0 -20 10 -36q10 -18 30 -30q24 -14 80 -20q72 -8 107.5 -28.5t56 -56t20.5 -79.5q0 -39 -17 -69 q-18 -31 -53 -51q-49 -28 -123 -28q-70 0 -116 27q-38 22 -60 60q-9 14 -14 31l75 24l8 -18q14 -23 36 -36q28 -16 71 -16q47 0 77 17q18 11 28 27q8 14 8 32q0 20 -10 36q-10 18 -30 30q-24 14 -80 20q-72 8 -107.5 28.5t-56 56t-20.5 79.5q0 39 17 69zM317 770l66 -52 l-145 -155l-55 43z" />
<glyph unicode="&#x15c;" d="M206 972h88l130 -151l-69 -49l-105 141l-105 -141l-69 49zM55 153v2l79 11v-7q0 -24 12 -45t35 -34q27 -16 66 -16q36 0 61 15q23 13 37 36q15 28 15 60.5t-18 64.5q-25 43 -107 89q-111 64 -146 125q-29 50 -29 105q0 53 25 97q23 39 62 61q44 26 106 26q66 0 113 -27 q37 -21 58 -57.5t21 -76.5v-2l-79 -11v7q0 24 -12 45t-35 34q-27 16 -66 16q-36 0 -61 -15q-23 -13 -37 -36q-15 -28 -15 -60.5t18 -64.5q25 -43 107 -89q111 -64 146 -125q29 -50 29 -105q0 -53 -25 -97q-23 -39 -62 -61q-44 -26 -106 -26q-66 0 -113 27q-37 21 -58 57.5 t-21 76.5z" />
<glyph unicode="&#x15d;" d="M206 767h88l130 -151l-69 -49l-105 141l-105 -141l-69 49zM75 459q18 31 53 51q49 28 123 28q70 0 116 -27q38 -22 60 -60q9 -14 14 -31l-75 -24l-8 18q-14 23 -36 36q-28 16 -71 16q-47 0 -77 -17q-18 -11 -28 -27q-8 -14 -8 -32q0 -20 10 -36q10 -18 30 -30 q24 -14 80 -20q72 -8 107.5 -28.5t56 -56t20.5 -79.5q0 -39 -17 -69q-18 -31 -53 -51q-49 -28 -123 -28q-70 0 -116 27q-38 22 -60 60q-9 14 -14 31l75 24l8 -18q14 -23 36 -36q28 -16 71 -16q47 0 77 17q18 11 28 27q8 14 8 32q0 20 -10 36q-10 18 -30 30q-24 14 -80 20 q-72 8 -107.5 28.5t-56 56t-20.5 79.5q0 39 17 69z" />
<glyph unicode="&#x15e;" d="M150 -142h100q14 0 22 8q6 6 6 15.5t-6 15.5q-8 7 -22 7h-40v96h80v-29q13 -3 24 -10q21 -12 32.5 -32t11.5 -48t-11.5 -48t-32.5 -32q-26 -15 -64 -15h-100v72zM55 153v2l79 11v-7q0 -24 12 -45t35 -34q27 -16 66 -16q36 0 61 15q23 13 37 36q15 28 15 60.5t-18 64.5 q-25 43 -107 89q-111 64 -146 125q-29 50 -29 105q0 53 25 97q23 39 62 61q44 26 106 26q66 0 113 -27q37 -21 58 -57.5t21 -76.5v-2l-79 -11v7q0 24 -12 45t-35 34q-27 16 -66 16q-36 0 -61 -15q-23 -13 -37 -36q-15 -28 -15 -60.5t18 -64.5q25 -43 107 -89 q111 -64 146 -125q29 -50 29 -105q0 -53 -25 -97q-23 -39 -62 -61q-44 -26 -106 -26q-66 0 -113 27q-37 21 -58 57.5t-21 76.5z" />
<glyph unicode="&#x15f;" d="M150 -142h100q14 0 22 8q6 6 6 15.5t-6 15.5q-8 7 -22 7h-40v96h80v-29q13 -3 24 -10q21 -12 32.5 -32t11.5 -48t-11.5 -48t-32.5 -32q-26 -15 -64 -15h-100v72zM75 459q18 31 53 51q49 28 123 28q70 0 116 -27q38 -22 60 -60q9 -14 14 -31l-75 -24l-8 18q-14 23 -36 36 q-28 16 -71 16q-47 0 -77 -17q-18 -11 -28 -27q-8 -14 -8 -32q0 -20 10 -36q10 -18 30 -30q24 -14 80 -20q72 -8 107.5 -28.5t56 -56t20.5 -79.5q0 -39 -17 -69q-18 -31 -53 -51q-49 -28 -123 -28q-70 0 -116 27q-38 22 -60 60q-9 14 -14 31l75 24l8 -18q14 -23 36 -36 q28 -16 71 -16q47 0 77 17q18 11 28 27q8 14 8 32q0 20 -10 36q-10 18 -30 30q-24 14 -80 20q-72 8 -107.5 28.5t-56 56t-20.5 79.5q0 39 17 69z" />
<glyph unicode="&#x160;" d="M145 974l105 -141l105 141l69 -50l-130 -150h-88l-130 150zM55 153v2l79 11v-7q0 -24 12 -45t35 -34q27 -16 66 -16q36 0 61 15q23 13 37 36q15 28 15 60.5t-18 64.5q-25 43 -107 89q-111 64 -146 125q-29 50 -29 105q0 53 25 97q23 39 62 61q44 26 106 26q66 0 113 -27 q37 -21 58 -57.5t21 -76.5v-2l-79 -11v7q0 24 -12 45t-35 34q-27 16 -66 16q-36 0 -61 -15q-23 -13 -37 -36q-15 -28 -15 -60.5t18 -64.5q25 -43 107 -89q111 -64 146 -125q29 -50 29 -105q0 -53 -25 -97q-23 -39 -62 -61q-44 -26 -106 -26q-66 0 -113 27q-37 21 -58 57.5 t-21 76.5z" />
<glyph unicode="&#x161;" d="M145 769l105 -141l105 141l69 -50l-130 -150h-88l-130 150zM75 459q18 31 53 51q49 28 123 28q70 0 116 -27q38 -22 60 -60q9 -14 14 -31l-75 -24l-8 18q-14 23 -36 36q-28 16 -71 16q-47 0 -77 -17q-18 -11 -28 -27q-8 -14 -8 -32q0 -20 10 -36q10 -18 30 -30 q24 -14 80 -20q72 -8 107.5 -28.5t56 -56t20.5 -79.5q0 -39 -17 -69q-18 -31 -53 -51q-49 -28 -123 -28q-70 0 -116 27q-38 22 -60 60q-9 14 -14 31l75 24l8 -18q14 -23 36 -36q28 -16 71 -16q47 0 77 17q18 11 28 27q8 14 8 32q0 20 -10 36q-10 18 -30 30q-24 14 -80 20 q-72 8 -107.5 28.5t-56 56t-20.5 79.5q0 39 17 69z" />
<glyph unicode="&#x162;" d="M52 735h396v-145h-80v73h-78v-591h65v-72h-210v72h65v591h-78v-73h-80v145zM150 -142h100q14 0 22 8q6 6 6 15.5t-6 15.5q-8 7 -22 7h-40v96h80v-29q13 -3 24 -10q21 -12 32.5 -32t11.5 -48t-11.5 -48t-32.5 -32q-26 -15 -64 -15h-100v72z" />
<glyph unicode="&#x163;" d="M51 530h109v205h80v-205h161v-72h-161v-264q0 -55 20 -90q12 -21 30 -31q16 -9 36 -9t35 9q8 4 16 12q29 30 34 87l78 -17q-5 -48 -27 -85.5t-57 -57.5q-33 -20 -79.5 -20t-79.5 20q-35 20 -57 57q-29 51 -29 125v264h-109v72zM203 -142h100q14 0 22 8q6 6 6 15.5 t-6 15.5q-8 7 -22 7h-40v96h80v-29q13 -3 24 -10q21 -12 32.5 -32t11.5 -48t-11.5 -48t-32.5 -32q-26 -15 -64 -15h-100v72z" />
<glyph unicode="&#x164;" d="M52 735h396v-145h-80v73h-78v-591h65v-72h-210v72h65v591h-78v-73h-80v145zM145 974l105 -141l105 141l69 -50l-130 -150h-88l-130 150z" />
<glyph unicode="&#x165;" d="M51 530h109v205h80v-205h161v-72h-161v-264q0 -55 20 -90q12 -21 30 -31q16 -9 36 -9t35 9q8 4 16 12q29 30 34 87l78 -17q-5 -48 -27 -85.5t-57 -57.5q-33 -20 -79.5 -20t-79.5 20q-35 20 -57 57q-29 51 -29 125v264h-109v72zM357.5 740.5q14.5 14.5 38.5 14.5 t38.5 -14.5t14.5 -41.5q0 -70 -32 -125q-14 -24 -32 -42l-42 37q31 34 41 80q-16 3 -27 14q-14 14 -14 38.5t14.5 39z" />
<glyph unicode="&#x166;" d="M52 735h396v-145h-80v73h-78v-296h112v-72h-112v-223h65v-72h-210v72h65v223h-112v72h112v296h-78v-73h-80v145z" />
<glyph unicode="&#x167;" d="M51 530h109v205h80v-205h161v-72h-161v-104h98v-72h-98v-88q0 -55 20 -90q12 -21 30 -31q16 -9 36 -9t35 9q8 4 16 12q29 30 34 87l78 -17q-5 -48 -27 -85.5t-57 -57.5q-33 -20 -79.5 -20t-79.5 20q-35 20 -57 57q-29 51 -29 125v88h-88v72h88v104h-109v72z" />
<glyph unicode="&#x168;" d="M15 735h170v-72h-45v-468q0 -48 19 -80q14 -24 37 -37.5t54 -13.5t54 13.5t37 37.5q19 32 19 80v468h-45v72h170v-72h-45v-468q0 -69 -28 -116q-23 -40 -62 -63q-42 -24 -100 -24t-100 24q-39 23 -62 63q-28 47 -28 116v468h-45v72zM103 894q26 45 53 61q18 9 36 9t35 -9 q23 -13 54 -62q18 -27 27 -36q11 9 25 33q15 27 34 71l66 -24q-18 -45 -36 -76q-26 -45 -53 -61q-18 -10 -36 -10t-35 10q-23 13 -54 61q-18 28 -27 36q-11 -9 -25 -33q-15 -26 -34 -71l-66 25q18 45 36 76z" />
<glyph unicode="&#x169;" d="M15 530h125v-310q0 -63 23 -104q16 -27 39 -40q21 -12 48 -12t48 12q23 13 39 40q23 41 23 104v238h-45v72h125v-458h45v-72h-125v76q-1 -3 -3 -6q-24 -40 -58 -60q-32 -18 -74 -18t-73 18q-35 20 -58 60q-34 59 -34 150v238h-45v72zM103 689q26 45 53 61q18 9 36 9 t35 -9q23 -13 54 -62q18 -27 27 -36q11 9 25 33q15 27 34 71l66 -24q-18 -45 -36 -76q-26 -45 -53 -61q-18 -10 -36 -10t-35 10q-23 13 -54 61q-18 28 -27 36q-11 -9 -25 -33q-15 -26 -34 -71l-66 25q18 45 36 76z" />
<glyph unicode="&#x16a;" d="M15 735h170v-72h-45v-468q0 -48 19 -80q14 -24 37 -37.5t54 -13.5t54 13.5t37 37.5q19 32 19 80v468h-45v72h170v-72h-45v-468q0 -69 -28 -116q-23 -40 -62 -63q-42 -24 -100 -24t-100 24q-39 23 -62 63q-28 47 -28 116v468h-45v72zM100 926h300v-72h-300v72z" />
<glyph unicode="&#x16b;" d="M15 530h125v-310q0 -63 23 -104q16 -27 39 -40q21 -12 48 -12t48 12q23 13 39 40q23 41 23 104v238h-45v72h125v-458h45v-72h-125v76q-1 -3 -3 -6q-24 -40 -58 -60q-32 -18 -74 -18t-73 18q-35 20 -58 60q-34 59 -34 150v238h-45v72zM100 721h300v-72h-300v72z" />
<glyph unicode="&#x16c;" d="M15 735h170v-72h-45v-468q0 -48 19 -80q14 -24 37 -37.5t54 -13.5t54 13.5t37 37.5q19 32 19 80v468h-45v72h170v-72h-45v-468q0 -69 -28 -116q-23 -40 -62 -63q-42 -24 -100 -24t-100 24q-39 23 -62 63q-28 47 -28 116v468h-45v72zM170 949q0 -30 12 -51q10 -17 27 -27 t41 -10t41 10t27 27q12 21 12 51h80q0 -51 -21 -88q-19 -32 -51 -51q-37 -21 -88 -21t-88 21q-32 19 -51 51q-21 37 -21 88h80z" />
<glyph unicode="&#x16d;" d="M15 530h125v-310q0 -63 23 -104q16 -27 39 -40q21 -12 48 -12t48 12q23 13 39 40q23 41 23 104v238h-45v72h125v-458h45v-72h-125v76q-1 -3 -3 -6q-24 -40 -58 -60q-32 -18 -74 -18t-73 18q-35 20 -58 60q-34 59 -34 150v238h-45v72zM170 744q0 -30 12 -51q10 -17 27 -27 t41 -10t41 10t27 27q12 21 12 51h80q0 -51 -21 -88q-19 -32 -51 -51q-37 -21 -88 -21t-88 21q-32 19 -51 51q-21 37 -21 88h80z" />
<glyph unicode="&#x16e;" d="M15 735h170v-72h-45v-468q0 -48 19 -80q14 -24 37 -37.5t54 -13.5t54 13.5t37 37.5q19 32 19 80v468h-45v72h170v-72h-45v-468q0 -69 -28 -116q-23 -40 -62 -63q-42 -24 -100 -24t-100 24q-39 23 -62 63q-28 47 -28 116v468h-45v72zM167 918q11 19 30 31q22 13 53 13 t53 -13q19 -12 30 -31q13 -21 13 -52t-13 -53q-11 -19 -30 -31q-22 -12 -53 -12t-53 12q-19 12 -30 31q-13 22 -13 53t13 52zM223 839q10 -10 27 -10t27 10t10 27t-10 27t-27 10t-27 -10t-10 -27t10 -27z" />
<glyph unicode="&#x16f;" d="M15 530h125v-310q0 -63 23 -104q16 -27 39 -40q21 -12 48 -12t48 12q23 13 39 40q23 41 23 104v238h-45v72h125v-458h45v-72h-125v76q-1 -3 -3 -6q-24 -40 -58 -60q-32 -18 -74 -18t-73 18q-35 20 -58 60q-34 59 -34 150v238h-45v72zM167 713q11 19 30 31q22 13 53 13 t53 -13q19 -12 30 -31q13 -21 13 -52t-13 -53q-11 -19 -30 -31q-22 -12 -53 -12t-53 12q-19 12 -30 31q-13 22 -13 53t13 52zM223 634q10 -10 27 -10t27 10t10 27t-10 27t-27 10t-27 -10t-10 -27t10 -27z" />
<glyph unicode="&#x170;" d="M15 735h170v-72h-45v-468q0 -48 19 -80q14 -24 37 -37.5t54 -13.5t54 13.5t37 37.5q19 32 19 80v468h-45v72h170v-72h-45v-468q0 -69 -28 -116q-23 -40 -62 -63q-42 -24 -100 -24t-100 24q-39 23 -62 63q-28 47 -28 116v468h-45v72zM232 975l66 -52l-145 -155l-55 43z M402 975l66 -52l-145 -155l-55 43z" />
<glyph unicode="&#x171;" d="M15 530h125v-310q0 -63 23 -104q16 -27 39 -40q21 -12 48 -12t48 12q23 13 39 40q23 41 23 104v238h-45v72h125v-458h45v-72h-125v76q-1 -3 -3 -6q-24 -40 -58 -60q-32 -18 -74 -18t-73 18q-35 20 -58 60q-34 59 -34 150v238h-45v72zM232 770l66 -52l-145 -155l-55 43z M402 770l66 -52l-145 -155l-55 43z" />
<glyph unicode="&#x172;" d="M15 735h170v-72h-45v-468q0 -48 19 -80q14 -24 37 -37.5t54 -13.5t54 13.5t37 37.5q19 32 19 80v468h-45v72h170v-72h-45v-468q0 -69 -28 -116q-23 -40 -62 -63q-42 -24 -100 -24t-100 24q-39 23 -62 63q-28 47 -28 116v468h-45v72zM136 -34q14 24 39 38q33 19 75 19v-31 q-22 0 -35 -14q-13 -12 -12 -28q-1 -16 11 -28q17 -17 61 -17h60v-79h-60q-70 0 -103 19q-23 13 -36 35q-11 20 -11 42.5t11 43.5z" />
<glyph unicode="&#x173;" d="M15 530h125v-310q0 -63 23 -104q16 -27 39 -40q21 -12 48 -12t48 12q23 13 39 40q23 41 23 104v238h-45v72h125v-458h45v-72h-125v76q-1 -3 -3 -6q-24 -40 -58 -60q-32 -18 -74 -18t-73 18q-35 20 -58 60q-34 59 -34 150v238h-45v72zM290 -34q14 24 39 38q33 19 75 19 v-31q-22 0 -35 -14q-13 -12 -12 -28q-1 -16 11 -28q17 -17 61 -17h60v-79h-60q-70 0 -103 19q-23 13 -36 35q-11 20 -11 42.5t11 43.5z" />
<glyph unicode="&#x174;" d="M15 735h170v-72h-45v-112q0 -134 25 -410l60 300h50l60 -300q25 276 25 410v112h-45v72h170v-72h-45v-112q0 -167 -77 -551h-51l-62 314l-62 -314h-51q-77 384 -77 551v112h-45v72zM206 972h88l130 -151l-69 -49l-105 141l-105 -141l-69 49z" />
<glyph unicode="&#x175;" d="M15 530h170v-72h-45v-60q0 -96 24 -296l61 216h50l61 -216q24 200 24 296v60h-45v72h170v-72h-45v-60q0 -121 -77 -398h-51l-62 227l-62 -227h-51q-77 277 -77 398v60h-45v72zM206 767h88l130 -151l-69 -49l-105 141l-105 -141l-69 49z" />
<glyph unicode="&#x176;" d="M15 735h170v-72h-44q6 -89 54 -181l55 -105l55 105q48 92 54 181h-44v72h170v-72h-46q-7 -106 -64 -214l-85 -162v-215h45v-72h-170v72h45v215l-85 162q-57 108 -64 214h-46v72zM206 972h88l130 -151l-69 -49l-105 141l-105 -141l-69 49z" />
<glyph unicode="&#x177;" d="M15 530h170v-72h-42q7 -38 25 -95l82 -249l82 249q18 57 25 95h-42v72h170v-72h-47q-7 -49 -30 -118l-152 -443q-13 -35 -21 -51q-15 -25 -37 -38q-23 -13 -66 -13h-42v72h42q23 0 34 11q9 9 19 40l26 79l-119 343q-23 68 -30 118h-47v72zM206 767h88l130 -151l-69 -49 l-105 141l-105 -141l-69 49z" />
<glyph unicode="&#x178;" d="M15 735h170v-72h-44q6 -89 54 -181l55 -105l55 105q48 92 54 181h-44v72h170v-72h-46q-7 -106 -64 -214l-85 -162v-215h45v-72h-170v72h45v215l-85 162q-57 108 -64 214h-46v72zM88 890q-1 20 8 34q7 13 20.5 21t33.5 8t33.5 -8t20.5 -21q8 -13 9 -34q-1 -21 -9 -34 q-7 -13 -20.5 -20.5t-33.5 -8t-33.5 7.5t-20.5 21q-9 14 -8 34zM288 890q-1 20 8 34q7 13 20.5 21t33.5 8t33.5 -8t20.5 -21q8 -13 9 -34q-1 -21 -9 -34q-7 -13 -20.5 -20.5t-33.5 -8t-33.5 7.5t-20.5 21q-9 14 -8 34z" />
<glyph unicode="&#x179;" d="M60 72l288 591h-208v-73h-80v145h380v-72l-288 -591h208v73h80v-145h-380v72zM317 975l66 -52l-145 -155l-55 43z" />
<glyph unicode="&#x17a;" d="M60 72l284 386h-204v-73h-80v145h380v-72l-284 -386h204v73h80v-145h-380v72zM317 770l66 -52l-145 -155l-55 43z" />
<glyph unicode="&#x17b;" d="M60 72l288 591h-208v-73h-80v145h380v-72l-288 -591h208v73h80v-145h-380v72zM188 890q-1 20 8 34q7 13 20.5 21t33.5 8t33.5 -8t20.5 -21q8 -13 9 -34q-1 -21 -9 -34q-7 -13 -20.5 -20.5t-33.5 -8t-33.5 7.5t-20.5 21q-9 14 -8 34z" />
<glyph unicode="&#x17c;" d="M60 72l284 386h-204v-73h-80v145h380v-72l-284 -386h204v73h80v-145h-380v72zM188 685q-1 20 8 34q7 13 20.5 21t33.5 8t33.5 -8t20.5 -21q8 -13 9 -34q-1 -21 -9 -34q-7 -13 -20.5 -20.5t-33.5 -8t-33.5 7.5t-20.5 21q-9 14 -8 34z" />
<glyph unicode="&#x17d;" d="M60 72l288 591h-208v-73h-80v145h380v-72l-288 -591h208v73h80v-145h-380v72zM145 974l105 -141l105 141l69 -50l-130 -150h-88l-130 150z" />
<glyph unicode="&#x17e;" d="M60 72l284 386h-204v-73h-80v145h380v-72l-284 -386h204v73h80v-145h-380v72zM145 769l105 -141l105 141l69 -50l-130 -150h-88l-130 150z" />
<glyph unicode="&#x17f;" d="M84 72h63v468q0 73 29 123q22 39 58 59.5t84.5 20.5t83.5 -21q36 -20 58 -59q22 -36 27 -83l-78 -16q-3 36 -19 63q-13 23 -32 34q-18 10 -40 10t-39 -10q-20 -11 -32 -33q-20 -34 -20 -88v-468h105v-72h-248v72z" />
<glyph unicode="&#x180;" d="M15 72h45v514h-42v72h42v5h-45v72h125v-77h110v-72h-110v-132q1 3 3 6q24 40 58 60q32 18 75 18q48 0 85 -21q38 -22 62 -64q33 -57 33 -143v-90q0 -86 -33 -143q-24 -42 -62 -64q-37 -21 -85 -21q-43 0 -75 18q-34 20 -58 60q-2 3 -3 6v-76h-125v72zM140 310v-90 q0 -63 23 -104q16 -27 39 -40q21 -12 49 -12q34 0 59 15q26 15 44 44q22 39 22 97v90q0 58 -22 97q-18 29 -44 44q-25 15 -59 15q-28 0 -49 -12q-23 -13 -39 -40q-23 -41 -23 -104z" />
<glyph unicode="&#x181;" d="M-10 690q14 24 33 36q17 9 37 9h175q61 0 104 -25q39 -22 61 -62q26 -44 26 -106q0 -55 -22 -93q-22 -37 -59 -59q-5 -3 -11 -5q18 -7 33 -16q42 -24 65.5 -64.5t23.5 -96.5q0 -64 -27 -110q-24 -43 -68 -68q-52 -30 -126 -30h-220v72h45v598q-4 0 -7 -3 q-18 -18 -18 -102h-72q0 79 27 125zM235 418q33 0 58 14q22 14 36 37q17 30 17 72t-17 71q-13 24 -36 37q-25 14 -58 14h-95v-245h95zM235 72q46 0 79 19q28 16 44 44q18 31 18 74t-18 74q-16 28 -44 44q-33 19 -79 19h-95v-274h95z" />
<glyph unicode="&#x182;" d="M15 72h45v591h-45v72h387v-145h-80v73h-182v-223h102q67 0 115 -28q44 -24 70 -69q29 -51 29 -122.5t-29 -123.5q-26 -44 -70 -69q-48 -28 -115 -28h-227v72zM242 72q40 0 69 17q28 16 45 45q20 36 20 86.5t-20 85.5q-17 30 -45 45q-29 17 -69 17h-102v-296h102z" />
<glyph unicode="&#x183;" d="M15 72h45v591h-45v72h387v-145h-80v73h-182v-209q1 3 3 6q24 40 58 60q32 18 75 18q48 0 85 -21q38 -22 62 -64q33 -57 33 -143v-90q0 -86 -33 -143q-24 -42 -62 -64q-37 -21 -85 -21q-43 0 -75 18q-34 20 -58 60q-2 3 -3 6v-76h-125v72zM140 310v-90q0 -63 23 -104 q16 -27 39 -40q21 -12 49 -12q34 0 59 15q26 15 44 44q22 39 22 97v90q0 58 -22 97q-18 29 -44 44q-25 15 -59 15q-28 0 -49 -12q-23 -13 -39 -40q-23 -41 -23 -104z" />
<glyph unicode="&#x184;" d="M60 735h80v-295h102q67 0 115 -28q44 -24 70 -69q29 -51 29 -122.5t-29 -123.5q-26 -44 -70 -69q-48 -28 -115 -28h-227v72h45v519l-72 72zM242 72q40 0 69 17q28 16 45 45q20 36 20 86.5t-20 85.5q-17 30 -45 45q-29 17 -69 17h-102v-296h102z" />
<glyph unicode="&#x185;" d="M60 735h80v-281q1 3 3 6q24 40 58 60q32 18 75 18q48 0 85 -21q38 -22 62 -64q33 -57 33 -143v-90q0 -86 -33 -143q-24 -42 -62 -64q-37 -21 -85 -21q-43 0 -75 18q-34 20 -58 60q-2 3 -3 6v-76h-125v72h45v519l-72 72zM140 310v-90q0 -63 23 -104q16 -27 39 -40 q21 -12 49 -12q34 0 59 15q26 15 44 44q22 39 22 97v90q0 58 -22 97q-18 29 -44 44q-25 15 -59 15q-28 0 -49 -12q-23 -13 -39 -40q-23 -41 -23 -104z" />
<glyph unicode="&#x186;" d="M133 169q4 -28 17 -49q14 -26 40 -40q27 -16 64 -16t64 16q25 14 40 40q18 31 18 75v345q0 44 -18 75q-15 26 -40 40q-27 16 -64 16t-64 -16q-26 -14 -40 -40q-13 -21 -17 -49l-78 14q5 39 24 72q24 41 65 64q46 27 110 27t111 -27q40 -23 64 -64q27 -47 27 -112v-345 q0 -65 -27 -112q-24 -41 -64 -64q-47 -27 -111 -27t-110 27q-41 23 -65 64q-19 33 -24 72z" />
<glyph unicode="&#x187;" d="M44 540q0 65 27 112q24 41 64 64q47 27 111 27t110 -27q5 -2 9 -5v24q0 57 24 99q23 40 64 63q50 29 122 29v-72q-45 0 -75 -18q-25 -14 -40 -39q-15 -26 -15 -62v-155l-78 -14q-4 28 -17 49q-14 26 -40 40q-27 16 -64 16t-64 -16q-25 -14 -40 -40q-18 -31 -18 -75v-345 q0 -44 18 -75q15 -26 40 -40q27 -16 64 -16t64 16q26 14 40 40q13 21 17 49l78 -14q-5 -39 -24 -72q-24 -41 -65 -64q-46 -27 -110 -27t-111 27q-40 23 -64 64q-27 47 -27 112v345z" />
<glyph unicode="&#x188;" d="M44 220v90q0 79 32 134q25 44 67 69q45 25 104.5 25t104.5 -25q7 -4 13 -9v26q0 57 24 99q23 40 64 63q50 29 122 29v-72q-45 0 -75 -18q-25 -14 -40 -39q-15 -26 -15 -62v-155l-76 -22q-5 30 -19 54q-17 29 -43 44t-60 15q-33 0 -58.5 -15t-41.5 -43q-23 -39 -23 -98 v-90q0 -59 23 -98q16 -28 41.5 -43t58.5 -15q34 0 60 15t43 44q14 24 19 54l76 -22q-8 -38 -26 -69q-25 -44 -67 -69q-45 -25 -104.5 -25t-104.5 25q-42 25 -67 69q-32 55 -32 134z" />
<glyph unicode="&#x189;" d="M15 72h45v274h-42v72h42v245h-45v72h210q67 0 118 -29q47 -27 76 -78q37 -63 37 -156v-209q0 -93 -37 -156q-29 -51 -76 -78q-51 -29 -118 -29h-210v72zM225 72q41 0 72 18t51 53q28 48 28 120v209q0 72 -28 120q-20 35 -51 53t-72 18h-85v-245h122v-72h-122v-274h85z " />
<glyph unicode="&#x18a;" d="M-10 690q14 24 33 36q17 9 37 9h165q67 0 118 -29q47 -27 76 -78q37 -63 37 -156v-209q0 -93 -37 -156q-29 -51 -76 -78q-51 -29 -118 -29h-210v72h45v598q-4 0 -7 -3q-18 -18 -18 -102h-72q0 79 27 125zM225 72q41 0 72 18t51 53q28 48 28 120v209q0 72 -28 120 q-20 35 -51 53t-72 18h-85v-591h85z" />
<glyph unicode="&#x18b;" d="M82 346q25 43 67 68q46 26 109 26h102v223h-182v-73h-80v145h387v-72h-45v-591h45v-72h-227q-63 0 -109 27q-42 24 -67 68q-30 51 -30 125t30 126zM153 131q16 -28 42 -43q27 -16 63 -16h102v296h-102q-36 0 -63 -15q-26 -15 -42 -44q-21 -36 -21 -89t21 -89z" />
<glyph unicode="&#x18c;" d="M77 453q24 42 62 64q37 21 85 21q43 0 75 -18q34 -20 58 -60q2 -3 3 -6v209h-182v-73h-80v145h342v-663h45v-72h-125v76q-1 -3 -3 -6q-24 -40 -58 -60q-32 -18 -75 -18q-48 0 -85 21q-38 22 -62 64q-33 57 -33 143v90q0 86 33 143zM146 123q18 -29 44 -44q25 -15 59 -15 q28 0 49 12q23 13 39 40q23 41 23 104v90q0 63 -23 104q-16 27 -39 40q-21 12 -49 12q-34 0 -59 -15q-26 -15 -44 -44q-22 -39 -22 -97v-90q0 -58 22 -97z" />
<glyph unicode="&#x18d;" d="M74 444q25 43 67 68q46 26 109 26t109 -26q42 -25 67 -68q30 -52 30 -125v-87q0 -59 -25 -102q-23 -39 -63 -63q-4 -2 -9 -4q27 -16 43 -44q20 -34 19 -76q1 -45 -21 -83q-19 -32 -50 -51q-39 -22 -91 -22q-80 0 -170 49v72q92 -49 161 -49q32 0 54 13q17 9 26 26 q12 20 11 43q1 23 -10 41q-8 15 -23 23.5t-54 15.5q-84 13 -126 37q-40 24 -61 60q-23 40 -23 114v87q0 73 30 125zM124 319v-87q0 -50 15 -77q15 -25 40 -39.5t89 -25.5q16 -3 30 -6q7 2 13 6q26 15 42 44q23 39 23 98v87q0 53 -21 88q-16 28 -42.5 43.5t-62.5 15.5 t-62.5 -15.5t-42.5 -43.5q-21 -35 -21 -88z" />
<glyph unicode="&#x18e;" d="M60 145h80v-73h190v245h-195v72h195v274h-190v-73h-80v145h395v-72h-45v-591h45v-72h-395v145z" />
<glyph unicode="&#x18f;" d="M44 220v184h332v111q0 56 -22 95q-17 30 -44.5 45.5t-65 15.5t-65.5 -16q-27 -16 -45 -46q-9 -17 -13 -32l-74 28q7 21 18 41q26 45 70 70q46 27 110 27t110 -27q43 -25 70 -69q31 -55 31 -132v-295q0 -79 -32 -133q-25 -44 -68 -69q-45 -26 -106 -26t-106 26 q-43 25 -68 69q-32 54 -32 133zM146 123q18 -29 44 -44q25 -15 60 -15t60 15q26 15 44 44q22 39 22 97v112h-252v-112q0 -58 22 -97z" />
<glyph unicode="&#x190;" d="M61 306q23 41 65 65q12 7 25 12l-16 8q-39 23 -60 60q-23 39 -23 94q0 63 26 108q23 40 63 64q46 26 110 26q66 0 112 -26q38 -23 60 -61q9 -14 14 -31l-74 -27q-3 11 -9 21q-13 23 -36 36q-28 16 -67 16q-37 0 -63 -15q-24 -14 -39 -39q-17 -30 -17 -72.5t17 -72.5 q15 -25 39 -39q26 -15 62 -15h57v-72h-57q-41 0 -72 -17q-27 -16 -43 -44q-19 -33 -19 -79.5t19 -79.5q16 -28 44 -44q31 -18 74 -18q46 0 77 18q27 16 43 43q4 8 7 15l73 -30q-5 -12 -11 -23q-24 -42 -67 -66q-49 -29 -122 -29q-71 0 -120 29q-44 25 -69 69q-28 48 -28 115 q0 59 25 101z" />
<glyph unicode="&#x191;" d="M-40 -119q45 0 75 18q25 14 40 39q15 26 15 62v663h-45v72h395v-145h-80v73h-190v-245h195v-72h-195v-346q0 -57 -24 -99q-23 -40 -64 -63q-50 -29 -122 -29v72z" />
<glyph unicode="&#x192;" d="M75 500h135v80q0 78 23 117q19 33 52 53q44 25 135 25v-72q-55 0 -83 -16q-21 -12 -32 -32q-15 -25 -15 -75v-80h135v-72h-135v-428q0 -78 -23 -117q-19 -33 -52 -53q-44 -25 -135 -25v72q55 0 83 16q21 12 32 32q15 25 15 75v428h-135v72z" />
<glyph unicode="&#x193;" d="M44 195v345q0 65 27 112q24 41 64 64q47 27 111 27t110 -27q5 -2 9 -5v24q0 57 24 99q23 40 64 63q50 29 122 29v-72q-45 0 -75 -18q-25 -14 -40 -39q-15 -26 -15 -62v-155l-78 -14q-4 28 -17 49q-14 26 -40 40q-27 16 -64 16t-64 -16q-25 -14 -40 -40q-18 -31 -18 -75 v-345q0 -44 18 -74q14 -26 40 -41q29 -16 67 -16q32 0 55 13.5t37 37.5q19 32 19 80v133h-110v72h190v-205q0 -69 -28 -116q-23 -40 -62 -63q-42 -24 -101 -24q-66 0 -113 27q-42 24 -65 65q-27 46 -27 111z" />
<glyph unicode="&#x194;" d="M132 735q71 -194 118 -351q47 157 118 351h80q-105 -284 -160 -486q59 -225 59 -355q1 -34 -11 -56q-12 -19 -31 -30q-23 -13 -55 -13t-55 13q-19 11 -31 30q-12 22 -11 56q0 129 58 353q-54 205 -159 488h80zM236 -131q5 -5 14 -5t14 5q7 7 7 23q0 79 -22 192 q-18 -94 -19 -162q0 -3 -1 -16v-14q0 -16 7 -23z" />
<glyph unicode="&#x195;" d="M28 72h24v591h-24v72h104v-226q10 12 23 19q17 10 40 10t40 -10q20 -11 34 -35q21 -37 21 -95v-266q0 -42 18 -59q8 -9 21 -9t21 9q18 17 18 59v398h80v-398q0 -50 -20 -85q-15 -26 -40 -40.5t-59 -14.5t-59 14.5t-40 40.5q-20 35 -20 85v266q0 42 -18 59q-8 9 -21 9 t-21 -9q-18 -17 -18 -59v-326h24v-72h-128v72z" />
<glyph unicode="&#x196;" d="M75 735h215v-580q0 -27 11 -47q10 -17 26 -26q17 -10 42 -10h65v-72h-65q-52 0 -89 21q-31 19 -50 50q-20 36 -20 84v508h-135v72z" />
<glyph unicode="&#x197;" d="M110 72h100v591h-100v72h280v-72h-100v-591h100v-72h-280v72zM119 418h262v-72h-262v72z" />
<glyph unicode="&#x198;" d="M60 544q0 57 24 99q23 40 64 63q50 29 122 29v-72q-45 0 -75 -18q-25 -14 -40 -39q-15 -26 -15 -62v-156q128 188 170 261q38 65 38 86h32h105v-72h-74q-6 -10 -12 -21q-33 -58 -118 -184q113 -272 150 -386h54v-72h-85h-32q0 50 -139 380q-40 -59 -89 -130v-250h-80v544 z" />
<glyph unicode="&#x199;" d="M60 544q0 57 24 99q23 40 64 63q50 29 122 29v-72q-45 0 -75 -18q-25 -14 -40 -39q-15 -26 -15 -62v-255q177 182 204 228q4 7 4 13h32h105v-72h-92q-39 -48 -111 -126q101 -175 140 -260h63v-72h-85h-32q0 30 -99 201q-19 33 -42 72q-40 -43 -87 -92v-181h-80v544z" />
<glyph unicode="&#x19a;" d="M186 155v580h79v-580q1 -30 13 -50q10 -18 29 -29q21 -12 51 -12q35 0 67 16v-72q-29 -16 -67 -16q-57 0 -98 23q-35 20 -53 53q-22 37 -21 87zM94 418h262v-72h-262v72z" />
<glyph unicode="&#x19b;" d="M94 201l114 328l-36 104q-12 35 -12 95v7h80v-7q0 -49 8 -71l158 -456q34 -99 34 -164v-37h-80v37q0 54 -30 140l-80 231l-80 -231q-30 -86 -30 -140v-37h-80v37q0 65 34 164zM347 616l36 -64l-280 -140l-36 64z" />
<glyph unicode="&#x19c;" d="M15 735h117v-570q0 -71 23 -94q7 -7 16 -7t16 7q23 23 23 94v570h80v-570q0 -71 23 -94q7 -7 16 -7t16 7q23 23 23 94v570h117v-72h-37v-591h37v-72h-117v34q-13 -23 -32 -34q-14 -8 -32.5 -8t-33.5 9q-19 11 -33 35q-8 13 -13 29q-6 -17 -14 -31q-13 -23 -32 -34 q-14 -8 -32.5 -8t-33.5 9q-19 11 -33 35q-27 47 -27 129v498h-37v72z" />
<glyph unicode="&#x19d;" d="M-70 -119q45 0 75 18q25 14 40 39q15 26 15 62v663h-45v72h156l192 -601q0 27 -1 79q-1 112 -2 168v60v222h-45v72h170v-72h-45v-663h-111l-192 600q0 -43 1 -100q2 -117 2 -206v-294q0 -57 -24 -99q-23 -40 -64 -63q-50 -29 -122 -29v72z" />
<glyph unicode="&#x19e;" d="M15 72h45v386h-45v72h125v-76q1 3 3 6q24 40 58 60q32 18 74 18t73 -18q35 -20 58 -60q34 -59 34 -150v-443h45v-72h-170v72h45v443q0 63 -23 104q-16 27 -39 40q-21 12 -48 12t-48 -12q-23 -13 -39 -40q-23 -41 -23 -104v-238h45v-72h-170v72z" />
<glyph unicode="&#x19f;" d="M44 195v345q0 65 27 111q23 41 65 65q47 27 114 27t114 -27q42 -24 65 -65q27 -46 27 -111v-345q0 -65 -27 -111q-23 -41 -65 -65q-47 -27 -114 -27t-114 27q-42 24 -65 65q-27 46 -27 111zM142 121q15 -26 41 -41q27 -16 67 -16t67 16q26 15 41 41q18 31 18 74v137h-252 v-137q0 -43 18 -74zM124 540v-136h252v136q0 43 -18 74q-15 26 -41 41q-27 16 -67 16t-67 -16q-26 -15 -41 -41q-18 -31 -18 -74z" />
<glyph unicode="&#x1a0;" d="M404 732q21 12 33 29q-10 3 -18 11q-14 14 -14 39t14 39q15 15 40 15t39.5 -14.5t14.5 -39.5v-1v-2q0 -39 -19 -70q-18 -32 -56 -54q-32 -19 -69 -28l-15 55q27 7 50 21zM44 195v345q0 65 27 111q23 41 65 65q47 27 114 27t114 -27q42 -24 65 -65q27 -46 27 -111v-345 q0 -65 -27 -111q-23 -41 -65 -65q-47 -27 -114 -27t-114 27q-42 24 -65 65q-27 46 -27 111zM142 121q15 -26 41 -41q27 -16 67 -16t67 16q26 15 41 41q18 31 18 74v345q0 43 -18 74q-15 26 -41 41q-27 16 -67 16t-67 -16q-26 -15 -41 -41q-18 -31 -18 -74v-345q0 -43 18 -74 z" />
<glyph unicode="&#x1a1;" d="M404 528q21 12 33 29q-10 3 -18 11q-14 14 -14 39t14 39q15 15 40 15t39.5 -14.5t14.5 -39.5v-1v-2q0 -39 -19 -70q-18 -32 -56 -54q-32 -19 -69 -28l-15 55q27 7 50 21zM44 220v90q0 79 32 133q25 44 68 69q45 26 106 26t106 -26q43 -25 68 -69q32 -54 32 -133v-90 q0 -79 -32 -133q-25 -44 -68 -69q-45 -26 -106 -26t-106 26q-43 25 -68 69q-32 54 -32 133zM146 123q18 -29 44 -44q25 -15 60 -15t60 15q26 15 44 44q22 39 22 97v90q0 58 -22 97q-18 29 -44 44q-25 15 -60 15t-60 -15q-26 -15 -44 -44q-22 -39 -22 -97v-90q0 -58 22 -97z " />
<glyph unicode="&#x1a2;" d="M36 132v471q0 46 19 79q16 28 44 44q30 17 72 17t72 -17q28 -16 44 -44l2 -4q43 8 70 35q10 11 17 22h80v-940h-80v837l-4 -2q-28 -16 -66 -23v-4v-471q0 -46 -19 -79q-16 -28 -44 -44q-30 -17 -72 -17t-72 17q-28 16 -44 44q-19 33 -19 79zM135 78q14 -14 36 -14t36 14 q19 19 19 54v471q0 35 -19 54q-14 14 -36 14t-36 -14q-19 -19 -19 -54v-471q0 -35 19 -54z" />
<glyph unicode="&#x1a3;" d="M36 132v266q0 46 19 79q16 28 44 44q30 17 72 17t72 -17q28 -16 44 -44l2 -4q43 8 70 35q10 11 17 22h80v-735h-80v632l-4 -2q-28 -16 -66 -23v-4v-266q0 -46 -19 -79q-16 -28 -44 -44q-30 -17 -72 -17t-72 17q-28 16 -44 44q-19 33 -19 79zM135 78q14 -14 36 -14t36 14 q19 19 19 54v266q0 35 -19 54q-14 14 -36 14t-36 -14q-19 -19 -19 -54v-266q0 -35 19 -54z" />
<glyph unicode="&#x1a4;" d="M5 690q14 24 33 36q17 9 37 9h176q65 0 111 -27q42 -24 66 -66q28 -48 28 -116.5t-28 -117.5q-24 -42 -66 -66q-46 -27 -111 -27h-96v-243h45v-72h-170v72h45v598q-4 0 -7 -3q-18 -18 -18 -102h-72q0 79 27 125zM251 387q37 0 65 16q25 15 41 42q19 33 19 80.5t-19 79.5 q-16 27 -41 42q-28 16 -65 16h-96v-276h96z" />
<glyph unicode="&#x1a5;" d="M15 -133h45v648q0 81 32 137q25 44 66 67.5t97 23.5t98 -24q40 -23 66 -67q19 -33 26 -72l-76 -23q-5 33 -20 59q-16 28 -41 42q-23 13 -53 13q-29 0 -52 -13q-24 -14 -40 -42q-23 -40 -23 -101v-61q1 3 3 6q24 40 58 60q32 18 75 18q48 0 85 -21q38 -22 62 -64 q33 -57 33 -143v-90q0 -86 -33 -143q-24 -42 -62 -64q-37 -21 -85 -21q-43 0 -75 18q-34 20 -58 60q-2 3 -3 6v-209h45v-72h-170v72zM140 310v-90q0 -63 23 -104q16 -27 39 -40q21 -12 49 -12q34 0 59 15q26 15 44 44q22 39 22 97v90q0 58 -22 97q-18 29 -44 44 q-25 15 -59 15q-28 0 -49 -12q-23 -13 -39 -40q-23 -41 -23 -104z" />
<glyph unicode="&#x1a6;" d="M15 72h45v481h-45v72h45v110h80v-110h115q63 0 109 -27q40 -23 65 -65q27 -47 27 -114t-27 -115q-25 -42 -65 -65q-23 -13 -52 -20q140 -252 140 -424h-80q0 165 -140 408l-6 10h-86v-141h45v-72h-170v72zM255 285q36 0 63 15q24 14 40 41q18 32 18 77.5t-18 78.5 q-16 26 -40 40q-27 16 -63 16h-115v-268h115z" />
<glyph unicode="&#x1a7;" d="M134 716q47 27 113 27q62 0 106 -26q39 -22 62 -61q25 -44 25 -97q0 -55 -29 -105q-35 -61 -146 -125q-82 -46 -107 -89q-18 -32 -18 -64.5t15 -60.5q14 -23 37 -36q25 -15 61 -15q39 0 66 16q23 13 35 34t12 45v7l79 -11v-2q0 -40 -21 -76.5t-58 -57.5q-47 -27 -113 -27 q-62 0 -106 26q-39 22 -62 61q-25 44 -25 97q0 55 29 105q35 61 146 125q82 46 107 89q18 32 18 64.5t-15 60.5q-14 23 -37 36q-25 15 -61 15q-39 0 -66 -16q-23 -13 -35 -34t-12 -45v-7l-79 11v2q0 40 21 76.5t58 57.5z" />
<glyph unicode="&#x1a8;" d="M69 451q21 38 60 60q47 27 117 27q75 0 124 -28q35 -21 53 -52q17 -29 17 -65q0 -38 -20 -72q-21 -37 -62 -61q-33 -19 -98 -34q-53 -11 -76 -24.5t-35 -33.5q-9 -16 -9 -33q0 -14 7 -28q9 -15 27 -25q31 -18 80 -18q44 0 71 16q23 13 37 36q5 9 8 18l75 -24 q-5 -17 -14 -31q-21 -38 -60 -60q-47 -27 -117 -27q-75 0 -124 28q-35 21 -53 52q-17 29 -17 65q0 38 20 72q21 37 62 61q33 19 98 34q53 11 76 24.5t35 33.5q9 16 9 33q0 14 -7 28q-9 15 -27 25q-31 18 -80 18q-44 0 -71 -16q-23 -13 -37 -36q-5 -9 -8 -18l-75 24 q5 17 14 31z" />
<glyph unicode="&#x1a9;" d="M60 72l152 296l-152 295v72h380v-145h-80v73h-217l152 -295l-152 -296h217v73h80v-145h-380v72z" />
<glyph unicode="&#x1aa;" d="M88 687q12 22 34 34q24 14 60 14t61 -15q21 -12 34 -33q13 -24 13 -55v-632q0 -36 15 -62q15 -25 40 -39q30 -18 75 -18v-72q-72 0 -122 29q-41 23 -64 63q-24 42 -24 99v532q-13 -3 -29 -3q-35 0 -59 14q-22 13 -34 34q-14 23 -13 55q-1 32 13 55zM160 606q8 -8 21 -8 t22 8q5 5 7 12v14q0 17 -9 27q-8 7 -20.5 7t-20.5 -8q-9 -9 -9 -26t9 -26z" />
<glyph unicode="&#x1ab;" d="M51 530h109v205h80v-205h161v-72h-161v-264q0 -55 20 -90q12 -21 30 -31q16 -9 36 -9t35 9q8 4 16 12q25 25 32 70q1 8 2 17l78 -17v-155q0 -57 -24 -99q-23 -40 -64 -63q-50 -29 -122 -29v72q45 0 75 18q26 14 40 39q15 26 15 62v14l-4 -2q-33 -20 -79.5 -20t-79.5 20 q-35 20 -57 57q-29 51 -29 125v264h-109v72z" />
<glyph unicode="&#x1ac;" d="M87 690q13 24 33 36q17 9 37 9h291v-145h-80v73h-78v-591h65v-72h-210v72h65v598h-53q-4 0 -7 -3q-18 -18 -18 -102h-72q0 79 27 125z" />
<glyph unicode="&#x1ad;" d="M51 530h109q0 57 24 99q23 40 64 63q50 29 122 29v-72q-45 0 -75 -18q-25 -14 -40 -39q-15 -26 -15 -62h161v-72h-161v-264q0 -55 20 -90q12 -21 30 -31q16 -9 36 -9t35 9q8 4 16 12q29 30 34 87l78 -17q-5 -48 -27 -85.5t-57 -57.5q-33 -20 -79.5 -20t-79.5 20 q-35 20 -57 57q-29 51 -29 125v264h-109v72z" />
<glyph unicode="&#x1ae;" d="M52 735h396v-145h-80v73h-78v-663q0 -47 14 -71q12 -21 32 -32q27 -16 84 -16v-72q-92 0 -136 25q-33 19 -52 52q-22 39 -22 114v663h-78v-73h-80v145z" />
<glyph unicode="&#x1af;" d="M15 735h170v-72h-45v-468q0 -48 19 -80q14 -24 37 -37.5t54 -13.5t54 13.5t37 37.5q19 32 19 80v468h-45v72h170v-72h-45v-468q0 -69 -28 -116q-23 -40 -62 -63q-42 -24 -100 -24t-100 24q-39 23 -62 63q-28 47 -28 116v468h-45v72zM404 732q21 12 33 29q-10 3 -18 11 q-14 14 -14 39t14 39q15 15 40 15t39.5 -14.5t14.5 -39.5v-1v-2q0 -39 -19 -70q-18 -32 -56 -54q-32 -19 -69 -28l-15 55q27 7 50 21z" />
<glyph unicode="&#x1b0;" d="M15 530h125v-310q0 -63 23 -104q16 -27 39 -40q21 -12 48 -12t48 12q23 13 39 40q23 41 23 104v238h-45v72h125v-458h45v-72h-125v76q-1 -3 -3 -6q-24 -40 -58 -60q-32 -18 -74 -18t-73 18q-35 20 -58 60q-34 59 -34 150v238h-45v72zM404 528q21 12 33 29q-10 3 -18 11 q-14 14 -14 39t14 39q15 15 40 15t39.5 -14.5t14.5 -39.5v-1v-2q0 -39 -19 -70q-18 -32 -56 -54q-32 -19 -69 -28l-15 55q27 7 50 21z" />
<glyph unicode="&#x1b1;" d="M60 195v286q0 63 25 106q19 34 51 52q8 5 16 8v16h-92v72h152v-131h-3q-13 0 -24 -7q-15 -8 -26 -27q-19 -33 -19 -89v-286q0 -48 19 -80q14 -24 37 -37.5t54 -13.5t54 13.5t37 37.5q19 32 19 80v286q0 56 -19 89q-11 19 -26 27q-11 7 -24 7h-3v131h152v-72h-92v-16 q8 -3 16 -8q32 -18 51 -52q25 -43 25 -106v-286q0 -69 -28 -116q-23 -40 -62 -63q-42 -24 -100 -24t-100 24q-39 23 -62 63q-28 47 -28 116z" />
<glyph unicode="&#x1b2;" d="M60 735h80v-540q0 -48 19 -80q14 -24 37 -37.5t54 -13.5t54 13.5t37 37.5q19 32 19 80v349q0 40 -16 69q-14 23 -36 36q-25 14 -58 14v72q61 0 104 -25q38 -22 61 -61q25 -44 25 -105v-349q0 -69 -28 -116q-23 -40 -62 -63q-42 -24 -100 -24t-100 24q-39 23 -62 63 q-28 47 -28 116v540z" />
<glyph unicode="&#x1b3;" d="M15 735h170v-72h-44q6 -89 54 -181l49 -93q28 77 60 202q12 47 25 70q20 34 51 52q39 22 117 22v-72q-45 0 -68 -13q-19 -12 -31 -32q-9 -15 -17 -47q-48 -190 -91 -277v-222h45v-72h-170v72h45v215l-85 162q-57 108 -64 214h-46v72z" />
<glyph unicode="&#x1b4;" d="M15 530h170v-72h-42q7 -38 25 -95l82 -249l82 249q18 56 33 81q24 42 61 63q39 23 114 23v-72q-44 0 -67.5 -13.5t-38.5 -40.5q-11 -18 -26 -64l-152 -443q-13 -35 -21 -51q-15 -25 -37 -38q-23 -13 -66 -13h-42v72h42q23 0 34 11q9 9 19 40l26 79l-119 343 q-23 68 -30 118h-47v72z" />
<glyph unicode="&#x1b5;" d="M60 72l288 591h-208v-73h-80v145h380v-72l-288 -591h208v73h80v-145h-380v72zM119 418h262v-72h-262v72z" />
<glyph unicode="&#x1b6;" d="M60 72l284 386h-204v-73h-80v145h380v-72l-284 -386h204v73h80v-145h-380v72zM119 311h262v-72h-262v72z" />
<glyph unicode="&#x1b7;" d="M131 178q5 -28 18 -51q16 -27 41 -41q23 -14 54 -14t54 13q25 14 40 41q22 38 22 95.5t-22 95.5q-15 26 -38 39q-22 13 -50 13h-114v72l180 222h-176v-73h-80v145h352v-72l-180 -222h18q54 0 96 -24q39 -22 63 -64q31 -54 31 -131q0 -79 -31 -131q-24 -43 -65 -67 q-42 -24 -99.5 -24t-99.5 24q-41 23 -66 66q-17 31 -24 65z" />
<glyph unicode="&#x1b8;" d="M60 222q0 77 31 131q24 42 63 64q42 24 96 24h18l-179 222v72h351v-145h-80v73h-176l180 -222v-72h-114q-28 0 -50 -13q-23 -13 -38 -39q-22 -38 -22 -95.5t22 -95.5q15 -27 40 -41q23 -13 54 -13t54 14q25 14 41 41q13 23 18 51l76 -23q-7 -34 -24 -65q-25 -43 -66 -66 q-42 -24 -99.5 -24t-99.5 24q-41 24 -65 67q-31 52 -31 131z" />
<glyph unicode="&#x1b9;" d="M60 17q0 77 31 131q24 42 63 64q42 24 96 24h18l-179 222v72h351v-145h-80v73h-176l180 -222v-72h-114q-28 0 -50 -13q-23 -13 -38 -39q-22 -38 -22 -95.5t22 -95.5q15 -27 40 -41q23 -13 54 -13t54 14q25 14 41 41q13 23 18 51l76 -23q-7 -34 -24 -65q-25 -43 -66 -66 q-42 -24 -99.5 -24t-99.5 24q-41 24 -65 67q-31 52 -31 131z" />
<glyph unicode="&#x1ba;" d="M60 530h352v-72l-180 -148h18q67 -1 113 -27q37 -21 56 -55q21 -36 21 -80v-4h-80v3q0 23 -11 44q-12 19 -33 31q-26 15 -66 16h-114v72l180 148h-176v-73h-80v145zM75 -14q16 27 45 43q37 22 92 22h19q51 0 85 19q22 13 34 33q10 18 10 41h80q0 -44 -19 -78 q-21 -35 -59 -57q-52 -30 -131 -30h-19q-38 0 -58 -20q-14 -14 -14 -36t14 -36q20 -20 58 -20h228v-72h-228q-55 0 -92 22q-29 16 -45 43q-15 27 -15 63t15 63z" />
<glyph unicode="&#x1bb;" d="M80 653q23 41 63 64q45 26 107.5 26t106.5 -26q41 -23 64 -63q27 -48 27 -105q0 -59 -33 -116q-29 -52 -119 -127q-87 -73 -119 -127q-24 -43 -33 -107h216v73h80v-145h-380v1q0 136 43 211q36 62 132 138q82 66 108 111q25 44 25 88q0 38 -17 68q-15 25 -39 39 q-26 15 -62 15q-35 0 -61 -15q-24 -14 -39 -39q-13 -23 -17 -51l-78 14q5 40 25 73zM30 418h440v-72h-440v72z" />
<glyph unicode="&#x1bc;" d="M129 181q7 -32 21 -57q18 -31 45 -46q24 -14 56 -14t56 14q26 15 44 45q25 44 25 112q0 70 -26 114q-16 29 -42 44q-23 13 -53.5 13t-53.5 -13q-26 -15 -43 -45q-11 -18 -17 -40l-71 32v395h359v-145h-80v73h-200v-214q4 3 9 5q41 24 97 24t98 -24t68 -70q35 -59 35 -149 q0 -87 -34 -147q-27 -47 -70 -71.5t-101 -24.5t-100.5 24.5t-69.5 70.5q-18 32 -26 68z" />
<glyph unicode="&#x1bd;" d="M134 165v-1q0 -25 13 -47t36 -36q29 -17 72 -17t72 17q23 13 36 35.5t13 53t-13 53t-36 35.5q-29 17 -71.5 17t-71 -16.5t-43.5 -44.5l-71 31v285h359v-145h-80v73h-200v-133q44 22 106 22q70 0 119 -28q39 -22 60 -59q22 -38 22 -90.5t-22 -90.5q-21 -37 -60 -59 q-49 -28 -119.5 -28t-117.5 28q-38 21 -61 60q-20 36 -21 75z" />
<glyph unicode="&#x1be;" d="M55 151v4l80 7q0 -1 -0.5 -3t-0.5 -3q1 -23 12 -43q12 -21 34 -33q27 -16 67 -16q42 0 70 16q21 12 32 31t11 44q0 28 -15 53q-12 22 -51 57q-43 39 -60 68q-7 13 -12 29h-77v72h65v17v79h80v-79v-17h65v-72h-44q14 -22 49 -55q41 -38 57 -66q23 -39 23 -86t-19.5 -81 t-56.5 -55q-47 -27 -116.5 -27t-114.5 26q-38 22 -58 58q-20 34 -20 75z" />
<glyph unicode="&#x1bf;" d="M60 530h80v-40q16 15 35 25q39 23 83 23q49 0 92 -25q41 -23 66 -67q32 -56 32 -129q0 -78 -46 -159q-62 -107 -262 -290v-73h-80v735zM329 184q39 66 39 132q0 55 -23 94q-15 28 -39.5 42t-52.5 14t-55 -15q-29 -17 -46 -47q-8 -14 -12 -28v-405q144 134 189 213z" />
<glyph unicode="&#x1c0;" d="M210 898h80v-1066h-80v1066z" />
<glyph unicode="&#x1c1;" d="M123 898h80v-1066h-80v1066zM297 898h80v-1066h-80v1066z" />
<glyph unicode="&#x1c2;" d="M60 490h380v-72h-380v72zM60 312h380v-72h-380v72zM210 898h80v-1066h-80v1066z" />
<glyph unicode="&#x1c3;" d="M210 735h80v-475h-80v475zM180 63q-1 22 9 38q8 14 22 23q17 9 39 9t39 -9q14 -9 22 -23q9 -15 10 -38q-1 -24 -10 -39q-8 -14 -22 -23q-17 -9 -39 -9t-39 9q-14 9 -22 23q-10 16 -9 39z" />
<glyph unicode="&#x1c4;" d="M310 965l64 -131l63 131l48 -32l-84 -155h-55l-84 155zM1 72h19v591h-19v72h86v-1q38 -3 68 -24q36 -24 59 -73q32 -65 32 -165v-209q0 -100 -32 -165q-23 -49 -59 -73q-30 -21 -68 -24v-1h-86v72zM267 72l136 591h-69v-73h-67v145h213v-72l-136 -591h69v73h67v-145h-213 v72zM118 86q22 15 37 46q25 51 24 131v209q1 80 -24 131q-15 31 -37 46q-14 10 -31 13v-589q17 3 31 13z" />
<glyph unicode="&#x1c5;" d="M310 760l64 -131l63 131l48 -32l-84 -155h-55l-84 155zM1 72h19v591h-19v72h86v-1q38 -3 68 -24q36 -24 59 -73q32 -65 32 -165v-209q0 -100 -32 -165q-23 -49 -59 -73q-30 -21 -68 -24v-1h-86v72zM118 86q22 15 37 46q25 51 24 131v209q1 80 -24 131q-15 31 -37 46 q-14 10 -31 13v-589q17 3 31 13zM267 72l133 386h-66v-73h-67v145h213v-72l-133 -386h66v73h67v-145h-213v72z" />
<glyph unicode="&#x1c6;" d="M310 760l64 -131l63 131l48 -32l-84 -155h-55l-84 155zM7 310q0 114 30 176q14 29 33 42q14 10 31 10q14 0 26 -8q15 -10 26 -35q7 -15 13 -34v202h-20v72h87v-663h20v-72h-87v69q-6 -19 -13 -34q-11 -25 -26 -35q-12 -8 -26 -8q-17 0 -31 10q-19 13 -33 42 q-30 62 -30 176v90zM267 72l133 386h-66v-73h-67v145h213v-72l-133 -386h66v73h67v-145h-213v72zM94 91q7 -15 17 -22q7 -5 14 -5q10 0 16 8q25 30 25 148v90q0 118 -25 148q-6 8 -16 8q-7 0 -14 -5q-10 -7 -17 -22q-20 -43 -20 -129v-90q0 -86 20 -129z" />
<glyph unicode="&#x1c7;" d="M26 72h19v591h-19v72h106v-72h-20v-591h67v73h67v-145h-220v72zM314 177q3 -79 25 -104q6 -9 16 -9q8 0 15 8q23 28 24 123v468h-76v72h142v-540q0 -89 -26 -143q-15 -32 -37 -47q-19 -13 -42.5 -13t-42.5 13q-21 15 -37 47q-21 43 -24 103z" />
<glyph unicode="&#x1c8;" d="M370 719q5 13 16 20q12 9 29 9t28 -9q11 -7 17 -20q7 -14 7 -34t-7 -34q-6 -13 -17 -20q-11 -8 -28 -8t-29 8q-11 7 -16 20q-7 14 -7 34t7 34zM26 72h19v591h-19v72h106v-72h-20v-591h67v73h67v-145h-220v72zM289 -42q4 -43 17 -70q8 -16 18 -24q8 -5 17.5 -5t16.5 5 q10 7 17 22q17 35 18 104v468h-76v72h142v-540q0 -83 -25 -136q-17 -35 -42 -52q-21 -15 -50 -15t-51 15q-25 17 -41 52q-16 33 -22 76z" />
<glyph unicode="&#x1c9;" d="M370 719q5 13 16 20q12 9 29 9t28 -9q11 -7 17 -20q7 -14 7 -34t-7 -34q-6 -13 -17 -20q-11 -8 -28 -8t-29 8q-11 7 -16 20q-7 14 -7 34t7 34zM78 155v580h67v-580q-1 -30 10 -52q9 -18 24 -28.5t38 -10.5q16 0 19 16v-72q-3 -16 -19 -16q-5 0 -14 2q-45 7 -62 19 q-30 21 -45 53q-18 37 -18 89zM289 -42q4 -43 17 -70q8 -16 18 -24q8 -5 17.5 -5t16.5 5q10 7 17 22q17 35 18 104v468h-76v72h142v-540q0 -83 -25 -136q-17 -35 -42 -52q-21 -15 -50 -15t-51 15q-25 17 -41 52q-16 33 -22 76z" />
<glyph unicode="&#x1ca;" d="M1 72h19v591h-19v72h81l100 -558l-4 44q-12 117 -12 220v222h-20v72h107v-72h-20v-663h-62l-101 565q2 -25 5 -51q12 -117 12 -220v-222h20v-72h-106v72zM314 177q3 -79 25 -104q6 -9 16 -9q8 0 15 8q23 28 24 123v468h-76v72h142v-540q0 -89 -26 -143q-15 -32 -37 -47 q-19 -13 -42.5 -13t-42.5 13q-21 15 -37 47q-21 43 -24 103z" />
<glyph unicode="&#x1cb;" d="M370 719q5 13 16 20q12 9 29 9t28 -9q11 -7 17 -20q7 -14 7 -34t-7 -34q-6 -13 -17 -20q-11 -8 -28 -8t-29 8q-11 7 -16 20q-7 14 -7 34t7 34zM1 72h19v591h-19v72h81l100 -558l-4 44q-12 117 -12 220v222h-20v72h107v-72h-20v-663h-62l-101 565q2 -25 5 -51 q12 -117 12 -220v-222h20v-72h-106v72zM289 -42q4 -43 17 -70q8 -16 18 -24q8 -5 17.5 -5t16.5 5q10 7 17 22q17 35 18 104v468h-76v72h142v-540q0 -83 -25 -136q-17 -35 -42 -52q-21 -15 -50 -15t-51 15q-25 17 -41 52q-16 33 -22 76z" />
<glyph unicode="&#x1cc;" d="M370 719q5 13 16 20q12 9 29 9t28 -9q11 -7 17 -20q7 -14 7 -34t-7 -34q-6 -13 -17 -20q-11 -8 -28 -8t-29 8q-11 7 -16 20q-7 14 -7 34t7 34zM1 72h19v386h-19v72h86v-69q6 19 13 34q11 25 26 35q12 8 25 8q14 0 25 -8q15 -10 27 -35q30 -62 30 -185v-238h20v-72h-107 v72h20v238q0 118 -25 148q-7 8 -14.5 8t-14.5 -8q-25 -30 -25 -148v-238h20v-72h-106v72zM289 -42q4 -43 17 -70q8 -16 18 -24q8 -5 17.5 -5t16.5 5q10 7 17 22q17 35 18 104v468h-76v72h142v-540q0 -83 -25 -136q-17 -35 -42 -52q-21 -15 -50 -15t-51 15q-25 17 -41 52 q-16 33 -22 76z" />
<glyph unicode="&#x1cd;" d="M15 72h45v2q0 100 142 661h96q142 -561 142 -661v-2h45v-72h-170v72h45v2q0 33 -15 119h-190q-15 -86 -15 -119v-2h45v-72h-170v72zM331 265q-28 137 -81 362q-53 -225 -81 -362h162zM145 974l105 -141l105 141l69 -50l-130 -150h-88l-130 150z" />
<glyph unicode="&#x1ce;" d="M63 226q20 35 60 58q57 33 146 33h91v46q0 31 -13 54q-12 21 -34 34q-27 15 -66 15t-66 -16q-22 -12 -35 -34q-9 -17 -11 -34l-77 18q3 27 18 53q22 37 58 59q46 26 112.5 26t113.5 -27q37 -21 58 -57q22 -39 22 -91v-291h45v-72h-125v76q-23 -38 -60 -60 q-42 -24 -98 -24q-51 0 -87 20q-32 19 -50 51q-21 36 -21 86q0 45 19 77zM134 107q11 -18 30 -29q25 -14 63 -14q42 0 73 18q27 16 42 43q18 30 18 73v47h-91q-62 0 -100 -22q-24 -14 -35 -34q-10 -17 -10 -40t10 -42zM145 769l105 -141l105 141l69 -50l-130 -150h-88 l-130 150z" />
<glyph unicode="&#x1cf;" d="M110 72h100v591h-100v72h280v-72h-100v-591h100v-72h-280v72zM145 974l105 -141l105 141l69 -50l-130 -150h-88l-130 150z" />
<glyph unicode="&#x1d0;" d="M75 72h142v386h-128v72h208v-458h128v-72h-350v72zM145 769l105 -141l105 141l69 -50l-130 -150h-88l-130 150z" />
<glyph unicode="&#x1d1;" d="M145 974l105 -141l105 141l69 -50l-130 -150h-88l-130 150zM44 195v345q0 65 27 111q23 41 65 65q47 27 114 27t114 -27q42 -24 65 -65q27 -46 27 -111v-345q0 -65 -27 -111q-23 -41 -65 -65q-47 -27 -114 -27t-114 27q-42 24 -65 65q-27 46 -27 111zM142 121 q15 -26 41 -41q27 -16 67 -16t67 16q26 15 41 41q18 31 18 74v345q0 43 -18 74q-15 26 -41 41q-27 16 -67 16t-67 -16q-26 -15 -41 -41q-18 -31 -18 -74v-345q0 -43 18 -74z" />
<glyph unicode="&#x1d2;" d="M145 769l105 -141l105 141l69 -50l-130 -150h-88l-130 150zM44 220v90q0 79 32 133q25 44 68 69q45 26 106 26t106 -26q43 -25 68 -69q32 -54 32 -133v-90q0 -79 -32 -133q-25 -44 -68 -69q-45 -26 -106 -26t-106 26q-43 25 -68 69q-32 54 -32 133zM146 123 q18 -29 44 -44q25 -15 60 -15t60 15q26 15 44 44q22 39 22 97v90q0 58 -22 97q-18 29 -44 44q-25 15 -60 15t-60 -15q-26 -15 -44 -44q-22 -39 -22 -97v-90q0 -58 22 -97z" />
<glyph unicode="&#x1d3;" d="M15 735h170v-72h-45v-468q0 -48 19 -80q14 -24 37 -37.5t54 -13.5t54 13.5t37 37.5q19 32 19 80v468h-45v72h170v-72h-45v-468q0 -69 -28 -116q-23 -40 -62 -63q-42 -24 -100 -24t-100 24q-39 23 -62 63q-28 47 -28 116v468h-45v72zM145 974l105 -141l105 141l69 -50 l-130 -150h-88l-130 150z" />
<glyph unicode="&#x1d4;" d="M15 530h125v-310q0 -63 23 -104q16 -27 39 -40q21 -12 48 -12t48 12q23 13 39 40q23 41 23 104v238h-45v72h125v-458h45v-72h-125v76q-1 -3 -3 -6q-24 -40 -58 -60q-32 -18 -74 -18t-73 18q-35 20 -58 60q-34 59 -34 150v238h-45v72zM145 769l105 -141l105 141l69 -50 l-130 -150h-88l-130 150z" />
<glyph unicode="&#x1d5;" d="M15 735h170v-72h-45v-468q0 -48 19 -80q14 -24 37 -37.5t54 -13.5t54 13.5t37 37.5q19 32 19 80v468h-45v72h170v-72h-45v-468q0 -69 -28 -116q-23 -40 -62 -63q-42 -24 -100 -24t-100 24q-39 23 -62 63q-28 47 -28 116v468h-45v72zM88 890q-1 20 8 34q7 13 20.5 21 t33.5 8t33.5 -8t20.5 -21q8 -13 9 -34q-1 -21 -9 -34q-7 -13 -20.5 -20.5t-33.5 -8t-33.5 7.5t-20.5 21q-9 14 -8 34zM288 890q-1 20 8 34q7 13 20.5 21t33.5 8t33.5 -8t20.5 -21q8 -13 9 -34q-1 -21 -9 -34q-7 -13 -20.5 -20.5t-33.5 -8t-33.5 7.5t-20.5 21q-9 14 -8 34z M100 1139h300v-72h-300v72z" />
<glyph unicode="&#x1d6;" d="M15 530h125v-310q0 -63 23 -104q16 -27 39 -40q21 -12 48 -12t48 12q23 13 39 40q23 41 23 104v238h-45v72h125v-458h45v-72h-125v76q-1 -3 -3 -6q-24 -40 -58 -60q-32 -18 -74 -18t-73 18q-35 20 -58 60q-34 59 -34 150v238h-45v72zM88 685q-1 20 8 34q7 13 20.5 21 t33.5 8t33.5 -8t20.5 -21q8 -13 9 -34q-1 -21 -9 -34q-7 -13 -20.5 -20.5t-33.5 -8t-33.5 7.5t-20.5 21q-9 14 -8 34zM288 685q-1 20 8 34q7 13 20.5 21t33.5 8t33.5 -8t20.5 -21q8 -13 9 -34q-1 -21 -9 -34q-7 -13 -20.5 -20.5t-33.5 -8t-33.5 7.5t-20.5 21q-9 14 -8 34z M100 934h300v-72h-300v72z" />
<glyph unicode="&#x1d7;" d="M15 735h170v-72h-45v-468q0 -48 19 -80q14 -24 37 -37.5t54 -13.5t54 13.5t37 37.5q19 32 19 80v468h-45v72h170v-72h-45v-468q0 -69 -28 -116q-23 -40 -62 -63q-42 -24 -100 -24t-100 24q-39 23 -62 63q-28 47 -28 116v468h-45v72zM88 890q-1 20 8 34q7 13 20.5 21 t33.5 8t33.5 -8t20.5 -21q8 -13 9 -34q-1 -21 -9 -34q-7 -13 -20.5 -20.5t-33.5 -8t-33.5 7.5t-20.5 21q-9 14 -8 34zM288 890q-1 20 8 34q7 13 20.5 21t33.5 8t33.5 -8t20.5 -21q8 -13 9 -34q-1 -21 -9 -34q-7 -13 -20.5 -20.5t-33.5 -8t-33.5 7.5t-20.5 21q-9 14 -8 34z M317 1188l66 -52l-145 -155l-55 43z" />
<glyph unicode="&#x1d8;" d="M15 530h125v-310q0 -63 23 -104q16 -27 39 -40q21 -12 48 -12t48 12q23 13 39 40q23 41 23 104v238h-45v72h125v-458h45v-72h-125v76q-1 -3 -3 -6q-24 -40 -58 -60q-32 -18 -74 -18t-73 18q-35 20 -58 60q-34 59 -34 150v238h-45v72zM88 685q-1 20 8 34q7 13 20.5 21 t33.5 8t33.5 -8t20.5 -21q8 -13 9 -34q-1 -21 -9 -34q-7 -13 -20.5 -20.5t-33.5 -8t-33.5 7.5t-20.5 21q-9 14 -8 34zM288 685q-1 20 8 34q7 13 20.5 21t33.5 8t33.5 -8t20.5 -21q8 -13 9 -34q-1 -21 -9 -34q-7 -13 -20.5 -20.5t-33.5 -8t-33.5 7.5t-20.5 21q-9 14 -8 34z M317 983l66 -52l-145 -155l-55 43z" />
<glyph unicode="&#x1d9;" d="M15 735h170v-72h-45v-468q0 -48 19 -80q14 -24 37 -37.5t54 -13.5t54 13.5t37 37.5q19 32 19 80v468h-45v72h170v-72h-45v-468q0 -69 -28 -116q-23 -40 -62 -63q-42 -24 -100 -24t-100 24q-39 23 -62 63q-28 47 -28 116v468h-45v72zM88 890q-1 20 8 34q7 13 20.5 21 t33.5 8t33.5 -8t20.5 -21q8 -13 9 -34q-1 -21 -9 -34q-7 -13 -20.5 -20.5t-33.5 -8t-33.5 7.5t-20.5 21q-9 14 -8 34zM288 890q-1 20 8 34q7 13 20.5 21t33.5 8t33.5 -8t20.5 -21q8 -13 9 -34q-1 -21 -9 -34q-7 -13 -20.5 -20.5t-33.5 -8t-33.5 7.5t-20.5 21q-9 14 -8 34z M145 1187l105 -141l105 141l69 -50l-130 -150h-88l-130 150z" />
<glyph unicode="&#x1da;" d="M15 530h125v-310q0 -63 23 -104q16 -27 39 -40q21 -12 48 -12t48 12q23 13 39 40q23 41 23 104v238h-45v72h125v-458h45v-72h-125v76q-1 -3 -3 -6q-24 -40 -58 -60q-32 -18 -74 -18t-73 18q-35 20 -58 60q-34 59 -34 150v238h-45v72zM88 685q-1 20 8 34q7 13 20.5 21 t33.5 8t33.5 -8t20.5 -21q8 -13 9 -34q-1 -21 -9 -34q-7 -13 -20.5 -20.5t-33.5 -8t-33.5 7.5t-20.5 21q-9 14 -8 34zM288 685q-1 20 8 34q7 13 20.5 21t33.5 8t33.5 -8t20.5 -21q8 -13 9 -34q-1 -21 -9 -34q-7 -13 -20.5 -20.5t-33.5 -8t-33.5 7.5t-20.5 21q-9 14 -8 34z M145 982l105 -141l105 141l69 -50l-130 -150h-88l-130 150z" />
<glyph unicode="&#x1db;" d="M15 735h170v-72h-45v-468q0 -48 19 -80q14 -24 37 -37.5t54 -13.5t54 13.5t37 37.5q19 32 19 80v468h-45v72h170v-72h-45v-468q0 -69 -28 -116q-23 -40 -62 -63q-42 -24 -100 -24t-100 24q-39 23 -62 63q-28 47 -28 116v468h-45v72zM88 890q-1 20 8 34q7 13 20.5 21 t33.5 8t33.5 -8t20.5 -21q8 -13 9 -34q-1 -21 -9 -34q-7 -13 -20.5 -20.5t-33.5 -8t-33.5 7.5t-20.5 21q-9 14 -8 34zM288 890q-1 20 8 34q7 13 20.5 21t33.5 8t33.5 -8t20.5 -21q8 -13 9 -34q-1 -21 -9 -34q-7 -13 -20.5 -20.5t-33.5 -8t-33.5 7.5t-20.5 21q-9 14 -8 34z M183 1188l134 -164l-55 -43l-145 155z" />
<glyph unicode="&#x1dc;" d="M15 530h125v-310q0 -63 23 -104q16 -27 39 -40q21 -12 48 -12t48 12q23 13 39 40q23 41 23 104v238h-45v72h125v-458h45v-72h-125v76q-1 -3 -3 -6q-24 -40 -58 -60q-32 -18 -74 -18t-73 18q-35 20 -58 60q-34 59 -34 150v238h-45v72zM88 685q-1 20 8 34q7 13 20.5 21 t33.5 8t33.5 -8t20.5 -21q8 -13 9 -34q-1 -21 -9 -34q-7 -13 -20.5 -20.5t-33.5 -8t-33.5 7.5t-20.5 21q-9 14 -8 34zM288 685q-1 20 8 34q7 13 20.5 21t33.5 8t33.5 -8t20.5 -21q8 -13 9 -34q-1 -21 -9 -34q-7 -13 -20.5 -20.5t-33.5 -8t-33.5 7.5t-20.5 21q-9 14 -8 34z M183 983l134 -164l-55 -43l-145 155z" />
<glyph unicode="&#x1dd;" d="M44 220v81h332v9q0 56 -22 95q-17 30 -44.5 45.5t-65 15.5t-65.5 -16q-27 -16 -45 -46q-9 -17 -13 -32l-74 28q7 21 18 41q26 45 70 70q46 27 110 27t110 -27q43 -25 70 -69q31 -55 31 -132v-90q0 -79 -32 -133q-25 -44 -68 -69q-45 -26 -106 -26t-106 26q-43 25 -68 69 q-32 54 -32 133zM146 123q18 -29 44 -44q25 -15 60 -15t60 15q26 15 44 44q22 39 22 97v9h-252v-9q0 -58 22 -97z" />
<glyph unicode="&#x1de;" d="M15 72h45v2q0 100 142 661h96q142 -561 142 -661v-2h45v-72h-170v72h45v2q0 33 -15 119h-190q-15 -86 -15 -119v-2h45v-72h-170v72zM331 265q-28 137 -81 362q-53 -225 -81 -362h162zM88 890q-1 20 8 34q7 13 20.5 21t33.5 8t33.5 -8t20.5 -21q8 -13 9 -34q-1 -21 -9 -34 q-7 -13 -20.5 -20.5t-33.5 -8t-33.5 7.5t-20.5 21q-9 14 -8 34zM288 890q-1 20 8 34q7 13 20.5 21t33.5 8t33.5 -8t20.5 -21q8 -13 9 -34q-1 -21 -9 -34q-7 -13 -20.5 -20.5t-33.5 -8t-33.5 7.5t-20.5 21q-9 14 -8 34zM100 1139h300v-72h-300v72z" />
<glyph unicode="&#x1df;" d="M63 226q20 35 60 58q57 33 146 33h91v46q0 31 -13 54q-12 21 -34 34q-27 15 -66 15t-66 -16q-22 -12 -35 -34q-9 -17 -11 -34l-77 18q3 27 18 53q22 37 58 59q46 26 112.5 26t113.5 -27q37 -21 58 -57q22 -39 22 -91v-291h45v-72h-125v76q-23 -38 -60 -60 q-42 -24 -98 -24q-51 0 -87 20q-32 19 -50 51q-21 36 -21 86q0 45 19 77zM134 107q11 -18 30 -29q25 -14 63 -14q42 0 73 18q27 16 42 43q18 30 18 73v47h-91q-62 0 -100 -22q-24 -14 -35 -34q-10 -17 -10 -40t10 -42zM88 685q-1 20 8 34q7 13 20.5 21t33.5 8t33.5 -8 t20.5 -21q8 -13 9 -34q-1 -21 -9 -34q-7 -13 -20.5 -20.5t-33.5 -8t-33.5 7.5t-20.5 21q-9 14 -8 34zM288 685q-1 20 8 34q7 13 20.5 21t33.5 8t33.5 -8t20.5 -21q8 -13 9 -34q-1 -21 -9 -34q-7 -13 -20.5 -20.5t-33.5 -8t-33.5 7.5t-20.5 21q-9 14 -8 34zM100 934h300v-72 h-300v72z" />
<glyph unicode="&#x1e0;" d="M15 72h45v2q0 100 142 661h96q142 -561 142 -661v-2h45v-72h-170v72h45v2q0 33 -15 119h-190q-15 -86 -15 -119v-2h45v-72h-170v72zM331 265q-28 137 -81 362q-53 -225 -81 -362h162zM188 890q-1 20 8 34q7 13 20.5 21t33.5 8t33.5 -8t20.5 -21q8 -13 9 -34 q-1 -21 -9 -34q-7 -13 -20.5 -20.5t-33.5 -8t-33.5 7.5t-20.5 21q-9 14 -8 34zM100 1139h300v-72h-300v72z" />
<glyph unicode="&#x1e1;" d="M63 226q20 35 60 58q57 33 146 33h91v46q0 31 -13 54q-12 21 -34 34q-27 15 -66 15t-66 -16q-22 -12 -35 -34q-9 -17 -11 -34l-77 18q3 27 18 53q22 37 58 59q46 26 112.5 26t113.5 -27q37 -21 58 -57q22 -39 22 -91v-291h45v-72h-125v76q-23 -38 -60 -60 q-42 -24 -98 -24q-51 0 -87 20q-32 19 -50 51q-21 36 -21 86q0 45 19 77zM134 107q11 -18 30 -29q25 -14 63 -14q42 0 73 18q27 16 42 43q18 30 18 73v47h-91q-62 0 -100 -22q-24 -14 -35 -34q-10 -17 -10 -40t10 -42zM188 685q-1 20 8 34q7 13 20.5 21t33.5 8t33.5 -8 t20.5 -21q8 -13 9 -34q-1 -21 -9 -34q-7 -13 -20.5 -20.5t-33.5 -8t-33.5 7.5t-20.5 21q-9 14 -8 34zM100 934h300v-72h-300v72z" />
<glyph unicode="&#x1e2;" d="M15 72h45v2q0 200 136 661h244v-145h-80v73h-48v-230h110v-72h-110v-289h48v73h80v-145h-208v193h-84q-8 -68 -8 -119v-2h45v-72h-170v72zM232 265v355q-52 -209 -74 -355h74zM100 926h300v-72h-300v72z" />
<glyph unicode="&#x1e3;" d="M50 232q21 37 58 58q43 25 102 27v81q0 39 -18 57q-12 11 -28 11t-27 -11q-18 -18 -18 -54v-2l-80 1v4q0 42 19 76q16 27 42 42q27 16 64 16t65 -16q12 -7 22 -16q9 9 21 15q29 17 69 17t69 -17q27 -15 43 -43q19 -33 19 -80v-169h-182v-97q0 -36 19 -54q13 -14 34.5 -14 t34.5 14q19 18 19 51v2l80 -1v-4q0 -40 -19 -73q-16 -28 -43 -44q-30 -17 -71.5 -17t-71.5 17q-12 7 -22 17q-10 -10 -22 -17q-29 -17 -69 -17q-38 0 -65.5 16t-44.5 45q-21 37 -21 89.5t22 89.5zM392 301v97q0 37 -19 55q-12 13 -32 13t-32 -13q-19 -18 -19 -55v-97h102z M108 141q0 -44 21 -65q12 -12 30 -12q20 0 32 13q19 18 19 55v113q-32 -2 -55 -15q-22 -13 -34.5 -35t-12.5 -54zM100 721h300v-72h-300v72z" />
<glyph unicode="&#x1e4;" d="M44 195v345q0 65 27 112q24 41 64 64q47 27 111 27t110 -27q41 -23 65 -64q19 -33 24 -72l-78 -14q-4 28 -17 49q-14 26 -40 40q-27 16 -64 16t-64 -16q-25 -14 -40 -40q-18 -31 -18 -75v-345q0 -44 18 -74q14 -26 40 -41q29 -16 67 -16q32 0 55 13.5t37 37.5 q13 22 17 51h-108v72h110v90h-110v72h190v-162h42v-72h-43q-5 -50 -27 -87q-23 -40 -62 -63q-42 -24 -101 -24q-66 0 -113 27q-42 24 -65 65q-27 46 -27 111z" />
<glyph unicode="&#x1e5;" d="M18 205h26v15v90q0 86 33 143q24 42 62 64q37 21 85 21q43 0 75 -18q34 -20 58 -60q2 -3 3 -6v76h125v-72h-45v-253h42v-55h-42v-135q0 -80 -32 -135q-25 -43 -67 -68q-44 -25 -103.5 -25t-102.5 25q-42 24 -68 69q-7 11 -12 24l72 32q3 -9 9 -20q17 -28 42.5 -43 t59.5 -15q33 0 57 14q26 15 42 44q23 39 23 98v61q-1 -3 -3 -6q-24 -40 -58 -60q-32 -18 -75 -18q-48 0 -85 21q-38 22 -62 64q-18 32 -27 73h-32v55zM124 310v-90v-15h236v15v90q0 63 -23 104q-16 27 -39 40q-21 12 -49 12q-34 0 -59 -15q-26 -15 -44 -44q-22 -39 -22 -97z M146 123q18 -29 44 -44q25 -15 59 -15q28 0 49 12q23 13 39 40q9 15 14 34h-217q5 -14 12 -27z" />
<glyph unicode="&#x1e6;" d="M44 195v345q0 65 27 112q24 41 64 64q47 27 111 27t110 -27q41 -23 65 -64q19 -33 24 -72l-78 -14q-4 28 -17 49q-14 26 -40 40q-27 16 -64 16t-64 -16q-25 -14 -40 -40q-18 -31 -18 -75v-345q0 -44 18 -74q14 -26 40 -41q29 -16 67 -16q32 0 55 13.5t37 37.5 q19 32 19 80v133h-110v72h190v-205q0 -69 -28 -116q-23 -40 -62 -63q-42 -24 -101 -24q-66 0 -113 27q-42 24 -65 65q-27 46 -27 111zM145 974l105 -141l105 141l69 -50l-130 -150h-88l-130 150z" />
<glyph unicode="&#x1e7;" d="M77 453q24 42 62 64q37 21 85 21q43 0 75 -18q34 -20 58 -60q2 -3 3 -6v76h125v-72h-45v-443q0 -80 -32 -135q-25 -43 -67 -68q-44 -25 -103.5 -25t-102.5 25q-42 24 -68 69q-7 11 -12 24l72 32q3 -9 9 -20q17 -28 42.5 -43t59.5 -15q33 0 57 14q26 15 42 44q23 39 23 98 v61q-1 -3 -3 -6q-24 -40 -58 -60q-32 -18 -75 -18q-48 0 -85 21q-38 22 -62 64q-33 57 -33 143v90q0 86 33 143zM146 123q18 -29 44 -44q25 -15 59 -15q28 0 49 12q23 13 39 40q23 41 23 104v90q0 63 -23 104q-16 27 -39 40q-21 12 -49 12q-34 0 -59 -15q-26 -15 -44 -44 q-22 -39 -22 -97v-90q0 -58 22 -97zM145 769l105 -141l105 141l69 -50l-130 -150h-88l-130 150z" />
<glyph unicode="&#x1e8;" d="M15 72h45v591h-45v72h170v-72h-45v-275q128 188 170 261q38 65 38 86h32h105v-72h-74q-6 -10 -12 -21q-33 -58 -118 -184q113 -272 150 -386h54v-72h-85h-32q0 50 -139 380q-40 -59 -89 -130v-178h45v-72h-170v72zM145 974l105 -141l105 141l69 -50l-130 -150h-88 l-130 150z" />
<glyph unicode="&#x1e9;" d="M15 72h45v591h-45v72h125v-446q177 182 204 228q4 7 4 13h32h105v-72h-92q-39 -48 -111 -126q101 -175 140 -260h63v-72h-85h-32q0 30 -99 201q-19 33 -42 72q-40 -43 -87 -92v-109h45v-72h-170v72zM145 974l105 -141l105 141l69 -50l-130 -150h-88l-130 150z" />
<glyph unicode="&#x1ea;" d="M44 195v345q0 65 27 111q23 41 65 65q47 27 114 27t114 -27q42 -24 65 -65q27 -46 27 -111v-345q0 -65 -27 -111q-23 -41 -65 -65q-47 -27 -114 -27t-114 27q-42 24 -65 65q-27 46 -27 111zM142 121q15 -26 41 -41q27 -16 67 -16t67 16q26 15 41 41q18 31 18 74v345 q0 43 -18 74q-15 26 -41 41q-27 16 -67 16t-67 -16q-26 -15 -41 -41q-18 -31 -18 -74v-345q0 -43 18 -74zM136 -34q14 24 39 38q33 19 75 19v-31q-22 0 -35 -14q-13 -12 -12 -28q-1 -16 11 -28q17 -17 61 -17h60v-79h-60q-70 0 -103 19q-23 13 -36 35q-11 20 -11 42.5 t11 43.5z" />
<glyph unicode="&#x1eb;" d="M44 220v90q0 79 32 133q25 44 68 69q45 26 106 26t106 -26q43 -25 68 -69q32 -54 32 -133v-90q0 -79 -32 -133q-25 -44 -68 -69q-45 -26 -106 -26t-106 26q-43 25 -68 69q-32 54 -32 133zM146 123q18 -29 44 -44q25 -15 60 -15t60 15q26 15 44 44q22 39 22 97v90 q0 58 -22 97q-18 29 -44 44q-25 15 -60 15t-60 -15q-26 -15 -44 -44q-22 -39 -22 -97v-90q0 -58 22 -97zM136 -34q14 24 39 38q33 19 75 19v-31q-22 0 -35 -14q-13 -12 -12 -28q-1 -16 11 -28q17 -17 61 -17h60v-79h-60q-70 0 -103 19q-23 13 -36 35q-11 20 -11 42.5 t11 43.5z" />
<glyph unicode="&#x1ec;" d="M44 195v345q0 65 27 111q23 41 65 65q47 27 114 27t114 -27q42 -24 65 -65q27 -46 27 -111v-345q0 -65 -27 -111q-23 -41 -65 -65q-47 -27 -114 -27t-114 27q-42 24 -65 65q-27 46 -27 111zM142 121q15 -26 41 -41q27 -16 67 -16t67 16q26 15 41 41q18 31 18 74v345 q0 43 -18 74q-15 26 -41 41q-27 16 -67 16t-67 -16q-26 -15 -41 -41q-18 -31 -18 -74v-345q0 -43 18 -74zM136 -34q14 24 39 38q33 19 75 19v-31q-22 0 -35 -14q-13 -12 -12 -28q-1 -16 11 -28q17 -17 61 -17h60v-79h-60q-70 0 -103 19q-23 13 -36 35q-11 20 -11 42.5 t11 43.5zM100 926h300v-72h-300v72z" />
<glyph unicode="&#x1ed;" d="M44 220v90q0 79 32 133q25 44 68 69q45 26 106 26t106 -26q43 -25 68 -69q32 -54 32 -133v-90q0 -79 -32 -133q-25 -44 -68 -69q-45 -26 -106 -26t-106 26q-43 25 -68 69q-32 54 -32 133zM146 123q18 -29 44 -44q25 -15 60 -15t60 15q26 15 44 44q22 39 22 97v90 q0 58 -22 97q-18 29 -44 44q-25 15 -60 15t-60 -15q-26 -15 -44 -44q-22 -39 -22 -97v-90q0 -58 22 -97zM136 -34q14 24 39 38q33 19 75 19v-31q-22 0 -35 -14q-13 -12 -12 -28q-1 -16 11 -28q17 -17 61 -17h60v-79h-60q-70 0 -103 19q-23 13 -36 35q-11 20 -11 42.5 t11 43.5zM100 721h300v-72h-300v72z" />
<glyph unicode="&#x1ee;" d="M131 178q5 -28 18 -51q16 -27 41 -41q23 -14 54 -14t54 13q25 14 40 41q22 38 22 95.5t-22 95.5q-15 26 -38 39q-22 13 -50 13h-114v72l180 222h-176v-73h-80v145h352v-72l-180 -222h18q54 0 96 -24q39 -22 63 -64q31 -54 31 -131q0 -79 -31 -131q-24 -43 -65 -67 q-42 -24 -99.5 -24t-99.5 24q-41 23 -66 66q-17 31 -24 65zM145 974l105 -141l105 141l69 -50l-130 -150h-88l-130 150z" />
<glyph unicode="&#x1ef;" d="M131 -27q5 -28 18 -51q16 -27 41 -41q23 -14 54 -14t54 13q25 14 40 41q22 38 22 95.5t-22 95.5q-15 26 -38 39q-22 13 -50 13h-114v72l180 222h-176v-73h-80v145h352v-72l-180 -222h18q54 0 96 -24q39 -22 63 -64q31 -54 31 -131q0 -79 -31 -131q-24 -43 -65 -67 q-42 -24 -99.5 -24t-99.5 24q-41 23 -66 66q-17 31 -24 65zM145 769l105 -141l105 141l69 -50l-130 -150h-88l-130 150z" />
<glyph unicode="&#x1f0;" d="M89 -46q4 -28 17 -50.5t33 -34.5q18 -10 41 -10t41 10q20 12 32 34q20 34 20 87v468h-135v72h215v-540q0 -73 -29 -123q-22 -38 -58.5 -59t-85.5 -21t-85 21t-59 59q-16 29 -23 63zM194 769l105 -141l105 141l69 -50l-130 -150h-88l-130 150z" />
<glyph unicode="&#x1f1;" d="M1 72h19v591h-19v72h86v-1q38 -3 68 -24q36 -24 59 -73q32 -65 32 -165v-209q0 -100 -32 -165q-23 -49 -59 -73q-30 -21 -68 -24v-1h-86v72zM267 72l136 591h-69v-73h-67v145h213v-72l-136 -591h69v73h67v-145h-213v72zM118 86q22 15 37 46q25 51 24 131v209 q1 80 -24 131q-15 31 -37 46q-14 10 -31 13v-589q17 3 31 13z" />
<glyph unicode="&#x1f2;" d="M1 72h19v591h-19v72h86v-1q38 -3 68 -24q36 -24 59 -73q32 -65 32 -165v-209q0 -100 -32 -165q-23 -49 -59 -73q-30 -21 -68 -24v-1h-86v72zM118 86q22 15 37 46q25 51 24 131v209q1 80 -24 131q-15 31 -37 46q-14 10 -31 13v-589q17 3 31 13zM267 72l133 386h-66v-73 h-67v145h213v-72l-133 -386h66v73h67v-145h-213v72z" />
<glyph unicode="&#x1f3;" d="M7 310q0 114 30 176q14 29 33 42q14 10 31 10q14 0 26 -8q15 -10 26 -35q7 -15 13 -34v202h-20v72h87v-663h20v-72h-87v69q-6 -19 -13 -34q-11 -25 -26 -35q-12 -8 -26 -8q-17 0 -31 10q-19 13 -33 42q-30 62 -30 176v90zM267 72l133 386h-66v-73h-67v145h213v-72 l-133 -386h66v73h67v-145h-213v72zM94 91q7 -15 17 -22q7 -5 14 -5q10 0 16 8q25 30 25 148v90q0 118 -25 148q-6 8 -16 8q-7 0 -14 -5q-10 -7 -17 -22q-20 -43 -20 -129v-90q0 -86 20 -129z" />
<glyph unicode="&#x1f4;" d="M44 195v345q0 65 27 112q24 41 64 64q47 27 111 27t110 -27q41 -23 65 -64q19 -33 24 -72l-78 -14q-4 28 -17 49q-14 26 -40 40q-27 16 -64 16t-64 -16q-25 -14 -40 -40q-18 -31 -18 -75v-345q0 -44 18 -74q14 -26 40 -41q29 -16 67 -16q32 0 55 13.5t37 37.5 q19 32 19 80v133h-110v72h190v-205q0 -69 -28 -116q-23 -40 -62 -63q-42 -24 -101 -24q-66 0 -113 27q-42 24 -65 65q-27 46 -27 111zM317 975l66 -52l-145 -155l-55 43z" />
<glyph unicode="&#x1f5;" d="M77 453q24 42 62 64q37 21 85 21q43 0 75 -18q34 -20 58 -60q2 -3 3 -6v76h125v-72h-45v-443q0 -80 -32 -135q-25 -43 -67 -68q-44 -25 -103.5 -25t-102.5 25q-42 24 -68 69q-7 11 -12 24l72 32q3 -9 9 -20q17 -28 42.5 -43t59.5 -15q33 0 57 14q26 15 42 44q23 39 23 98 v61q-1 -3 -3 -6q-24 -40 -58 -60q-32 -18 -75 -18q-48 0 -85 21q-38 22 -62 64q-33 57 -33 143v90q0 86 33 143zM146 123q18 -29 44 -44q25 -15 59 -15q28 0 49 12q23 13 39 40q23 41 23 104v90q0 63 -23 104q-16 27 -39 40q-21 12 -49 12q-34 0 -59 -15q-26 -15 -44 -44 q-22 -39 -22 -97v-90q0 -58 22 -97zM317 770l66 -52l-145 -155l-55 43z" />
<glyph unicode="&#x1f6;" d="M28 72h24v591h-24v72h128v-72h-24v-259h78v259h-24v72h128v-72h-24v-531q0 -42 18 -59q8 -9 21 -9t21 9q18 17 18 59v398h80v-398q0 -50 -20 -85q-15 -26 -40 -40.5t-59 -14.5t-59 14.5t-40 40.5q-20 35 -20 85v200h-78v-260h24v-72h-128v72z" />
<glyph unicode="&#x1f7;" d="M60 735h80v-40q16 15 35 25q39 23 83 23q49 0 92 -25q41 -23 66 -67q32 -56 32 -129q0 -78 -46 -159q-62 -107 -262 -290v-73h-80v735zM329 389q39 66 39 132q0 55 -23 94q-15 28 -39.5 42t-52.5 14t-55 -15q-29 -17 -46 -47q-8 -14 -12 -28v-405q144 134 189 213z" />
<glyph unicode="&#x1f8;" d="M15 72h45v591h-45v72h156l192 -601q0 27 -1 79q-1 112 -2 168v60v222h-45v72h170v-72h-45v-663h-111l-192 600q0 -43 1 -100q2 -117 2 -206v-222h45v-72h-170v72zM183 975l134 -164l-55 -43l-145 155z" />
<glyph unicode="&#x1f9;" d="M15 72h45v386h-45v72h125v-76q1 3 3 6q24 40 58 60q32 18 74 18t73 -18q35 -20 58 -60q34 -59 34 -150v-238h45v-72h-170v72h45v238q0 63 -23 104q-16 27 -39 40q-21 12 -48 12t-48 -12q-23 -13 -39 -40q-23 -41 -23 -104v-238h45v-72h-170v72zM183 770l134 -164l-55 -43 l-145 155z" />
<glyph unicode="&#x1fa;" d="M15 72h45v2q0 100 142 661h96q142 -561 142 -661v-2h45v-72h-170v72h45v2q0 33 -15 119h-190q-15 -86 -15 -119v-2h45v-72h-170v72zM331 265q-28 137 -81 362q-53 -225 -81 -362h162zM167 918q11 19 30 31q22 13 53 13t53 -13q19 -12 30 -31q13 -21 13 -52t-13 -53 q-11 -19 -30 -31q-22 -12 -53 -12t-53 12q-19 12 -30 31q-13 22 -13 53t13 52zM223 839q10 -10 27 -10t27 10t10 27t-10 27t-27 10t-27 -10t-10 -27t10 -27zM317 1188l66 -52l-145 -155l-55 43z" />
<glyph unicode="&#x1fb;" d="M63 226q20 35 60 58q57 33 146 33h91v46q0 31 -13 54q-12 21 -34 34q-27 15 -66 15t-66 -16q-22 -12 -35 -34q-9 -17 -11 -34l-77 18q3 27 18 53q22 37 58 59q46 26 112.5 26t113.5 -27q37 -21 58 -57q22 -39 22 -91v-291h45v-72h-125v76q-23 -38 -60 -60 q-42 -24 -98 -24q-51 0 -87 20q-32 19 -50 51q-21 36 -21 86q0 45 19 77zM134 107q11 -18 30 -29q25 -14 63 -14q42 0 73 18q27 16 42 43q18 30 18 73v47h-91q-62 0 -100 -22q-24 -14 -35 -34q-10 -17 -10 -40t10 -42zM167 713q11 19 30 31q22 13 53 13t53 -13 q19 -12 30 -31q13 -21 13 -52t-13 -53q-11 -19 -30 -31q-22 -12 -53 -12t-53 12q-19 12 -30 31q-13 22 -13 53t13 52zM223 634q10 -10 27 -10t27 10t10 27t-10 27t-27 10t-27 -10t-10 -27t10 -27zM317 983l66 -52l-145 -155l-55 43z" />
<glyph unicode="&#x1fc;" d="M15 72h45v2q0 200 136 661h244v-145h-80v73h-48v-230h110v-72h-110v-289h48v73h80v-145h-208v193h-84q-8 -68 -8 -119v-2h45v-72h-170v72zM232 265v355q-52 -209 -74 -355h74zM317 975l66 -52l-145 -155l-55 43z" />
<glyph unicode="&#x1fd;" d="M50 232q21 37 58 58q43 25 102 27v81q0 39 -18 57q-12 11 -28 11t-27 -11q-18 -18 -18 -54v-2l-80 1v4q0 42 19 76q16 27 42 42q27 16 64 16t65 -16q12 -7 22 -16q9 9 21 15q29 17 69 17t69 -17q27 -15 43 -43q19 -33 19 -80v-169h-182v-97q0 -36 19 -54q13 -14 34.5 -14 t34.5 14q19 18 19 51v2l80 -1v-4q0 -40 -19 -73q-16 -28 -43 -44q-30 -17 -71.5 -17t-71.5 17q-12 7 -22 17q-10 -10 -22 -17q-29 -17 -69 -17q-38 0 -65.5 16t-44.5 45q-21 37 -21 89.5t22 89.5zM392 301v97q0 37 -19 55q-12 13 -32 13t-32 -13q-19 -18 -19 -55v-97h102z M108 141q0 -44 21 -65q12 -12 30 -12q20 0 32 13q19 18 19 55v113q-32 -2 -55 -15q-22 -13 -34.5 -35t-12.5 -54zM317 770l66 -52l-145 -155l-55 43z" />
<glyph unicode="&#x1fe;" d="M44 195v345q0 65 27 111q23 41 65 65q47 27 114 27q57 0 100 -20l25 62l74 -27l-34 -86q7 -10 14 -21q27 -46 27 -111v-345q0 -65 -27 -111q-23 -41 -65 -65q-47 -27 -114 -27q-57 0 -100 20l-25 -62l-74 27l34 86q-7 10 -14 21q-27 46 -27 111zM183 80q27 -16 67 -16 t67 16q26 15 41 41q18 31 18 74v345q0 16 -2 30l-196 -487q3 -1 5 -3zM124 540v-345q0 -16 2 -30l196 487q-3 1 -5 3q-27 16 -67 16t-67 -16q-26 -15 -41 -41q-18 -31 -18 -74zM317 975l66 -52l-145 -155l-55 43z" />
<glyph unicode="&#x1ff;" d="M44 220v90q0 79 32 133q25 44 68 69q45 26 106 26q54 0 96 -20l31 56l70 -35l-40 -71q10 -12 17 -25q32 -54 32 -133v-90q0 -79 -32 -133q-25 -44 -68 -69q-45 -26 -106 -26q-54 0 -96 20l-31 -56l-70 35l40 71q-10 12 -17 25q-32 54 -32 133zM250.5 64q34.5 0 59.5 15 q26 15 44 44q22 39 22 97v90q0 44 -13 78l-172 -310q25 -14 59.5 -14zM124 310v-90q0 -44 13 -78l172 310q-25 14 -59.5 14t-59.5 -15q-26 -15 -44 -44q-22 -39 -22 -97zM317 770l66 -52l-145 -155l-55 43z" />
<glyph unicode="&#x200;" d="M15 72h45v2q0 100 142 661h96q142 -561 142 -661v-2h45v-72h-170v72h45v2q0 33 -15 119h-190q-15 -86 -15 -119v-2h45v-72h-170v72zM331 265q-28 137 -81 362q-53 -225 -81 -362h162zM98 975l134 -164l-55 -43l-145 155zM268 975l134 -164l-55 -43l-145 155z" />
<glyph unicode="&#x201;" d="M63 226q20 35 60 58q57 33 146 33h91v46q0 31 -13 54q-12 21 -34 34q-27 15 -66 15t-66 -16q-22 -12 -35 -34q-9 -17 -11 -34l-77 18q3 27 18 53q22 37 58 59q46 26 112.5 26t113.5 -27q37 -21 58 -57q22 -39 22 -91v-291h45v-72h-125v76q-23 -38 -60 -60 q-42 -24 -98 -24q-51 0 -87 20q-32 19 -50 51q-21 36 -21 86q0 45 19 77zM134 107q11 -18 30 -29q25 -14 63 -14q42 0 73 18q27 16 42 43q18 30 18 73v47h-91q-62 0 -100 -22q-24 -14 -35 -34q-10 -17 -10 -40t10 -42zM98 770l134 -164l-55 -43l-145 155zM268 770l134 -164 l-55 -43l-145 155z" />
<glyph unicode="&#x202;" d="M15 72h45v2q0 100 142 661h96q142 -561 142 -661v-2h45v-72h-170v72h45v2q0 33 -15 119h-190q-15 -86 -15 -119v-2h45v-72h-170v72zM331 265q-28 137 -81 362q-53 -225 -81 -362h162zM111 877q19 32 51 51q37 21 88 21t88 -21q32 -19 51 -51q21 -37 21 -88h-80 q0 30 -12 51q-10 17 -27 27t-41 10t-41 -10t-27 -27q-12 -21 -12 -51h-80q0 51 21 88z" />
<glyph unicode="&#x203;" d="M63 226q20 35 60 58q57 33 146 33h91v46q0 31 -13 54q-12 21 -34 34q-27 15 -66 15t-66 -16q-22 -12 -35 -34q-9 -17 -11 -34l-77 18q3 27 18 53q22 37 58 59q46 26 112.5 26t113.5 -27q37 -21 58 -57q22 -39 22 -91v-291h45v-72h-125v76q-23 -38 -60 -60 q-42 -24 -98 -24q-51 0 -87 20q-32 19 -50 51q-21 36 -21 86q0 45 19 77zM134 107q11 -18 30 -29q25 -14 63 -14q42 0 73 18q27 16 42 43q18 30 18 73v47h-91q-62 0 -100 -22q-24 -14 -35 -34q-10 -17 -10 -40t10 -42zM111 672q19 32 51 51q37 21 88 21t88 -21 q32 -19 51 -51q21 -37 21 -88h-80q0 30 -12 51q-10 17 -27 27t-41 10t-41 -10t-27 -27q-12 -21 -12 -51h-80q0 51 21 88z" />
<glyph unicode="&#x204;" d="M45 72h45v591h-45v72h395v-145h-80v73h-190v-245h195v-72h-195v-274h190v73h80v-145h-395v72zM98 975l134 -164l-55 -43l-145 155zM268 975l134 -164l-55 -43l-145 155z" />
<glyph unicode="&#x205;" d="M44 310q0 79 32 133q25 44 68 69q45 26 106 26t106 -26q43 -25 68 -69q32 -54 32 -133v-81h-332v-9q0 -56 22 -95q17 -30 44.5 -45.5t65 -15.5t65.5 16q27 16 45 46q9 17 13 32l74 -28q-7 -21 -18 -41q-26 -45 -70 -70q-46 -27 -110 -27t-110 27q-43 25 -70 69 q-31 55 -31 132v90zM124 310v-9h252v9q0 58 -22 97q-18 29 -44 44q-25 15 -60 15t-60 -15q-26 -15 -44 -44q-22 -39 -22 -97zM98 770l134 -164l-55 -43l-145 155zM268 770l134 -164l-55 -43l-145 155z" />
<glyph unicode="&#x206;" d="M45 72h45v591h-45v72h395v-145h-80v73h-190v-245h195v-72h-195v-274h190v73h80v-145h-395v72zM111 877q19 32 51 51q37 21 88 21t88 -21q32 -19 51 -51q21 -37 21 -88h-80q0 30 -12 51q-10 17 -27 27t-41 10t-41 -10t-27 -27q-12 -21 -12 -51h-80q0 51 21 88z" />
<glyph unicode="&#x207;" d="M44 310q0 79 32 133q25 44 68 69q45 26 106 26t106 -26q43 -25 68 -69q32 -54 32 -133v-81h-332v-9q0 -56 22 -95q17 -30 44.5 -45.5t65 -15.5t65.5 16q27 16 45 46q9 17 13 32l74 -28q-7 -21 -18 -41q-26 -45 -70 -70q-46 -27 -110 -27t-110 27q-43 25 -70 69 q-31 55 -31 132v90zM124 310v-9h252v9q0 58 -22 97q-18 29 -44 44q-25 15 -60 15t-60 -15q-26 -15 -44 -44q-22 -39 -22 -97zM111 672q19 32 51 51q37 21 88 21t88 -21q32 -19 51 -51q21 -37 21 -88h-80q0 30 -12 51q-10 17 -27 27t-41 10t-41 -10t-27 -27q-12 -21 -12 -51 h-80q0 51 21 88z" />
<glyph unicode="&#x208;" d="M110 72h100v591h-100v72h280v-72h-100v-591h100v-72h-280v72zM98 975l134 -164l-55 -43l-145 155zM268 975l134 -164l-55 -43l-145 155z" />
<glyph unicode="&#x209;" d="M75 72h142v386h-128v72h208v-458h128v-72h-350v72zM98 770l134 -164l-55 -43l-145 155zM268 770l134 -164l-55 -43l-145 155z" />
<glyph unicode="&#x20a;" d="M110 72h100v591h-100v72h280v-72h-100v-591h100v-72h-280v72zM111 877q19 32 51 51q37 21 88 21t88 -21q32 -19 51 -51q21 -37 21 -88h-80q0 30 -12 51q-10 17 -27 27t-41 10t-41 -10t-27 -27q-12 -21 -12 -51h-80q0 51 21 88z" />
<glyph unicode="&#x20b;" d="M75 72h142v386h-128v72h208v-458h128v-72h-350v72zM111 672q19 32 51 51q37 21 88 21t88 -21q32 -19 51 -51q21 -37 21 -88h-80q0 30 -12 51q-10 17 -27 27t-41 10t-41 -10t-27 -27q-12 -21 -12 -51h-80q0 51 21 88z" />
<glyph unicode="&#x20c;" d="M98 975l134 -164l-55 -43l-145 155zM268 975l134 -164l-55 -43l-145 155zM44 195v345q0 65 27 111q23 41 65 65q47 27 114 27t114 -27q42 -24 65 -65q27 -46 27 -111v-345q0 -65 -27 -111q-23 -41 -65 -65q-47 -27 -114 -27t-114 27q-42 24 -65 65q-27 46 -27 111z M142 121q15 -26 41 -41q27 -16 67 -16t67 16q26 15 41 41q18 31 18 74v345q0 43 -18 74q-15 26 -41 41q-27 16 -67 16t-67 -16q-26 -15 -41 -41q-18 -31 -18 -74v-345q0 -43 18 -74z" />
<glyph unicode="&#x20d;" d="M98 770l134 -164l-55 -43l-145 155zM268 770l134 -164l-55 -43l-145 155zM44 220v90q0 79 32 133q25 44 68 69q45 26 106 26t106 -26q43 -25 68 -69q32 -54 32 -133v-90q0 -79 -32 -133q-25 -44 -68 -69q-45 -26 -106 -26t-106 26q-43 25 -68 69q-32 54 -32 133zM146 123 q18 -29 44 -44q25 -15 60 -15t60 15q26 15 44 44q22 39 22 97v90q0 58 -22 97q-18 29 -44 44q-25 15 -60 15t-60 -15q-26 -15 -44 -44q-22 -39 -22 -97v-90q0 -58 22 -97z" />
<glyph unicode="&#x20e;" d="M44 195v345q0 65 27 111q23 41 65 65q47 27 114 27t114 -27q42 -24 65 -65q27 -46 27 -111v-345q0 -65 -27 -111q-23 -41 -65 -65q-47 -27 -114 -27t-114 27q-42 24 -65 65q-27 46 -27 111zM142 121q15 -26 41 -41q27 -16 67 -16t67 16q26 15 41 41q18 31 18 74v345 q0 43 -18 74q-15 26 -41 41q-27 16 -67 16t-67 -16q-26 -15 -41 -41q-18 -31 -18 -74v-345q0 -43 18 -74zM111 877q19 32 51 51q37 21 88 21t88 -21q32 -19 51 -51q21 -37 21 -88h-80q0 30 -12 51q-10 17 -27 27t-41 10t-41 -10t-27 -27q-12 -21 -12 -51h-80q0 51 21 88z " />
<glyph unicode="&#x20f;" d="M44 220v90q0 79 32 133q25 44 68 69q45 26 106 26t106 -26q43 -25 68 -69q32 -54 32 -133v-90q0 -79 -32 -133q-25 -44 -68 -69q-45 -26 -106 -26t-106 26q-43 25 -68 69q-32 54 -32 133zM146 123q18 -29 44 -44q25 -15 60 -15t60 15q26 15 44 44q22 39 22 97v90 q0 58 -22 97q-18 29 -44 44q-25 15 -60 15t-60 -15q-26 -15 -44 -44q-22 -39 -22 -97v-90q0 -58 22 -97zM111 672q19 32 51 51q37 21 88 21t88 -21q32 -19 51 -51q21 -37 21 -88h-80q0 30 -12 51q-10 17 -27 27t-41 10t-41 -10t-27 -27q-12 -21 -12 -51h-80q0 51 21 88z" />
<glyph unicode="&#x210;" d="M15 72h45v591h-45v72h242q63 0 108 -26q40 -23 64 -64q27 -47 27 -113.5t-27 -113.5q-24 -41 -64 -64q-24 -14 -53 -20q89 -162 114 -262h59v-72h-96h-32q1 99 -131 328h-86v-256h45v-72h-170v72zM257 400q35 0 62 15q24 14 39 40q18 31 18 76.5t-18 76.5q-15 26 -39 40 q-27 15 -62 15h-117v-263h117zM98 975l134 -164l-55 -43l-145 155zM268 975l134 -164l-55 -43l-145 155z" />
<glyph unicode="&#x211;" d="M57 72h63v386h-63v72h143v-101q7 19 17 36q23 39 55 58q26 15 61 15q36 0 67.5 -18t49.5 -50q8 -14 13 -30l-75 -34q-3 11 -9 22q-11 19 -29 29q-15 9 -34 9q-26 0 -46 -12q-24 -13 -42 -43q-28 -50 -28 -130v-209h105v-72h-248v72zM98 770l134 -164l-55 -43l-145 155z M268 770l134 -164l-55 -43l-145 155z" />
<glyph unicode="&#x212;" d="M15 72h45v591h-45v72h242q63 0 108 -26q40 -23 64 -64q27 -47 27 -113.5t-27 -113.5q-24 -41 -64 -64q-24 -14 -53 -20q89 -162 114 -262h59v-72h-96h-32q1 99 -131 328h-86v-256h45v-72h-170v72zM257 400q35 0 62 15q24 14 39 40q18 31 18 76.5t-18 76.5q-15 26 -39 40 q-27 15 -62 15h-117v-263h117zM111 877q19 32 51 51q37 21 88 21t88 -21q32 -19 51 -51q21 -37 21 -88h-80q0 30 -12 51q-10 17 -27 27t-41 10t-41 -10t-27 -27q-12 -21 -12 -51h-80q0 51 21 88z" />
<glyph unicode="&#x213;" d="M57 72h63v386h-63v72h143v-101q7 19 17 36q23 39 55 58q26 15 61 15q36 0 67.5 -18t49.5 -50q8 -14 13 -30l-75 -34q-3 11 -9 22q-11 19 -29 29q-15 9 -34 9q-26 0 -46 -12q-24 -13 -42 -43q-28 -50 -28 -130v-209h105v-72h-248v72zM111 672q19 32 51 51q37 21 88 21 t88 -21q32 -19 51 -51q21 -37 21 -88h-80q0 30 -12 51q-10 17 -27 27t-41 10t-41 -10t-27 -27q-12 -21 -12 -51h-80q0 51 21 88z" />
<glyph unicode="&#x214;" d="M15 735h170v-72h-45v-468q0 -48 19 -80q14 -24 37 -37.5t54 -13.5t54 13.5t37 37.5q19 32 19 80v468h-45v72h170v-72h-45v-468q0 -69 -28 -116q-23 -40 -62 -63q-42 -24 -100 -24t-100 24q-39 23 -62 63q-28 47 -28 116v468h-45v72zM98 975l134 -164l-55 -43l-145 155z M268 975l134 -164l-55 -43l-145 155z" />
<glyph unicode="&#x215;" d="M15 530h125v-310q0 -63 23 -104q16 -27 39 -40q21 -12 48 -12t48 12q23 13 39 40q23 41 23 104v238h-45v72h125v-458h45v-72h-125v76q-1 -3 -3 -6q-24 -40 -58 -60q-32 -18 -74 -18t-73 18q-35 20 -58 60q-34 59 -34 150v238h-45v72zM98 770l134 -164l-55 -43l-145 155z M268 770l134 -164l-55 -43l-145 155z" />
<glyph unicode="&#x216;" d="M15 735h170v-72h-45v-468q0 -48 19 -80q14 -24 37 -37.5t54 -13.5t54 13.5t37 37.5q19 32 19 80v468h-45v72h170v-72h-45v-468q0 -69 -28 -116q-23 -40 -62 -63q-42 -24 -100 -24t-100 24q-39 23 -62 63q-28 47 -28 116v468h-45v72zM111 877q19 32 51 51q37 21 88 21 t88 -21q32 -19 51 -51q21 -37 21 -88h-80q0 30 -12 51q-10 17 -27 27t-41 10t-41 -10t-27 -27q-12 -21 -12 -51h-80q0 51 21 88z" />
<glyph unicode="&#x217;" d="M15 530h125v-310q0 -63 23 -104q16 -27 39 -40q21 -12 48 -12t48 12q23 13 39 40q23 41 23 104v238h-45v72h125v-458h45v-72h-125v76q-1 -3 -3 -6q-24 -40 -58 -60q-32 -18 -74 -18t-73 18q-35 20 -58 60q-34 59 -34 150v238h-45v72zM111 672q19 32 51 51q37 21 88 21 t88 -21q32 -19 51 -51q21 -37 21 -88h-80q0 30 -12 51q-10 17 -27 27t-41 10t-41 -10t-27 -27q-12 -21 -12 -51h-80q0 51 21 88z" />
<glyph unicode="&#x218;" d="M211.5 -33.5q14.5 14.5 38.5 14.5t38.5 -14.5t14.5 -41.5q0 -70 -32 -125q-14 -24 -32 -42l-42 37q31 34 41 80q-16 3 -27 14q-14 14 -14 38.5t14.5 39zM55 153v2l79 11v-7q0 -24 12 -45t35 -34q27 -16 66 -16q36 0 61 15q23 13 37 36q15 28 15 60.5t-18 64.5 q-25 43 -107 89q-111 64 -146 125q-29 50 -29 105q0 53 25 97q23 39 62 61q44 26 106 26q66 0 113 -27q37 -21 58 -57.5t21 -76.5v-2l-79 -11v7q0 24 -12 45t-35 34q-27 16 -66 16q-36 0 -61 -15q-23 -13 -37 -36q-15 -28 -15 -60.5t18 -64.5q25 -43 107 -89 q111 -64 146 -125q29 -50 29 -105q0 -53 -25 -97q-23 -39 -62 -61q-44 -26 -106 -26q-66 0 -113 27q-37 21 -58 57.5t-21 76.5z" />
<glyph unicode="&#x219;" d="M211.5 -33.5q14.5 14.5 38.5 14.5t38.5 -14.5t14.5 -41.5q0 -70 -32 -125q-14 -24 -32 -42l-42 37q31 34 41 80q-16 3 -27 14q-14 14 -14 38.5t14.5 39zM75 459q18 31 53 51q49 28 123 28q70 0 116 -27q38 -22 60 -60q9 -14 14 -31l-75 -24l-8 18q-14 23 -36 36 q-28 16 -71 16q-47 0 -77 -17q-18 -11 -28 -27q-8 -14 -8 -32q0 -20 10 -36q10 -18 30 -30q24 -14 80 -20q72 -8 107.5 -28.5t56 -56t20.5 -79.5q0 -39 -17 -69q-18 -31 -53 -51q-49 -28 -123 -28q-70 0 -116 27q-38 22 -60 60q-9 14 -14 31l75 24l8 -18q14 -23 36 -36 q28 -16 71 -16q47 0 77 17q18 11 28 27q8 14 8 32q0 20 -10 36q-10 18 -30 30q-24 14 -80 20q-72 8 -107.5 28.5t-56 56t-20.5 79.5q0 39 17 69z" />
<glyph unicode="&#x21a;" d="M52 735h396v-145h-80v73h-78v-591h65v-72h-210v72h65v591h-78v-73h-80v145zM211.5 -33.5q14.5 14.5 38.5 14.5t38.5 -14.5t14.5 -41.5q0 -70 -32 -125q-14 -24 -32 -42l-42 37q31 34 41 80q-16 3 -27 14q-14 14 -14 38.5t14.5 39z" />
<glyph unicode="&#x21b;" d="M51 530h109v205h80v-205h161v-72h-161v-264q0 -55 20 -90q12 -21 30 -31q16 -9 36 -9t35 9q8 4 16 12q29 30 34 87l78 -17q-5 -48 -27 -85.5t-57 -57.5q-33 -20 -79.5 -20t-79.5 20q-35 20 -57 57q-29 51 -29 125v264h-109v72zM264.5 -33.5q14.5 14.5 38.5 14.5 t38.5 -14.5t14.5 -41.5q0 -70 -32 -125q-14 -24 -32 -42l-42 37q31 34 41 80q-16 3 -27 14q-14 14 -14 38.5t14.5 39z" />
<glyph unicode="&#x21c;" d="M255 126q60 34 86 80q20 35 20 72q0 52 -36 89l-1 1q-5 -3 -11 -7q-83 -48 -197 -85l-24 69q122 38 183 73q45 27 67 64q18 33 18 68q0 38 -18 68q-13 25 -37 39q-25 14 -58.5 14t-57.5 -14t-39 -39q-13 -24 -17 -53l-78 15q5 41 25 75q23 40 63 63q43 25 103 25t104 -25 q39 -23 63 -63q27 -49 27 -105q0 -50 -26 -96q-12 -20 -29 -38q18 -18 31 -41q26 -43 25 -95q1 -55 -29 -106q-36 -63 -112 -107q-107 -61 -240 -75l-8 72q113 10 203 62z" />
<glyph unicode="&#x21d;" d="M255 -79q60 34 86 80q20 35 20 72q0 52 -36 89l-1 1q-5 -3 -11 -7q-83 -48 -197 -85l-24 69q122 38 183 73q45 27 67 64q18 33 18 68q0 38 -18 68q-13 25 -37 39q-25 14 -58.5 14t-57.5 -14t-39 -39q-13 -24 -17 -53l-78 15q5 41 25 75q23 40 63 63q43 25 103 25t104 -25 q39 -23 63 -63q27 -49 27 -105q0 -50 -26 -96q-12 -20 -29 -38q18 -18 31 -41q26 -43 25 -95q1 -55 -29 -106q-36 -63 -112 -107q-107 -61 -240 -75l-8 72q113 10 203 62z" />
<glyph unicode="&#x21e;" d="M15 72h45v591h-45v72h170v-72h-45v-241h220v241h-45v72h170v-72h-45v-591h45v-72h-170v72h45v278h-220v-278h45v-72h-170v72zM145 974l105 -141l105 141l69 -50l-130 -150h-88l-130 150z" />
<glyph unicode="&#x21f;" d="M15 72h45v591h-45v72h125v-281q1 3 3 6q24 40 58 60q32 18 74 18t73 -18q35 -20 58 -60q34 -59 34 -150v-238h45v-72h-170v72h45v238q0 63 -23 104q-16 27 -39 40q-21 12 -48 12t-48 -12q-23 -13 -39 -40q-23 -41 -23 -104v-238h45v-72h-170v72zM145 974l105 -141 l105 141l69 -50l-130 -150h-88l-130 150z" />
<glyph unicode="&#x220;" d="M15 72h45v591h-45v72h125v-76q1 3 3 6q24 40 58 60q32 18 74 18t73 -18q35 -20 58 -60q34 -59 34 -150v-648h45v-72h-170v72h45v648q0 63 -23 104q-16 27 -39 40q-21 12 -48 12t-48 -12q-23 -13 -39 -40q-23 -41 -23 -104v-443h45v-72h-170v72z" />
<glyph unicode="&#x221;" d="M44 220v90q0 96 35 156q21 37 53 56q28 16 63 16q31 0 54 -13q28 -16 49 -51l4 -8v197h-45v72h125v-529q17 4 35 4q34 0 60 -15q20 -11 31 -31q15 -26 16 -63q-1 -35 -15 -61q-13 -21 -33 -33q-27 -15 -61 -15q-32 0 -56.5 14.5t-38.5 38.5q-7 12 -11 28q-3 -3 -6 -7 q-2 -5 -5 -10q-10 -16 -20 -28l-8 -12q-34 -59 -49 -125l-74 15q10 44 28 87q-23 4 -43 15q-32 19 -53 56q-35 60 -35 156zM124 310v-90q0 -68 24 -110q14 -24 34 -36q14 -8 30 -10q41 66 87 102q3 22 3 48v102q0 71 -24 113q-12 20 -28 30q-13 7 -30 7q-20 0 -38 -10 q-20 -12 -34 -36q-24 -42 -24 -110zM394 69q9 -8 21.5 -8t21.5 9q11 10 10 31q1 21 -10 31q-9 10 -26 10q-14 0 -29 -7v-1v-11v-7v-4q0 -30 12 -43z" />
<glyph unicode="&#x222;" d="M44 195v32q0 64 27 111q23 40 65 65l2 1q-35 21 -55 55q-23 40 -23 94v182h80v-182q0 -43 17 -72q14 -24 37 -37.5t56 -13.5t56 13.5t37 37.5q17 29 17 72v182h80v-182q0 -54 -23 -94q-20 -34 -55 -55l2 -1q42 -25 65 -65q27 -47 27 -111v-32q0 -65 -27 -111 q-23 -41 -65 -65q-47 -27 -114 -27t-114 27q-42 24 -65 65q-27 46 -27 111zM142 121q15 -26 41 -41q27 -16 67 -16t67 16q26 15 41 41q18 31 18 74v32q0 43 -18 74q-15 26 -41 41q-27 16 -67 16t-67 -16q-26 -15 -41 -41q-18 -31 -18 -74v-32q0 -43 18 -74z" />
<glyph unicode="&#x223;" d="M44 220v69q0 79 32 133q24 42 64 67q-37 22 -57 57q-23 40 -23 94v95h80v-95q0 -43 17 -72q14 -24 37 -37.5t56 -13.5t56 13.5t37 37.5q17 29 17 72v95h80v-95q0 -54 -23 -94q-20 -35 -57 -57q40 -25 64 -67q32 -54 32 -133v-69q0 -79 -32 -133q-25 -44 -68 -69 q-45 -26 -106 -26t-106 26q-43 25 -68 69q-32 54 -32 133zM146 123q18 -29 44 -44q25 -15 60 -15t60 15q26 15 44 44q22 39 22 97v69q0 57 -22 97q-18 29 -44 44q-25 15 -60 15t-60 -15q-26 -15 -44 -44q-22 -40 -22 -97v-69q0 -58 22 -97z" />
<glyph unicode="&#x224;" d="M60 72l288 591h-208v-73h-80v145h380v-72l-288 -591h118q44 0 78.5 -20t58.5 -60q33 -59 33 -147h-80q0 71 -24 113q-13 23 -32 33q-15 9 -34 9h-210v72z" />
<glyph unicode="&#x225;" d="M60 72l284 386h-204v-73h-80v145h380v-72l-284 -386h114q44 0 78.5 -20t58.5 -60q33 -59 33 -147h-80q0 71 -24 113q-13 23 -32 33q-15 9 -34 9h-210v72z" />
<glyph unicode="&#x226;" d="M15 72h45v2q0 100 142 661h96q142 -561 142 -661v-2h45v-72h-170v72h45v2q0 33 -15 119h-190q-15 -86 -15 -119v-2h45v-72h-170v72zM331 265q-28 137 -81 362q-53 -225 -81 -362h162zM188 890q-1 20 8 34q7 13 20.5 21t33.5 8t33.5 -8t20.5 -21q8 -13 9 -34 q-1 -21 -9 -34q-7 -13 -20.5 -20.5t-33.5 -8t-33.5 7.5t-20.5 21q-9 14 -8 34z" />
<glyph unicode="&#x227;" d="M63 226q20 35 60 58q57 33 146 33h91v46q0 31 -13 54q-12 21 -34 34q-27 15 -66 15t-66 -16q-22 -12 -35 -34q-9 -17 -11 -34l-77 18q3 27 18 53q22 37 58 59q46 26 112.5 26t113.5 -27q37 -21 58 -57q22 -39 22 -91v-291h45v-72h-125v76q-23 -38 -60 -60 q-42 -24 -98 -24q-51 0 -87 20q-32 19 -50 51q-21 36 -21 86q0 45 19 77zM134 107q11 -18 30 -29q25 -14 63 -14q42 0 73 18q27 16 42 43q18 30 18 73v47h-91q-62 0 -100 -22q-24 -14 -35 -34q-10 -17 -10 -40t10 -42zM188 685q-1 20 8 34q7 13 20.5 21t33.5 8t33.5 -8 t20.5 -21q8 -13 9 -34q-1 -21 -9 -34q-7 -13 -20.5 -20.5t-33.5 -8t-33.5 7.5t-20.5 21q-9 14 -8 34z" />
<glyph unicode="&#x228;" d="M45 72h45v591h-45v72h395v-145h-80v73h-190v-245h195v-72h-195v-274h190v73h80v-145h-395v72zM150 -142h100q14 0 22 8q6 6 6 15.5t-6 15.5q-8 7 -22 7h-40v96h80v-29q13 -3 24 -10q21 -12 32.5 -32t11.5 -48t-11.5 -48t-32.5 -32q-26 -15 -64 -15h-100v72z" />
<glyph unicode="&#x229;" d="M44 310q0 79 32 133q25 44 68 69q45 26 106 26t106 -26q43 -25 68 -69q32 -54 32 -133v-81h-332v-9q0 -56 22 -95q17 -30 44.5 -45.5t65 -15.5t65.5 16q27 16 45 46q9 17 13 32l74 -28q-7 -21 -18 -41q-26 -45 -70 -70q-46 -27 -110 -27t-110 27q-43 25 -70 69 q-31 55 -31 132v90zM124 310v-9h252v9q0 58 -22 97q-18 29 -44 44q-25 15 -60 15t-60 -15q-26 -15 -44 -44q-22 -39 -22 -97zM150 -142h100q14 0 22 8q6 6 6 15.5t-6 15.5q-8 7 -22 7h-40v96h80v-29q13 -3 24 -10q21 -12 32.5 -32t11.5 -48t-11.5 -48t-32.5 -32 q-26 -15 -64 -15h-100v72z" />
<glyph unicode="&#x22a;" d="M88 890q-1 20 8 34q7 13 20.5 21t33.5 8t33.5 -8t20.5 -21q8 -13 9 -34q-1 -21 -9 -34q-7 -13 -20.5 -20.5t-33.5 -8t-33.5 7.5t-20.5 21q-9 14 -8 34zM288 890q-1 20 8 34q7 13 20.5 21t33.5 8t33.5 -8t20.5 -21q8 -13 9 -34q-1 -21 -9 -34q-7 -13 -20.5 -20.5t-33.5 -8 t-33.5 7.5t-20.5 21q-9 14 -8 34zM44 195v345q0 65 27 111q23 41 65 65q47 27 114 27t114 -27q42 -24 65 -65q27 -46 27 -111v-345q0 -65 -27 -111q-23 -41 -65 -65q-47 -27 -114 -27t-114 27q-42 24 -65 65q-27 46 -27 111zM142 121q15 -26 41 -41q27 -16 67 -16t67 16 q26 15 41 41q18 31 18 74v345q0 43 -18 74q-15 26 -41 41q-27 16 -67 16t-67 -16q-26 -15 -41 -41q-18 -31 -18 -74v-345q0 -43 18 -74zM100 1139h300v-72h-300v72z" />
<glyph unicode="&#x22b;" d="M88 685q-1 20 8 34q7 13 20.5 21t33.5 8t33.5 -8t20.5 -21q8 -13 9 -34q-1 -21 -9 -34q-7 -13 -20.5 -20.5t-33.5 -8t-33.5 7.5t-20.5 21q-9 14 -8 34zM288 685q-1 20 8 34q7 13 20.5 21t33.5 8t33.5 -8t20.5 -21q8 -13 9 -34q-1 -21 -9 -34q-7 -13 -20.5 -20.5t-33.5 -8 t-33.5 7.5t-20.5 21q-9 14 -8 34zM44 220v90q0 79 32 133q25 44 68 69q45 26 106 26t106 -26q43 -25 68 -69q32 -54 32 -133v-90q0 -79 -32 -133q-25 -44 -68 -69q-45 -26 -106 -26t-106 26q-43 25 -68 69q-32 54 -32 133zM146 123q18 -29 44 -44q25 -15 60 -15t60 15 q26 15 44 44q22 39 22 97v90q0 58 -22 97q-18 29 -44 44q-25 15 -60 15t-60 -15q-26 -15 -44 -44q-22 -39 -22 -97v-90q0 -58 22 -97zM100 934h300v-72h-300v72z" />
<glyph unicode="&#x22c;" d="M44 195v345q0 65 27 111q23 41 65 65q47 27 114 27t114 -27q42 -24 65 -65q27 -46 27 -111v-345q0 -65 -27 -111q-23 -41 -65 -65q-47 -27 -114 -27t-114 27q-42 24 -65 65q-27 46 -27 111zM142 121q15 -26 41 -41q27 -16 67 -16t67 16q26 15 41 41q18 31 18 74v345 q0 43 -18 74q-15 26 -41 41q-27 16 -67 16t-67 -16q-26 -15 -41 -41q-18 -31 -18 -74v-345q0 -43 18 -74zM103 894q26 45 53 61q18 9 36 9t35 -9q23 -13 54 -62q18 -27 27 -36q11 9 25 33q15 27 34 71l66 -24q-18 -45 -36 -76q-26 -45 -53 -61q-18 -10 -36 -10t-35 10 q-23 13 -54 61q-18 28 -27 36q-11 -9 -25 -33q-15 -26 -34 -71l-66 25q18 45 36 76zM100 1139h300v-72h-300v72z" />
<glyph unicode="&#x22d;" d="M44 220v90q0 79 32 133q25 44 68 69q45 26 106 26t106 -26q43 -25 68 -69q32 -54 32 -133v-90q0 -79 -32 -133q-25 -44 -68 -69q-45 -26 -106 -26t-106 26q-43 25 -68 69q-32 54 -32 133zM146 123q18 -29 44 -44q25 -15 60 -15t60 15q26 15 44 44q22 39 22 97v90 q0 58 -22 97q-18 29 -44 44q-25 15 -60 15t-60 -15q-26 -15 -44 -44q-22 -39 -22 -97v-90q0 -58 22 -97zM103 689q26 45 53 61q18 9 36 9t35 -9q23 -13 54 -62q18 -27 27 -36q11 9 25 33q15 27 34 71l66 -24q-18 -45 -36 -76q-26 -45 -53 -61q-18 -10 -36 -10t-35 10 q-23 13 -54 61q-18 28 -27 36q-11 -9 -25 -33q-15 -26 -34 -71l-66 25q18 45 36 76zM100 934h300v-72h-300v72z" />
<glyph unicode="&#x22e;" d="M44 195v345q0 65 27 111q23 41 65 65q47 27 114 27t114 -27q42 -24 65 -65q27 -46 27 -111v-345q0 -65 -27 -111q-23 -41 -65 -65q-47 -27 -114 -27t-114 27q-42 24 -65 65q-27 46 -27 111zM142 121q15 -26 41 -41q27 -16 67 -16t67 16q26 15 41 41q18 31 18 74v345 q0 43 -18 74q-15 26 -41 41q-27 16 -67 16t-67 -16q-26 -15 -41 -41q-18 -31 -18 -74v-345q0 -43 18 -74zM188 890q-1 20 8 34q7 13 20.5 21t33.5 8t33.5 -8t20.5 -21q8 -13 9 -34q-1 -21 -9 -34q-7 -13 -20.5 -20.5t-33.5 -8t-33.5 7.5t-20.5 21q-9 14 -8 34z" />
<glyph unicode="&#x22f;" d="M44 220v90q0 79 32 133q25 44 68 69q45 26 106 26t106 -26q43 -25 68 -69q32 -54 32 -133v-90q0 -79 -32 -133q-25 -44 -68 -69q-45 -26 -106 -26t-106 26q-43 25 -68 69q-32 54 -32 133zM146 123q18 -29 44 -44q25 -15 60 -15t60 15q26 15 44 44q22 39 22 97v90 q0 58 -22 97q-18 29 -44 44q-25 15 -60 15t-60 -15q-26 -15 -44 -44q-22 -39 -22 -97v-90q0 -58 22 -97zM188 685q-1 20 8 34q7 13 20.5 21t33.5 8t33.5 -8t20.5 -21q8 -13 9 -34q-1 -21 -9 -34q-7 -13 -20.5 -20.5t-33.5 -8t-33.5 7.5t-20.5 21q-9 14 -8 34z" />
<glyph unicode="&#x230;" d="M44 195v345q0 65 27 111q23 41 65 65q47 27 114 27t114 -27q42 -24 65 -65q27 -46 27 -111v-345q0 -65 -27 -111q-23 -41 -65 -65q-47 -27 -114 -27t-114 27q-42 24 -65 65q-27 46 -27 111zM142 121q15 -26 41 -41q27 -16 67 -16t67 16q26 15 41 41q18 31 18 74v345 q0 43 -18 74q-15 26 -41 41q-27 16 -67 16t-67 -16q-26 -15 -41 -41q-18 -31 -18 -74v-345q0 -43 18 -74zM188 890q-1 20 8 34q7 13 20.5 21t33.5 8t33.5 -8t20.5 -21q8 -13 9 -34q-1 -21 -9 -34q-7 -13 -20.5 -20.5t-33.5 -8t-33.5 7.5t-20.5 21q-9 14 -8 34zM100 1139h300 v-72h-300v72z" />
<glyph unicode="&#x231;" d="M44 220v90q0 79 32 133q25 44 68 69q45 26 106 26t106 -26q43 -25 68 -69q32 -54 32 -133v-90q0 -79 -32 -133q-25 -44 -68 -69q-45 -26 -106 -26t-106 26q-43 25 -68 69q-32 54 -32 133zM146 123q18 -29 44 -44q25 -15 60 -15t60 15q26 15 44 44q22 39 22 97v90 q0 58 -22 97q-18 29 -44 44q-25 15 -60 15t-60 -15q-26 -15 -44 -44q-22 -39 -22 -97v-90q0 -58 22 -97zM188 685q-1 20 8 34q7 13 20.5 21t33.5 8t33.5 -8t20.5 -21q8 -13 9 -34q-1 -21 -9 -34q-7 -13 -20.5 -20.5t-33.5 -8t-33.5 7.5t-20.5 21q-9 14 -8 34zM100 934h300 v-72h-300v72z" />
<glyph unicode="&#x232;" d="M15 735h170v-72h-44q6 -89 54 -181l55 -105l55 105q48 92 54 181h-44v72h170v-72h-46q-7 -106 -64 -214l-85 -162v-215h45v-72h-170v72h45v215l-85 162q-57 108 -64 214h-46v72zM100 926h300v-72h-300v72z" />
<glyph unicode="&#x233;" d="M15 530h170v-72h-42q7 -38 25 -95l82 -249l82 249q18 57 25 95h-42v72h170v-72h-47q-7 -49 -30 -118l-152 -443q-13 -35 -21 -51q-15 -25 -37 -38q-23 -13 -66 -13h-42v72h42q23 0 34 11q9 9 19 40l26 79l-119 343q-23 68 -30 118h-47v72zM100 721h300v-72h-300v72z" />
<glyph unicode="&#x234;" d="M91 68q53 91 119 140v455h-135v72h215v-487q26 7 53 7q41 0 73 -18q25 -15 38 -39q19 -32 19 -74t-18 -74q-15 -25 -39 -39q-33 -19 -74 -19q-36 0 -64.5 16.5t-44.5 45.5q-13 21 -18 55q-28 -31 -53 -74q-29 -50 -45 -107l-77 19q18 64 51 121zM308 78q14 -14 33 -14 q22 0 36 14q16 16 16 45.5t-15 44.5t-40 15q-23 0 -48 -14v-1v-8v-15q0 -48 18 -67z" />
<glyph unicode="&#x235;" d="M15 72h45v386h-45v72h125v-65q2 4 5 9q20 34 48 51q23 13 53 13t53 -13q28 -17 48 -51q36 -62 35 -164v-103q16 3 33 3q37 0 62 -15q20 -11 31 -31q15 -26 16 -63q-1 -35 -15 -61q-13 -21 -33 -33q-27 -15 -61 -15q-32 0 -56.5 14.5t-38.5 38.5q-9 15 -13 38 q-28 -29 -51 -70q-22 -38 -35 -82l-73 19q7 25 18 50h-151v72zM140 310v-238h45v-33q1 3 3 6q49 84 114 128v137q1 76 -24 119q-12 20 -28 30q-13 7 -29 7t-28 -7q-17 -10 -28 -30q-25 -43 -25 -119zM394 69q9 -8 21.5 -8t21.5 9q11 10 10 31q1 21 -10 31q-9 10 -27 10 q-13 0 -28 -6v-2v-11v-7v-4q0 -30 12 -43z" />
<glyph unicode="&#x236;" d="M80 93q38 66 80 105v260h-109v72h109v205h80v-205h161v-72h-161v-212q27 9 55 9q39 0 70 -18q25 -15 39 -40q19 -31 19 -73t-18 -74q-15 -25 -39 -39q-33 -19 -74 -19q-36 0 -64 16q-29 17 -45 46q-9 14 -14 35q-9 -14 -18 -29q-36 -62 -51 -132l-78 15q17 79 58 150z M258 78q14 -14 33 -14q22 0 36 14q16 16 16 45.5t-16 45.5q-14 14 -37 14q-20 0 -42 -13q-4 -2 -8 -5v-5v-15q0 -48 18 -67z" />
<glyph unicode="&#x237;" d="M89 -46q4 -28 17 -50.5t33 -34.5q18 -10 41 -10t41 10q20 12 32 34q20 34 20 87v468h-135v72h215v-540q0 -73 -29 -123q-22 -38 -58.5 -59t-85.5 -21t-85 21t-59 59q-16 29 -23 63z" />
<glyph unicode="&#x238;" d="M309 77q12 -13 32 -13t32 13q19 18 19 55v266q0 37 -19 55q-12 13 -32 13t-32 -13q-19 -18 -19 -55v-266q0 -37 19 -55zM108 398v-266q0 -37 19 -55q12 -13 32 -13t32 13q19 18 19 55v266q0 37 -19 55q-12 13 -32 13t-32 -13q-19 -18 -19 -55zM28 398q0 47 19 80 q16 28 43 43q29 17 69 17q28 0 51 -8v133h-45v72h125v-205q23 8 51 8q40 0 69 -17q27 -15 43 -43q19 -33 19 -80v-266q0 -47 -19 -80q-16 -28 -43 -43q-29 -17 -69 -17t-69 17q-12 7 -22 16q-10 -9 -22 -16q-29 -17 -69 -17t-69 17q-27 15 -43 43q-19 33 -19 80v266z" />
<glyph unicode="&#x239;" d="M309 77q12 -13 32 -13t32 13q19 18 19 55v266q0 37 -19 55q-12 13 -32 13t-32 -13q-19 -18 -19 -55v-266q0 -37 19 -55zM108 398v-266q0 -37 19 -55q12 -13 32 -13t32 13q19 18 19 55v266q0 37 -19 55q-12 13 -32 13t-32 -13q-19 -18 -19 -55zM28 398q0 47 19 80 q16 28 43 43q29 17 69 17t69 -17q12 -7 22 -16q10 9 22 16q29 17 69 17t69 -17q27 -15 43 -43q19 -33 19 -80v-266q0 -47 -19 -80q-16 -28 -43 -43q-29 -17 -69 -17q-28 0 -51 8v-133h45v-72h-170v72h45v133q-23 -8 -51 -8q-40 0 -69 17q-27 15 -43 43q-19 33 -19 80v266z " />
<glyph unicode="&#x23a;" d="M15 72h45v2q0 100 142 661h96q142 -561 142 -661v-2h45v-72h-170v72h45v2q0 33 -15 119h-190q-15 -86 -15 -119v-2h45v-72h-170v72zM331 265q-28 137 -81 362q-53 -225 -81 -362h162zM360 816l58 -16l-278 -882l-58 16z" />
<glyph unicode="&#x23b;" d="M44 540q0 65 27 112q24 41 64 64q47 27 111 27t110 -27q41 -23 65 -64q19 -33 24 -72l-78 -14q-4 28 -17 49q-14 26 -40 40q-27 16 -64 16t-64 -16q-25 -14 -40 -40q-18 -31 -18 -75v-345q0 -44 18 -75q15 -26 40 -40q27 -16 64 -16t64 16q26 14 40 40q13 21 17 49 l78 -14q-5 -39 -24 -72q-24 -41 -65 -64q-46 -27 -110 -27t-111 27q-40 23 -64 64q-27 47 -27 112v345zM360 816l58 -16l-278 -882l-58 16z" />
<glyph unicode="&#x23c;" d="M44 220v90q0 79 32 134q25 44 67 69q45 25 104.5 25t104.5 -25q42 -25 67 -69q18 -31 26 -69l-76 -22q-5 30 -19 54q-17 29 -43 44t-60 15q-33 0 -58.5 -15t-41.5 -43q-23 -39 -23 -98v-90q0 -59 23 -98q16 -28 41.5 -43t58.5 -15q34 0 60 15t43 44q14 24 19 54l76 -22 q-8 -38 -26 -69q-25 -44 -67 -69q-45 -25 -104.5 -25t-104.5 25q-42 25 -67 69q-32 55 -32 134zM362 594l54 -22l-278 -636l-54 22z" />
<glyph unicode="&#x23d;" d="M18 418h72v245h-45v72h170v-72h-45v-245h92v-72h-92v-274h206v73h80v-145h-411v72h45v274h-72v72z" />
<glyph unicode="&#x23e;" d="M52 735h396v-145h-80v73h-78v-591h65v-72h-210v72h65v591h-78v-73h-80v145zM360 816l58 -16l-278 -882l-58 16z" />
<glyph unicode="&#x23f;" d="M61 111l73 23l8 -18q14 -23 36 -36q28 -16 71 -16q47 0 77 17q18 11 28 27q8 14 8 32q0 20 -10 36q-10 18 -30 30q-24 14 -80 20q-72 8 -107.5 28.5t-56 56t-20.5 79.5q0 39 17 69q18 31 53 51q49 28 123 28q70 0 116 -27q38 -22 60 -60q9 -14 14 -31l-75 -24l-8 18 q-14 23 -36 36q-28 16 -71 16q-47 0 -77 -17q-18 -11 -28 -27q-8 -14 -8 -32q0 -20 10 -36q10 -18 30 -30q24 -14 80 -20q72 -8 107.5 -28.5t56 -56t20.5 -79.5q0 -39 -17 -69q-18 -31 -53 -51q-49 -28 -123 -28q-57 0 -98 18l6 -12q34 -59 93 -93q66 -38 189 -38h1v-72h-1 q-137 0 -213 44t-122 124q-40 67 -49 147z" />
<glyph unicode="&#x240;" d="M354 458h-214v-73h-80v145h380v-72l-283 -441q96 -92 141 -118q56 -32 141 -32h1v-72h-1q-109 0 -181 42q-70 40 -193 163h-5z" />
<glyph unicode="&#x241;" d="M81 654q23 41 64 64q42 25 100.5 25t101.5 -25q40 -23 64 -64q29 -51 29 -116q0 -73 -38 -139q-15 -26 -45 -64l-3 -3q-26 -35 -37 -54q-27 -47 -27 -119v-87h45v-72h-170v72h45v87q0 89 33 147q12 20 38 56q3 4 5 6q28 37 43 61q31 56 31 109q0 45 -20 80q-15 25 -39 39 q-23 14 -55 14t-56 -14t-39 -40q-15 -25 -18 -55l-78 18q6 41 26 74z" />
<glyph unicode="&#x242;" d="M75 454q20 36 58 58q45 26 114 26q70 0 117 -27q37 -21 56.5 -55.5t19.5 -76.5q0 -48 -25 -91q-17 -29 -58 -68q-37 -35 -49 -57q-18 -31 -18 -83v-8h45v-72h-170v72h45v8q0 71 24 113q15 26 57 68q39 38 53 62q16 28 16 56q0 21 -10 40q-12 19 -32 31q-28 16 -70 16 t-68 -16q-22 -12 -34 -33q-11 -19 -12 -43q0 -1 0.5 -3t0.5 -3l-80 7v4v1q0 40 20 74z" />
<glyph unicode="&#x243;" d="M15 72h45v113h-42v72h42v406h-45v72h220q61 0 104 -25q39 -22 61 -62q26 -44 26 -106q0 -55 -22 -93q-22 -37 -59 -59q-5 -3 -11 -5q18 -7 33 -16q42 -24 65.5 -64.5t23.5 -96.5q0 -64 -27 -110q-24 -43 -68 -68q-52 -30 -126 -30h-220v72zM235 418q33 0 58 14 q22 14 36 37q17 30 17 72t-17 71q-13 24 -36 37q-25 14 -58 14h-95v-245h95zM235 72q46 0 79 19q28 16 44 44q18 31 18 74t-18 74q-16 28 -44 44q-33 19 -79 19h-95v-89h110v-72h-110v-113h95z" />
<glyph unicode="&#x244;" d="M15 735h170v-72h-45v-468q0 -48 19 -80q14 -24 37 -37.5t54 -13.5t54 13.5t37 37.5q19 32 19 80v468h-45v72h170v-72h-45v-468q0 -69 -28 -116q-23 -40 -62 -63q-42 -24 -100 -24t-100 24q-39 23 -62 63q-28 47 -28 116v468h-45v72zM30 418h440v-72h-440v72z" />
<glyph unicode="&#x245;" d="M15 72h45v2q0 60 17 132q12 49 25 108q56 241 112 421h72q56 -180 112 -421q13 -59 25 -108q17 -72 17 -132v-2h45v-72h-170v72h45v2q0 59 -15 128q-5 21 -13 63q-6 27 -9 41q-36 174 -73 319q-37 -145 -73 -319q-3 -14 -9 -41q-8 -42 -13 -63q-15 -69 -15 -128v-2h45 v-72h-170v72z" />
<glyph unicode="&#x246;" d="M45 72h45v591h-45v72h395v-145h-80v73h-190v-245h195v-72h-195v-274h190v73h80v-145h-395v72zM360 816l58 -16l-278 -882l-58 16z" />
<glyph unicode="&#x247;" d="M44 310q0 79 32 133q25 44 68 69q45 26 106 26t106 -26q43 -25 68 -69q32 -54 32 -133v-81h-332v-9q0 -56 22 -95q17 -30 44.5 -45.5t65 -15.5t65.5 16q27 16 45 46q9 17 13 32l74 -28q-7 -21 -18 -41q-26 -45 -70 -70q-46 -27 -110 -27t-110 27q-43 25 -70 69 q-31 55 -31 132v90zM124 310v-9h252v9q0 58 -22 97q-18 29 -44 44q-25 15 -60 15t-60 -15q-26 -15 -44 -44q-22 -39 -22 -97zM362 594l54 -22l-278 -636l-54 22z" />
<glyph unicode="&#x248;" d="M118 170q4 -31 18 -55.5t37 -37.5t53.5 -13t52.5 13q23 13 37 38q19 32 19 80v468h-135v72h215v-540q0 -69 -28 -117q-23 -40 -62 -62q-41 -24 -98.5 -24t-99.5 24q-38 22 -62 62q-20 36 -25 77zM224 418h262v-72h-262v72z" />
<glyph unicode="&#x249;" d="M89 -46q4 -28 17 -50.5t33 -34.5q18 -10 41 -10t41 10q20 12 32 34q20 34 20 87v468h-135v72h215v-540q0 -73 -29 -123q-22 -38 -58.5 -59t-85.5 -21t-85 21t-59 59q-16 29 -23 63zM237 685q-1 20 8 34q7 13 20.5 21t33.5 8t33.5 -8t20.5 -21q8 -13 9 -34q-1 -21 -9 -34 q-7 -13 -20.5 -20.5t-33.5 -8t-33.5 7.5t-20.5 21q-9 14 -8 34zM168 301h262v-72h-262v72z" />
<glyph unicode="&#x24a;" d="M44 220v295q0 86 33 143q24 42 62 64q37 21 85 21q43 0 75 -18q34 -20 58 -60q2 -3 3 -6v76h125v-72h-45v-663q0 -47 14 -71q12 -21 32 -32q27 -16 84 -16v-72q-92 0 -136 25q-33 19 -52 52q-22 39 -22 114v76q-1 -3 -3 -6q-24 -40 -58 -60q-32 -18 -75 -18q-48 0 -85 21 q-38 22 -62 64q-33 57 -33 143zM146 123q18 -29 44 -44q25 -15 59 -15q28 0 49 12q23 13 39 40q23 41 23 104v295q0 63 -23 104q-16 27 -39 40q-21 12 -49 12q-34 0 -59 -15q-26 -15 -44 -44q-22 -39 -22 -97v-295q0 -58 22 -97z" />
<glyph unicode="&#x24b;" d="M77 453q24 42 62 64q37 21 85 21q43 0 75 -18q34 -20 58 -60q2 -3 3 -6v76h125v-72h-45v-458q0 -47 14 -71q12 -21 32 -32q27 -16 84 -16v-72q-92 0 -136 25q-33 19 -52 52q-22 39 -22 114v76q-1 -3 -3 -6q-24 -40 -58 -60q-32 -18 -75 -18q-48 0 -85 21q-38 22 -62 64 q-33 57 -33 143v90q0 86 33 143zM146 123q18 -29 44 -44q25 -15 59 -15q28 0 49 12q23 13 39 40q23 41 23 104v90q0 63 -23 104q-16 27 -39 40q-21 12 -49 12q-34 0 -59 -15q-26 -15 -44 -44q-22 -39 -22 -97v-90q0 -58 22 -97z" />
<glyph unicode="&#x24c;" d="M15 72h45v591h-45v72h242q63 0 108 -26q40 -23 64 -64q27 -47 27 -113.5t-27 -113.5q-24 -41 -64 -64q-24 -14 -53 -20q89 -162 114 -262h59v-72h-96h-32q1 99 -131 328h-86v-256h45v-72h-170v72zM257 400q35 0 62 15q24 14 39 40q18 31 18 76.5t-18 76.5q-15 26 -39 40 q-27 15 -62 15h-117v-263h117zM8 389h262v-72h-262v72z" />
<glyph unicode="&#x24d;" d="M57 72h63v386h-63v72h143v-101q7 19 17 36q23 39 55 58q26 15 61 15q36 0 67.5 -18t49.5 -50q8 -14 13 -30l-75 -34q-3 11 -9 22q-11 19 -29 29q-15 9 -34 9q-26 0 -46 -12q-24 -13 -42 -43q-28 -50 -28 -130v-209h105v-72h-248v72zM50 301h262v-72h-262v72z" />
<glyph unicode="&#x24e;" d="M15 735h170v-72h-44q6 -89 54 -181l55 -105l55 105q48 92 54 181h-44v72h170v-72h-46q-7 -106 -64 -214l-85 -162v-215h45v-72h-170v72h45v215l-85 162q-57 108 -64 214h-46v72zM30 330h440v-72h-440v72z" />
<glyph unicode="&#x24f;" d="M15 530h170v-72h-42q7 -38 25 -95l82 -249l82 249q18 57 25 95h-42v72h170v-72h-47q-7 -49 -30 -118l-152 -443q-13 -35 -21 -51q-15 -25 -37 -38q-23 -13 -66 -13h-42v72h42q23 0 34 11q9 9 19 40l26 79l-119 343q-23 68 -30 118h-47v72zM30 214h440v-72h-440v72z" />
<glyph unicode="&#x250;" d="M15 530h125v-76q23 38 60 60q42 24 98 24q51 0 87 -20q32 -19 50 -51q21 -36 21 -86q0 -45 -19 -77q-20 -35 -60 -58q-57 -33 -146 -33h-91v-46q0 -31 13 -54q12 -21 34 -34q27 -15 66 -15t66 16q22 12 35 34q9 17 11 34l78 -18q-5 -28 -19 -53q-22 -37 -58 -59 q-46 -26 -112.5 -26t-113.5 27q-37 21 -58 57q-22 39 -22 91v291h-45v72zM140 332v-47h91q62 0 100 22q24 14 35 34q10 17 10 40t-10 42q-11 18 -30 29q-25 14 -63 14q-42 0 -73 -18q-27 -16 -42 -43q-18 -30 -18 -73z" />
<glyph unicode="&#x251;" d="M77 453q24 42 62 64q37 21 85 21q43 0 75 -18q34 -20 58 -60q2 -3 3 -6v40l80 44v-466h45v-72h-125v76q-1 -3 -3 -6q-24 -40 -58 -60q-32 -18 -75 -18q-48 0 -85 21q-38 22 -62 64q-33 57 -33 143v90q0 86 33 143zM146 123q18 -29 44 -44q25 -15 59 -15q28 0 49 12 q23 13 39 40q23 41 23 104v90q0 63 -23 104q-16 27 -39 40q-21 12 -49 12q-34 0 -59 -15q-26 -15 -44 -44q-22 -39 -22 -97v-90q0 -58 22 -97z" />
<glyph unicode="&#x252;" d="M15 530h125v-76q1 3 3 6q24 40 58 60q32 18 75 18q48 0 85 -21q38 -22 62 -64q33 -57 33 -143v-90q0 -86 -33 -143q-24 -42 -62 -64q-37 -21 -85 -21q-43 0 -75 18q-34 20 -58 60q-2 3 -3 6v-40l-80 -44v466h-45v72zM163 116q16 -27 39 -40q21 -12 49 -12q34 0 59 15 q26 15 44 44q22 39 22 97v90q0 58 -22 97q-18 29 -44 44q-25 15 -59 15q-28 0 -49 -12q-23 -13 -39 -40q-23 -41 -23 -104v-90q0 -63 23 -104z" />
<glyph unicode="&#x253;" d="M15 72h45v443q0 81 32 137q25 44 66 67.5t97 23.5t98 -24q40 -23 66 -67q19 -33 26 -72l-76 -23q-5 33 -20 59q-16 28 -41 42q-23 13 -53 13q-29 0 -52 -13q-24 -14 -40 -42q-23 -40 -23 -101v-61q1 3 3 6q24 40 58 60q32 18 75 18q48 0 85 -21q38 -22 62 -64 q33 -57 33 -143v-90q0 -86 -33 -143q-24 -42 -62 -64q-37 -21 -85 -21q-43 0 -75 18q-34 20 -58 60q-2 3 -3 6v-76h-125v72zM140 310v-90q0 -63 23 -104q16 -27 39 -40q21 -12 49 -12q34 0 59 15q26 15 44 44q22 39 22 97v90q0 58 -22 97q-18 29 -44 44q-25 15 -59 15 q-28 0 -49 -12q-23 -13 -39 -40q-23 -41 -23 -104z" />
<glyph unicode="&#x254;" d="M131 177q5 -30 19 -54q17 -29 43 -44t60 -15q33 0 58.5 15t41.5 43q23 39 23 98v90q0 59 -23 98q-16 28 -41.5 43t-58.5 15q-34 0 -60 -15t-43 -44q-14 -24 -19 -54l-76 22q8 38 26 69q25 44 67 69q45 25 104.5 25t104.5 -25q42 -25 67 -69q32 -55 32 -134v-90 q0 -79 -32 -134q-25 -44 -67 -69q-45 -25 -104.5 -25t-104.5 25q-42 25 -67 69q-18 31 -26 69z" />
<glyph unicode="&#x255;" d="M55 116q3 5 5 9q-16 42 -16 95v90q0 74 30 127q25 43 67 67q45 26 107 26t106 -26q43 -24 67 -67q17 -28 24 -62l-76 -22q-5 25 -17 47q-17 28 -43 43t-61 15t-61 -15t-42 -43q-21 -36 -21 -90v-90v-10q28 28 59 46q46 27 103 27q51 0 91 -23q33 -19 52 -52t19 -71 q0 -39 -19 -73q-19 -31 -49 -48q-41 -24 -104 -24q-75 0 -128 31q-21 12 -38 28q-18 -38 -28 -78l-78 19q17 66 51 124zM194 84q34 -20 82 -20q35 0 57 13q17 9 25 25q10 16 10 35t-10 35q-9 17 -26 27q-21 12 -48 12q-31 0 -60 -17q-37 -21 -73 -71q17 -24 43 -39z" />
<glyph unicode="&#x256;" d="M77 453q24 42 62 64q37 21 85 21q43 0 75 -18q34 -20 58 -60q2 -3 3 -6v209h-45v72h125v-735q0 -47 14 -71q12 -21 32 -32q27 -16 84 -16v-72q-92 0 -136 25q-33 19 -52 52q-22 39 -22 114v76q-1 -3 -3 -6q-24 -40 -58 -60q-32 -18 -75 -18q-48 0 -85 21q-38 22 -62 64 q-33 57 -33 143v90q0 86 33 143zM146 123q18 -29 44 -44q25 -15 59 -15q28 0 49 12q23 13 39 40q23 41 23 104v90q0 63 -23 104q-16 27 -39 40q-21 12 -49 12q-34 0 -59 -15q-26 -15 -44 -44q-22 -39 -22 -97v-90q0 -58 22 -97z" />
<glyph unicode="&#x257;" d="M77 453q24 42 62 64q37 21 85 21q43 0 75 -18q34 -20 58 -60q2 -3 3 -6v76q0 57 24 99q23 40 64 63q50 29 122 29v-72q-45 0 -75 -18q-25 -14 -40 -39q-15 -26 -15 -62v-458h45v-72h-125v76q-1 -3 -3 -6q-24 -40 -58 -60q-32 -18 -75 -18q-48 0 -85 21q-38 22 -62 64 q-33 57 -33 143v90q0 86 33 143zM146 123q18 -29 44 -44q25 -15 59 -15q28 0 49 12q23 13 39 40q23 41 23 104v90q0 63 -23 104q-16 27 -39 40q-21 12 -49 12q-34 0 -59 -15q-26 -15 -44 -44q-22 -39 -22 -97v-90q0 -58 22 -97z" />
<glyph unicode="&#x258;" d="M76 443q25 44 68 69q45 26 106 26t106 -26q43 -25 68 -69q32 -54 32 -133v-90q0 -77 -31 -132q-27 -44 -70 -69q-46 -27 -110 -27t-110 27q-44 25 -70 70q-11 20 -18 41l74 28q4 -15 13 -32q18 -30 45 -46q28 -16 65.5 -16t65 15.5t44.5 45.5q22 39 22 95v9h-332v81 q0 79 32 133zM124 310v-9h252v9q0 58 -22 97q-18 29 -44 44q-25 15 -60 15t-60 -15q-26 -15 -44 -44q-22 -39 -22 -97z" />
<glyph unicode="&#x259;" d="M44 220v81h332v9q0 56 -22 95q-17 30 -44.5 45.5t-65 15.5t-65.5 -16q-27 -16 -45 -46q-9 -17 -13 -32l-74 28q7 21 18 41q26 45 70 70q46 27 110 27t110 -27q43 -25 70 -69q31 -55 31 -132v-90q0 -79 -32 -133q-25 -44 -68 -69q-45 -26 -106 -26t-106 26q-43 25 -68 69 q-32 54 -32 133zM146 123q18 -29 44 -44q25 -15 60 -15t60 15q26 15 44 44q22 39 22 97v9h-252v-9q0 -58 22 -97z" />
<glyph unicode="&#x25a;" d="M44 220v81h257v9q0 70 -24 113q-14 23 -33 34q-15 9 -35 9q-21 0 -37 -9q-20 -12 -34 -36q-14 -23 -19 -53l-72 32q8 31 23 57q24 41 60 61q34 20 78.5 20t79.5 -20q36 -21 59 -61q32 -55 34 -138h29v-1q0 -39 15 -65q12 -20 30.5 -31t41.5 -11h3v-65h-5q-45 0 -81 21 q-19 11 -34 27q-4 -73 -33 -122q-23 -41 -59 -61q-32 -19 -75 -19q-44 0 -76 19q-36 20 -59 61q-34 58 -34 148zM148 105q14 -22 31 -33q15 -8 34 -8q18 0 33 8q17 11 31 33q24 43 24 115v9h-177v-9q0 -72 24 -115z" />
<glyph unicode="&#x25b;" d="M51 211q17 30 52 50q16 9 34 16q-12 4 -23 11q-33 19 -48 46q-14 24 -14 56q0 38 17 68q18 31 53 52q50 28 124 28q70 0 117 -27q39 -22 60 -60q9 -14 14 -31l-75 -24q-3 9 -8 17q-14 24 -37 37q-27 16 -71 16q-48 0 -78 -17q-18 -11 -28 -27q-8 -15 -8 -33t8 -32 q10 -16 29 -27q31 -18 81 -18h57v-72h-57q-57 0 -92 -21q-22 -12 -33 -31q-9 -16 -9 -36q0 -22 10 -38q9 -17 31 -30q35 -20 90 -20q51 0 83 19q28 16 43 43q4 6 6 12l74 -28q-5 -12 -11 -21q-24 -43 -67 -68q-51 -29 -128 -29q-82 0 -136 31q-37 22 -57 55q-18 32 -18 73 q0 34 15 60z" />
<glyph unicode="&#x25c;" d="M121 138q15 -35 49 -55q32 -19 83 -19q55 0 90 20q22 13 31 30q10 16 10 38q0 20 -9 36q-11 19 -33 31q-35 21 -92 21h-57v72h57q50 0 81 18q19 11 29 27q8 14 8 32t-8 33q-10 16 -28 27q-30 17 -78 17q-44 0 -71 -16q-23 -13 -37 -37q-5 -8 -8 -17l-75 24q5 17 14 31 q21 38 60 60q47 27 117 27q74 0 124 -28q35 -21 53 -52q17 -30 17 -68q0 -32 -14 -56q-15 -27 -48 -46q-11 -7 -23 -11q18 -7 34 -16q35 -20 52 -50q15 -26 15 -60q0 -41 -18 -73q-20 -33 -57 -55q-54 -31 -136 -31q-77 0 -128 29q-43 25 -67 68q-6 9 -11 21z" />
<glyph unicode="&#x25d;" d="M124 131q1 -13 9 -26q10 -17 28 -28q23 -13 55 -13q31 0 53 13q18 10 29 28q11 20 11 46.5t-11 45.5t-30 29q-22 14 -55 14h-46v72h46q26 0 45 10q16 10 25 26q10 17 10 41.5t-10 42.5q-9 15 -25 24q-17 10 -41 10q-26 0 -45 -11q-14 -8 -23 -23q-8 -14 -8 -28l-78 16 q3 26 16 50q17 29 47 46q37 22 91 22q52 0 88 -21q31 -18 49 -49q19 -33 19 -78q0 -38 -16 -64q-2 -4 -4 -7h57v-1q0 -39 15 -65q12 -20 30.5 -31t41.5 -11h3v-65h-5q-45 0 -81 21q-16 10 -30 23q5 -18 5 -39q0 -47 -20 -83q-19 -33 -53 -52q-42 -24 -100 -24q-60 0 -101 24 q-33 19 -52 52q-12 20 -16 42z" />
<glyph unicode="&#x25e;" d="M52 220v90q0 81 32 136q25 44 67 68q19 11 41 17q27 7 60 7q65 0 111 -26q33 -20 52 -51q17 -31 17 -71t-17 -71q-13 -22 -34 -39q31 -19 48 -49q19 -33 19 -77.5t-19.5 -78t-55.5 -55.5q-50 -28 -120 -28q-60 0 -102 24t-67 68q-32 55 -32 136zM155 120q16 -28 41 -43 q24 -13 57 -13q43 0 73 17q21 12 32 31q10 18 10 41t-10 41q-11 19 -32 31q-30 17 -76 17h-57v72h57q40 0 66 15q19 11 27 27q9 14 9 34t-9 35q-9 16 -27 26q-26 15 -63 15q-33 0 -57 -13q-25 -15 -41 -43q-23 -39 -23 -100v-90q0 -60 23 -100z" />
<glyph unicode="&#x25f;" d="M109 -86q3 -22 12.5 -38t24.5 -25q14 -8 32 -8t31 8q15 8 24 25q14 23 14 59v95h-168v72h168v356h-139v72h324v-72h-105v-356h113v-72h-113v-95q0 -56 -23 -96q-18 -31 -49 -49q-32 -19 -77 -19t-77 19q-31 18 -49 50q-15 24 -20 55z" />
<glyph unicode="&#x260;" d="M77 453q24 42 62 64q37 21 85 21q43 0 75 -18q34 -20 58 -60q2 -3 3 -6v76q0 57 24 99q23 40 64 63q50 29 122 29v-72q-45 0 -75 -18q-25 -14 -40 -39q-15 -26 -15 -62v-515q0 -80 -32 -135q-25 -43 -67 -68q-44 -25 -103.5 -25t-102.5 25q-42 24 -68 69q-7 11 -12 24 l72 32q3 -9 9 -20q17 -28 42.5 -43t59.5 -15q33 0 57 14q26 15 42 44q23 39 23 98v61q-1 -3 -3 -6q-24 -40 -58 -60q-32 -18 -75 -18q-48 0 -85 21q-38 22 -62 64q-33 57 -33 143v90q0 86 33 143zM146 123q18 -29 44 -44q25 -15 59 -15q28 0 49 12q23 13 39 40q23 41 23 104 v90q0 63 -23 104q-16 27 -39 40q-21 12 -49 12q-34 0 -59 -15q-26 -15 -44 -44q-22 -39 -22 -97v-90q0 -58 22 -97z" />
<glyph unicode="&#x261;" d="M77 453q24 42 62 64q37 21 85 21q43 0 75 -18q34 -20 58 -60q2 -3 3 -6v76h125v-72h-45v-443q0 -80 -32 -135q-25 -43 -67 -68q-44 -25 -103.5 -25t-102.5 25q-42 24 -68 69q-7 11 -12 24l72 32q3 -9 9 -20q17 -28 42.5 -43t59.5 -15q33 0 57 14q26 15 42 44q23 39 23 98 v61q-1 -3 -3 -6q-24 -40 -58 -60q-32 -18 -75 -18q-48 0 -85 21q-38 22 -62 64q-33 57 -33 143v90q0 86 33 143zM146 123q18 -29 44 -44q25 -15 59 -15q28 0 49 12q23 13 39 40q23 41 23 104v90q0 63 -23 104q-16 27 -39 40q-21 12 -49 12q-34 0 -59 -15q-26 -15 -44 -44 q-22 -39 -22 -97v-90q0 -58 22 -97z" />
<glyph unicode="&#x262;" d="M44 195v140q0 65 27 112q24 41 64 64q47 27 111 27t110 -27q41 -23 65 -64q19 -33 24 -72l-78 -14q-4 28 -17 49q-14 26 -40 40q-27 16 -64 16t-64 -16q-25 -14 -40 -40q-18 -31 -18 -75v-140q0 -44 18 -74q14 -26 40 -41q29 -16 67 -16q32 0 55 13.5t37 37.5 q19 32 19 80v27h-110v72h190v-99q0 -69 -28 -116q-23 -40 -62 -63q-42 -24 -101 -24q-66 0 -113 27q-42 24 -65 65q-27 46 -27 111z" />
<glyph unicode="&#x263;" d="M132 530q71 -147 118 -266q47 119 118 266h80q-105 -215 -160 -369q59 -171 59 -270q1 -32 -12 -53q-5 -9 -13 -17q-26 -26 -72 -26t-72 26q-8 8 -13 17q-13 21 -12 53q0 99 58 269q-54 156 -159 370h80zM229 -108q0 -16 7 -23q5 -5 14 -5t14 5q7 7 7 23q0 59 -21 143 q-17 -69 -20 -121q-1 -16 -1 -22z" />
<glyph unicode="&#x264;" d="M132 530q69 -98 118 -181q49 83 118 181h80q-79 -111 -130 -198q-16 -28 -29 -54q59 -116 58 -185q1 -29 -12 -50q-10 -18 -30 -30q-23 -13 -55 -13t-55 13q-20 12 -30 30q-13 21 -12 50q-1 69 58 185q-13 26 -29 54q-51 87 -130 198h80zM236 74q5 -5 14 -5t14 5 q7 7 7 21q0 40 -21 97q-21 -57 -21 -97q0 -14 7 -21z" />
<glyph unicode="&#x265;" d="M15 530h170v-72h-45v-238q0 -63 23 -104q16 -27 39 -40q21 -12 48 -12t48 12q23 13 39 40q23 41 23 104v238h-45v72h170v-72h-45v-591h45v-72h-125v281q-1 -3 -3 -6q-24 -40 -58 -60q-32 -18 -74 -18t-73 18q-35 20 -58 60q-34 59 -34 150v238h-45v72z" />
<glyph unicode="&#x266;" d="M15 72h45v443q0 81 32 137q25 44 66 67.5t97 23.5t98 -24q40 -23 66 -67q19 -33 26 -72l-76 -23q-5 33 -20 59q-16 28 -41 42q-23 13 -53 13q-29 0 -52 -13q-24 -14 -40 -42q-23 -40 -23 -101v-61q1 3 3 6q24 40 58 60q32 18 74 18t73 -18q35 -20 58 -60q34 -59 34 -150 v-238h45v-72h-170v72h45v238q0 63 -23 104q-16 27 -39 40q-21 12 -48 12t-48 -12q-23 -13 -39 -40q-23 -41 -23 -104v-238h45v-72h-170v72z" />
<glyph unicode="&#x267;" d="M15 72h45v443q0 81 32 137q25 44 66 67.5t97 23.5t98 -24q40 -23 66 -67q19 -33 26 -72l-76 -23q-5 33 -20 59q-16 28 -41 42q-23 13 -53 13q-29 0 -52 -13q-24 -14 -40 -42q-23 -40 -23 -101v-61q1 3 3 6q24 40 58 60q32 18 74 18t73 -18q35 -20 58 -60q34 -59 34 -150 v-310q0 -57 -24 -99q-23 -40 -64 -63q-50 -29 -122 -29v72q45 0 75 18q25 14 40 39q15 26 15 62v310q0 63 -23 104q-16 27 -39 40q-21 12 -48 12t-48 -12q-23 -13 -39 -40q-23 -41 -23 -104v-238h45v-72h-170v72z" />
<glyph unicode="&#x268;" d="M75 72h142v386h-128v72h208v-458h128v-72h-350v72zM188 685q-1 20 8 34q7 13 20.5 21t33.5 8t33.5 -8t20.5 -21q8 -13 9 -34q-1 -21 -9 -34q-7 -13 -20.5 -20.5t-33.5 -8t-33.5 7.5t-20.5 21q-9 14 -8 34zM119 311h262v-72h-262v72z" />
<glyph unicode="&#x269;" d="M75 530h215v-375q0 -27 11 -47q10 -17 26 -26q17 -10 42 -10h65v-72h-65q-52 0 -89 21q-31 19 -50 50q-20 36 -20 84v303h-135v72z" />
<glyph unicode="&#x26a;" d="M110 72h100v386h-100v72h280v-72h-100v-386h100v-72h-280v72z" />
<glyph unicode="&#x26b;" d="M75 72h142v591h-128v72h208v-663h128v-72h-350v72zM103 411q26 45 53 61q18 9 36 9t35 -9q23 -13 54 -62q18 -27 27 -36q11 9 25 33q15 27 34 71l66 -24q-18 -45 -36 -76q-26 -45 -53 -61q-18 -10 -36 -10t-35 10q-23 13 -54 61q-18 28 -27 36q-11 -9 -25 -33 q-15 -26 -34 -71l-66 25q18 45 36 76z" />
<glyph unicode="&#x26c;" d="M75 72h142v208h-43q-32 0 -54 13q-18 11 -29 29q-11 19 -11 45.5t11 45.5q11 18 29 29q22 13 54 13h43v208h-128v72h208v-394h90v-61h-90v-208h128v-72h-350v72zM174 341h43v53h-43q-12 0 -19 -7t-7 -19.5t7 -19.5t19 -7z" />
<glyph unicode="&#x26d;" d="M100 735h214v-735q1 -47 14 -71q12 -21 32 -32q28 -16 84 -16h1v-72h-1q-91 0 -136 25q-33 19 -51 52q-23 39 -22 114v663h-136z" />
<glyph unicode="&#x26e;" d="M131 -27q5 -28 18 -51q16 -27 41 -41q23 -14 54 -14t54 13q25 14 40 41q22 38 22 95.5t-22 95.5q-15 26 -38 39q-22 13 -50 13h-38v72l104 222h-176v-405h-80v682h80v-205h272v-72l-104 -222v-8q20 -6 38 -16q39 -22 63 -64q31 -54 31 -131q0 -79 -31 -131 q-24 -43 -65 -67q-42 -24 -99.5 -24t-99.5 24q-41 23 -66 66q-17 31 -24 65z" />
<glyph unicode="&#x26f;" d="M15 530h117v-365q0 -71 23 -94q7 -7 16 -7t16 7q23 23 23 94v365h80v-365q0 -71 23 -94q7 -7 16 -7t16 7q23 23 23 94v365h117v-72h-37v-386h37v-72h-117v34q-13 -23 -32 -34q-14 -8 -32.5 -8t-33.5 9q-19 11 -33 35q-8 13 -13 29q-6 -17 -14 -31q-13 -23 -32 -34 q-14 -8 -32.5 -8t-33.5 9q-19 11 -33 35q-27 47 -27 129v293h-37v72z" />
<glyph unicode="&#x270;" d="M15 530h117v-365q0 -71 23 -94q7 -7 16 -7t16 7q23 23 23 94v365h80v-365q0 -71 23 -94q7 -7 16 -7t16 7q23 23 23 94v365h117v-72h-37v-663h-80v239q-13 -23 -32 -34q-14 -8 -32.5 -8t-33.5 9q-19 11 -33 35q-8 13 -13 29q-6 -17 -14 -31q-13 -23 -32 -34 q-14 -8 -32.5 -8t-33.5 9q-19 11 -33 35q-27 47 -27 129v293h-37v72z" />
<glyph unicode="&#x271;" d="M15 72h37v386h-37v72h117v-34q13 23 32 34q14 8 32.5 8t33.5 -9q19 -11 33 -35q8 -13 13 -29q6 17 14 31q13 23 32 34q14 8 32.5 8t33.5 -9q19 -11 33 -35q27 -47 27 -129v-365q0 -57 -24 -99q-23 -40 -64 -63q-50 -29 -122 -29v72q45 0 75 18q25 14 40 39q15 26 15 62 v365q0 71 -23 94q-7 7 -16 7t-16 -7q-23 -23 -23 -94v-365h-80v365q0 71 -23 94q-7 7 -16 7t-16 -7q-23 -23 -23 -94v-365h-117v72z" />
<glyph unicode="&#x272;" d="M-70 -119q45 0 75 18q25 14 40 39q15 26 15 62v458h-45v72h125v-76q1 3 3 6q24 40 58 60q32 18 74 18t73 -18q35 -20 58 -60q34 -59 34 -150v-238h45v-72h-170v72h45v238q0 63 -23 104q-16 27 -39 40q-21 12 -48 12t-48 -12q-23 -13 -39 -40q-23 -41 -23 -104v-310 q0 -57 -24 -99q-23 -40 -64 -63q-50 -29 -122 -29v72z" />
</font>
</defs>
</svg>
