<?xml version="1.0" standalone="no"?>
<!DOCTYPE svg PUBLIC "-//W3C//DTD SVG 20010904//EN"
 "http://www.w3.org/TR/2001/REC-SVG-20010904/DTD/svg10.dtd">
<svg version="1.0" xmlns="http://www.w3.org/2000/svg"
 width="128.000000pt" height="128.000000pt" viewBox="0 0 128.000000 128.000000"
 preserveAspectRatio="xMidYMid meet">
<metadata>
Created by potrace 1.11, written by Peter Selinger 2001-2013
</metadata>
<g transform="translate(0.000000,128.000000) scale(0.100000,-0.100000)"
fill="#000000" stroke="none">
<path d="M872 1219 c-75 -14 -134 -51 -222 -139 -128 -128 -245 -318 -389
-632 -18 -40 -37 -68 -46 -68 -8 0 -32 16 -54 35 -43 39 -74 44 -109 16 -21
-15 -23 -24 -19 -67 10 -91 36 -151 89 -203 69 -68 137 -89 287 -90 125 0 177
14 218 59 12 12 27 23 34 24 28 5 59 18 59 24 0 4 19 8 42 10 98 7 143 64 187
238 10 36 16 42 53 55 84 27 216 133 255 202 8 14 12 72 13 169 l0 146 -74 79
c-95 101 -151 132 -266 148 -8 1 -34 -2 -58 -6z"/>
</g>
</svg>
